<?xml version="1.0" standalone="no"?>
<!DOCTYPE svg PUBLIC "-//W3C//DTD SVG 1.1//EN" "http://www.w3.org/Graphics/SVG/1.1/DTD/svg11.dtd" >
<svg xmlns="http://www.w3.org/2000/svg" xmlns:xlink="http://www.w3.org/1999/xlink" version="1.1">
<metadata>
Created by FontForge 20200314 at Wed Jul 10 19:17:40 2013
 By Unknown
Copyright (c) 2012 by Neil Summerour. All rights reserved.
</metadata>
<defs>
<font id="LustScript" horiz-adv-x="606" >
  <font-face 
    font-family="Lust Script"
    font-weight="400"
    font-style="italic"
    font-stretch="normal"
    units-per-em="1000"
    panose-1="2 0 5 5 9 0 0 2 0 4"
    ascent="750"
    descent="-250"
    x-height="532"
    cap-height="811"
    bbox="-1148 -406 2231 978"
    underline-thickness="24"
    underline-position="-136"
    slope="-9"
    unicode-range="U+0020-2122"
  />
<missing-glyph horiz-adv-x="175" 
 />
    <glyph glyph-name="f_f" unicode="ff" horiz-adv-x="618" 
d="M76 525h52q9 52 15 81t20.5 67.5t33 58.5t50 34.5t74.5 14.5q63 0 96.5 -26t33.5 -69t-28.5 -71t-78.5 -28q-40 0 -65 31t-8 68q23 -5 39.5 8t16.5 36q0 39 -39 39q-33 0 -61 -30t-28 -70q0 -29 15.5 -52.5t34 -36.5t32.5 -27.5t11 -27.5h145q6 38 10 60t12.5 54.5
t17.5 52t24 42t33.5 34.5t44.5 20.5t58 8.5q66 0 105 -30t39 -79q0 -48 -32 -79.5t-88 -31.5q-45 0 -73.5 35t-9.5 77q26 -5 44.5 9.5t18.5 39.5q0 47 -39 47q-34 0 -62.5 -30.5t-28.5 -70.5q0 -36 24.5 -67t47 -53t18.5 -39h84l-2 -10h-68l-76 -482q-6 -39 -10 -60.5
t-12 -54.5t-16.5 -51t-23 -40t-32.5 -33t-43.5 -19t-56.5 -8q-63 0 -96.5 26t-33.5 69t28.5 71t78.5 28q40 0 65 -31t8 -68q-23 5 -39.5 -8t-16.5 -36q0 -39 39 -39q33 0 61 30t28 70q0 30 -17.5 56t-38.5 42t-36 39t-11 47l72 452h-130l-79 -502q-10 -65 -34 -120.5
t-70.5 -96t-105.5 -40.5q-63 0 -99 30t-36 78q0 52 33.5 78.5t79.5 26.5q42 0 71 -27t24 -75q-27 1 -42.5 -11t-15.5 -35q0 -17 9.5 -27.5t27.5 -10.5q60 0 60 86q0 28 -13.5 53.5t-29 42t-26 42.5t-5.5 56l72 452h-53z" />
    <glyph glyph-name="f_i" unicode="fi" horiz-adv-x="589" 
d="M581 418l-34 -205q-8 -46 -10.5 -64t-7 -60t-0.5 -63.5t16 -27.5l-3 -3q-22 -1 -49 -3.5t-54 6.5t-48 24t-30.5 48t-2.5 79l47 289q2 15 7 29t8 21t5 13.5t-2 8.5t-12.5 3.5t-27.5 1.5h-77l-79 -502q-10 -65 -34 -120.5t-70.5 -96t-105.5 -40.5q-63 0 -99 30t-36 78
q0 52 33.5 78.5t79.5 26.5q42 0 71 -27t24 -75q-27 1 -42.5 -11t-15.5 -35q0 -17 9.5 -27.5t27.5 -10.5q60 0 60 86q0 28 -13.5 53.5t-29 42t-26 42.5t-5.5 56l72 452h-53l2 10h53q26 135 149 217q101 66 205 62q96 -4 124 -71q9 -21 9 -47q0 -43 -28.5 -71t-78.5 -28
q-40 0 -65 31t-8 68q23 -5 39.5 8t16.5 36q0 56 -62 57q-63 2 -131 -46q-72 -51 -72 -108q0 -29 11.5 -47.5t25 -25t23 -15t5.5 -20.5h72q26 0 72.5 1.5t73.5 1.5q90 0 71 -110z" />
    <glyph glyph-name="f_f_i" unicode="ffi" horiz-adv-x="898" 
d="M76 525h52q9 52 15 81t20.5 67.5t33 58.5t50 34.5t74.5 14.5q63 0 96.5 -26t33.5 -69t-28.5 -71t-78.5 -28q-40 0 -65 31t-8 68q23 -5 39.5 8t16.5 36q0 39 -39 39q-33 0 -61 -30t-28 -70q0 -29 15.5 -52.5t34 -36.5t32.5 -27.5t11 -27.5h145q26 135 149 217
q101 66 205 62q96 -4 124 -71q9 -21 9 -47q0 -43 -28.5 -71t-78.5 -28q-40 0 -65 31t-8 68q23 -5 39.5 8t16.5 36q0 56 -62 57q-63 2 -131 -46q-72 -51 -72 -108q0 -29 11.5 -47.5t25 -25t23 -15t5.5 -20.5h72q26 0 72.5 1.5t73.5 1.5q90 0 71 -110l-34 -205
q-8 -46 -10.5 -64t-7 -60t-0.5 -63.5t16 -27.5l-3 -3q-22 -1 -49 -3.5t-54 6.5t-48 24t-30.5 48t-2.5 79l47 289q2 15 7 29t8 21t5 13.5t-2 8.5t-12.5 3.5t-27.5 1.5h-77l-76 -482q-6 -38 -10 -60.5t-12 -54.5t-16.5 -50.5t-22.5 -40.5t-30.5 -33t-40.5 -19t-53 -8
q-63 0 -96.5 26t-33.5 69t28.5 71t78.5 28q40 0 65 -31t8 -68q-23 5 -39.5 -8t-16.5 -36q0 -39 39 -39q32 0 56 30t24 70q0 30 -17.5 56t-38.5 42t-36 39t-11 47l72 452h-129l-79 -502q-10 -65 -34 -120.5t-70.5 -96t-105.5 -40.5q-63 0 -99 30t-36 78q0 52 33.5 78.5
t79.5 26.5q42 0 71 -27t24 -75q-27 1 -42.5 -11t-15.5 -35q0 -17 9.5 -27.5t27.5 -10.5q60 0 60 86q0 28 -13.5 53.5t-29 42t-26 42.5t-5.5 56l72 452h-53z" />
    <glyph glyph-name="f_j" unicode="fj" horiz-adv-x="589" 
d="M346 63l59 375q2 15 7 29t8 21t5 13.5t-2 8.5t-12.5 3.5t-27.5 1.5h-77l-79 -502q-10 -65 -34 -120.5t-70.5 -96t-105.5 -40.5q-63 0 -99 30t-36 78q0 52 33.5 78.5t79.5 26.5q42 0 71 -27t24 -75q-27 1 -42.5 -11t-15.5 -35q0 -17 9.5 -27.5t27.5 -10.5q60 0 60 86
q0 28 -13.5 53.5t-29 42t-26 42.5t-5.5 56l72 452h-53l2 10h53q26 135 149 217q101 66 205 62q96 -4 124 -71q9 -21 9 -47q0 -43 -28.5 -71t-78.5 -28q-40 0 -65 31t-8 68q23 -5 39.5 8t16.5 36q0 56 -62 57q-63 2 -131 -46q-72 -51 -72 -108q0 -29 11.5 -47.5t25 -25
t23 -15t5.5 -20.5h72q26 0 72.5 1.5t73.5 1.5q88 0 71 -110l-60 -385q-8 -53 -14.5 -84t-20 -70.5t-31.5 -60.5t-48.5 -36t-70.5 -15q-63 0 -96.5 26t-33.5 69t28.5 71t78.5 28q40 0 65 -31t8 -68q-23 5 -39.5 -8t-16.5 -36q0 -39 39 -39q32 0 56 30t24 70q0 30 -17.5 56
t-38 42t-36 39t-11.5 47z" />
    <glyph glyph-name="f_f_j" unicode="ffj" horiz-adv-x="898" 
d="M76 525h52q9 52 15 81t20.5 67.5t33 58.5t50 34.5t74.5 14.5q63 0 96.5 -26t33.5 -69t-28.5 -71t-78.5 -28q-40 0 -65 31t-8 68q23 -5 39.5 8t16.5 36q0 39 -39 39q-33 0 -61 -30t-28 -70q0 -29 15.5 -52.5t34 -36.5t32.5 -27.5t11 -27.5h146q25 135 149 217
q101 66 205 62q96 -4 124 -71q9 -21 9 -47q0 -43 -28.5 -71t-78.5 -28q-40 0 -65 31t-8 68q23 -5 39.5 8t16.5 36q0 56 -62 57q-63 2 -131 -46q-72 -51 -72 -108q0 -29 11.5 -47.5t25 -25t23 -15t5.5 -20.5h72q26 0 72.5 1.5t73.5 1.5q88 0 71 -110l-60 -385
q-6 -40 -9.5 -60.5t-11.5 -54.5t-15.5 -51t-21 -39.5t-30 -33.5t-40 -19t-52.5 -8q-63 0 -95.5 26t-32.5 69t28.5 71t78.5 28q40 0 65 -31t8 -68q-23 5 -39.5 -8t-16.5 -36q0 -39 37 -39q32 0 53.5 29.5t21.5 70.5q0 30 -17.5 56t-38 42t-36 39t-11.5 47l59 375q2 15 7 29
t8 21t5 13.5t-2 8.5t-12.5 3.5t-27.5 1.5h-77l-74 -474q-8 -53 -14.5 -84t-20 -70.5t-31.5 -60.5t-48.5 -36t-70.5 -15q-63 0 -96.5 26t-33.5 69t28.5 71t78.5 28q40 0 65 -31t8 -68q-23 5 -39.5 -8t-16.5 -36q0 -39 39 -39q32 0 56 30t24 70q0 30 -17.5 56t-38 42t-36 39
t-11.5 47l70 444h-130l-79 -502q-10 -65 -34 -120.5t-70.5 -96t-105.5 -40.5q-63 0 -99 30t-36 78q0 52 33.5 78.5t79.5 26.5q42 0 71 -27t24 -75q-27 1 -42.5 -11t-15.5 -35q0 -17 9.5 -27.5t27.5 -10.5q60 0 60 86q0 28 -13.5 53.5t-29 42t-26 42.5t-5.5 56l72 452h-53z
" />
    <glyph glyph-name="f_l" unicode="fl" horiz-adv-x="578" 
d="M613 686l-76 -473q-1 -7 -4 -25t-4.5 -28.5t-4.5 -29t-4 -30.5t-2 -28t0 -26.5t2.5 -21t5 -17t9.5 -9.5l-3 -3q-22 -1 -49 -3.5t-54 6.5t-48 24t-30.5 48t-2.5 79l87 537q28 -7 45 7t17 37t-18.5 40t-52.5 17q-62 0 -130.5 -48.5t-68.5 -105.5q0 -29 11.5 -47.5t25 -25
t23 -15t5.5 -20.5h69l-2 -10h-53l-79 -502q-10 -65 -34 -120.5t-70.5 -96t-105.5 -40.5q-63 0 -99 30t-36 78q0 52 33.5 78.5t79.5 26.5q42 0 71 -27t24 -75q-27 1 -42.5 -11t-15.5 -35q0 -17 9.5 -27.5t27.5 -10.5q60 0 60 86q0 28 -13.5 53.5t-29 42t-26 42.5t-5.5 56
l72 452h-53l2 10h53q16 85 74 150.5t128.5 97t137.5 31.5q66 0 109.5 -31t34.5 -87z" />
    <glyph glyph-name="f_f_l" unicode="ffl" horiz-adv-x="887" 
d="M76 525h52q9 52 15 81t20.5 67.5t33 58.5t50 34.5t74.5 14.5q63 0 96.5 -26t33.5 -69t-28.5 -71t-78.5 -28q-40 0 -65 31t-8 68q23 -5 39.5 8t16.5 36q0 39 -39 39q-33 0 -61 -30t-28 -70q0 -29 15.5 -52.5t34 -36.5t32.5 -27.5t11 -27.5h146q16 85 74 150.5t128.5 97
t137.5 31.5q66 0 109.5 -31t34.5 -87l-76 -473q-1 -7 -4 -25t-4.5 -28.5t-4.5 -29t-4 -30.5t-2 -28t0 -26.5t2.5 -21t5 -17t9.5 -9.5l-3 -3q-22 -1 -49 -3.5t-54 6.5t-48 24t-30.5 48t-2.5 79l87 537q28 -7 45 7t17 37t-18.5 40t-52.5 17q-62 0 -130.5 -48.5t-68.5 -105.5
q0 -29 11.5 -47.5t25 -25t23 -15t5.5 -20.5h69l-2 -10h-53l-77 -482q-6 -38 -10 -60.5t-12 -54.5t-16.5 -50.5t-22.5 -40.5t-30.5 -33t-40.5 -19t-53 -8q-63 0 -96.5 26t-33.5 69t28.5 71t78.5 28q40 0 65 -31t8 -68q-23 5 -39.5 -8t-16.5 -36q0 -39 39 -39q32 0 56 30
t24 70q0 30 -17.5 56t-38 42t-35.5 39t-11 47l72 452h-130l-79 -502q-10 -65 -34 -120.5t-70.5 -96t-105.5 -40.5q-63 0 -99 30t-36 78q0 52 33.5 78.5t79.5 26.5q42 0 71 -27t24 -75q-27 1 -42.5 -11t-15.5 -35q0 -17 9.5 -27.5t27.5 -10.5q60 0 60 86q0 28 -13.5 53.5
t-29 42t-26 42.5t-5.5 56l72 452h-53z" />
    <glyph glyph-name="t_t" unicode="tt" horiz-adv-x="580" 
d="M617 744l-37 -219h70l-2 -10h-69l-50 -302q-32 -195 20 -215l-3 -3q-28 -4 -49 -4q-32 0 -60 7t-53.5 23t-36.5 49t-3 79l57 366h-112l-50 -302q-32 -195 20 -215l-3 -3q-28 -4 -49 -4q-32 0 -60 7t-53.5 23t-36.5 49t-3 79l57 366h-45l2 10q111 0 169.5 43t75.5 147h9
l-32 -190h70q121 0 175.5 53t72.5 166h9z" />
    <glyph glyph-name=".notdef" horiz-adv-x="175" 
 />
    <glyph glyph-name=".null" horiz-adv-x="0" 
 />
    <glyph glyph-name="nonmarkingreturn" horiz-adv-x="333" 
 />
    <glyph glyph-name="space" unicode=" " horiz-adv-x="230" 
 />
    <glyph glyph-name="space" unicode="&#xa0;" horiz-adv-x="230" 
 />
    <glyph glyph-name="exclam" unicode="!" horiz-adv-x="296" 
d="M274 735q93 -73 93 -152q0 -39 -22.5 -84.5t-51 -82t-57 -87.5t-38.5 -97h-8q7 65 -28.5 166.5t-35.5 143.5q0 54 35.5 99.5t112.5 93.5zM186 185q35 0 57.5 -24t22.5 -59q0 -44 -33.5 -76.5t-76.5 -32.5q-34 0 -56.5 24t-22.5 59q0 44 33 76.5t76 32.5z" />
    <glyph glyph-name="quotedbl" unicode="&#x22;" horiz-adv-x="455" 
d="M191 439h-8q6 66 -7.5 144t-35.5 117q4 27 33.5 51t66.5 24t59 -24t18 -51q-34 -39 -72.5 -117t-53.5 -144zM409 439h-7q5 66 -8.5 144t-35.5 117q4 27 33.5 51t67.5 24q37 0 58.5 -24t17.5 -51q-34 -39 -72.5 -117t-53.5 -144z" />
    <glyph glyph-name="numbersign" unicode="#" horiz-adv-x="589" 
d="M84 325h144l80 190h-145l4 10h145l74 175h10l-74 -175h165l74 175h10l-74 -175h146l-4 -10h-146l-80 -190h146l-5 -10h-145l-74 -175h-9l73 175h-165l-73 -175h-10l73 175h-145zM318 515l-80 -190h165l80 190h-165z" />
    <glyph glyph-name="dollar" unicode="$" horiz-adv-x="616" 
d="M283 -130l19 123q-27 0 -56 3t-65 12.5t-63.5 24.5t-46.5 41.5t-19 61.5q0 60 36 93t83 33q39 0 62 -24.5t18 -71.5q-49 -24 -49 -79q0 -38 29.5 -62t72.5 -24l41 259q-213 64 -213 214q0 100 88 165t195 68l20 123h9l-20 -123q35 0 71 -5.5t73 -18.5t60 -38t23 -60
q0 -50 -32.5 -80t-74.5 -30q-35 0 -56.5 21.5t-17.5 62.5q20 9 32 28.5t12 41.5q0 30 -24 50t-67 20l-37 -234q137 -48 189.5 -91t52.5 -110q0 -81 -48.5 -144t-119.5 -94t-149 -33l-19 -123h-9zM353 257l-40 -256q59 0 105.5 35.5t46.5 98.5q0 81 -112 122zM378 469l36 230
q-47 -1 -87 -38t-40 -89q0 -66 91 -103z" />
    <glyph glyph-name="percent" unicode="%" horiz-adv-x="617" 
d="M293 707q67 0 107 -37.5t40 -99.5q0 -79 -58.5 -138.5t-141.5 -59.5q-68 0 -107.5 38t-39.5 100q0 79 58.5 138t141.5 59zM241 380q27 0 47 27.5t30 68.5t15 76.5t5 61.5q0 85 -46 85q-27 0 -47.5 -26.5t-31 -66t-15.5 -75.5t-5 -63q0 -88 48 -88zM59 0h-9l621 700h9z
M487 328q67 0 107 -37.5t40 -99.5q0 -79 -58.5 -138.5t-141.5 -59.5q-68 0 -107.5 38t-39.5 100q0 79 58.5 138t141.5 59zM435 1q27 0 47 27.5t30 68.5t15 76.5t5 61.5q0 85 -46 85q-27 0 -47.5 -26.5t-31 -66t-15.5 -75.5t-5 -63q0 -88 48 -88z" />
    <glyph glyph-name="ampersand" unicode="&#x26;" horiz-adv-x="854" 
d="M795 111q25 0 41 13l3 -2q-95 -129 -190 -129q-93 0 -183 92q-115 -92 -229 -92q-94 0 -143.5 46.5t-49.5 118.5q0 101 77 166.5t178 80.5q-10 46 -10 93q0 96 69 152.5t166 56.5q60 0 90.5 -20.5t30.5 -53.5q0 -54 -52.5 -99.5t-113.5 -71.5q28 -79 75 -157
q6 96 57.5 170t123.5 74q68 0 106 -40t38 -101q0 -68 -43 -119t-110 -51q-53 0 -85.5 32t-32.5 75q0 30 17 57.5t56 37.5q19 -42 62 -42q30 0 48 19.5t18 48.5t-19 48.5t-58 19.5q-65 0 -112.5 -64t-58.5 -176q114 -183 234 -183zM300 401q-36 -19 -53.5 -59.5t-17.5 -85.5
q0 -64 32 -115t84 -67.5t118 14.5q-58 60 -101.5 144t-61.5 169zM579 634q0 65 -57 65q-37 0 -53.5 -29t-16.5 -67q0 -62 26 -138q44 25 72.5 73t28.5 96z" />
    <glyph glyph-name="quotesingle" unicode="'" horiz-adv-x="235" 
d="M191 439h-8q6 66 -7.5 144t-35.5 117q4 27 33.5 51t66.5 24t59 -24t18 -51q-34 -39 -72.5 -117t-53.5 -144z" />
    <glyph glyph-name="parenleft" unicode="(" horiz-adv-x="353" 
d="M469 797l-1 -7q-33 -2 -60 -15t-45.5 -39.5t-30.5 -49.5t-22 -63.5t-14 -62.5t-10 -63l-47 -295q-20 -130 -13 -184q12 -104 102 -109l-1 -7q-150 8 -192.5 98.5t-14.5 265.5l27 168q13 82 33.5 141.5t56 110.5t94 79t138.5 32z" />
    <glyph glyph-name="parenright" unicode=")" horiz-adv-x="353" 
d="M135 790l1 7q79 -4 128.5 -33t68.5 -77t21.5 -112.5t-11.5 -140.5l-26 -168q-13 -85 -34 -146.5t-58 -111t-94.5 -76t-136.5 -30.5l1 7q28 2 52 13.5t40.5 26.5t31 42t22.5 46t16 54t11 50.5t8 48.5q1 8 2 12l46 295q21 136 13 191q-14 97 -102 102z" />
    <glyph glyph-name="asterisk" unicode="*" horiz-adv-x="565" 
d="M367 515h-8q4 72 -45 163q3 23 28 44.5t57 21.5t50.5 -21.5t15.5 -44.5q-80 -90 -98 -163zM345 505l-4 -8q-68 16 -176 -20q-20 7 -28.5 34t5.5 61q15 31 44 46t50 8q45 -90 109 -121zM344 481l6 -4q-47 -64 -63 -176q-16 -19 -45.5 -23t-54.5 15q-24 20 -24.5 52
t15.5 48q107 30 166 88zM366 476l7 6q38 -55 137 -89q12 -16 1 -48t-40 -51q-33 -20 -60.5 -16t-38.5 23q22 107 -6 175zM381 498l-2 7q71 31 148 121q22 7 45.5 -7.5t29.5 -45.5q5 -33 -12.5 -61t-40.5 -35q-93 38 -168 21z" />
    <glyph glyph-name="plus" unicode="+" horiz-adv-x="524" 
d="M270 80l34 215h-209l2 10h208l35 215h10l-34 -215h208l-2 -10h-208l-34 -215h-10z" />
    <glyph glyph-name="comma" unicode="," horiz-adv-x="272" 
d="M83 -146l-6 5q64 58 55.5 112.5t-79.5 86.5q-7 50 29.5 88.5t79.5 38.5q36 0 60 -26.5t24 -68.5q0 -55 -45.5 -120t-117.5 -116z" />
    <glyph glyph-name="hyphen" unicode="-" horiz-adv-x="364" 
d="M392 330l-2 -10h-315l2 10h315z" />
    <glyph glyph-name="hyphen" unicode="&#xad;" horiz-adv-x="364" 
d="M392 330l-2 -10h-315l2 10h315z" />
    <glyph glyph-name="period" unicode="." horiz-adv-x="264" 
d="M161 185q34 0 56.5 -24t22.5 -59q0 -44 -33.5 -76.5t-75.5 -32.5q-34 0 -56.5 24t-22.5 59q0 44 33 76.5t76 32.5z" />
    <glyph glyph-name="slash" unicode="/" horiz-adv-x="415" 
d="M-4 -91h-10l545 881h10z" />
    <glyph glyph-name="zero" unicode="0" horiz-adv-x="700" 
d="M349 1q54 0 97.5 103t64 227.5t20.5 223.5q0 144 -71 144q-54 0 -97.5 -103.5t-64 -228.5t-20.5 -224q0 -142 71 -142zM461 707q129 0 202 -80t73 -208q0 -104 -45.5 -200.5t-136.5 -161t-206 -64.5q-129 0 -201.5 79.5t-72.5 207.5q0 78 27 153.5t75 136.5t123 99
t162 38z" />
    <glyph glyph-name="one" unicode="1" horiz-adv-x="439" 
d="M425 0h-409l1 7q31 0 52 8t33.5 18t22 36.5t13.5 46.5t11 64l52 331q-60 -63 -117 -95l-2 6q75 42 137 118.5t105 159.5h107l-82 -520q-5 -28 -6.5 -41.5t-4 -34.5t-1.5 -30.5t4 -23.5t9.5 -19.5t16.5 -12.5t24.5 -9t34.5 -2z" />
    <glyph glyph-name="two" unicode="2" horiz-adv-x="605" 
d="M393 707q37 0 70.5 -3.5t70.5 -15t64 -30t44.5 -51t17.5 -74.5q0 -53 -23 -92.5t-55 -61t-82.5 -37.5t-89.5 -21.5t-93 -12.5t-77 -11q-114 -21 -167 -107q25 24 69.5 36.5t83.5 12.5q46 0 142 -30.5t148 -30.5q84 0 106 59l6 -1q-16 -52 -32.5 -88.5t-42 -75.5t-62 -59
t-82.5 -20q-42 0 -163 38t-165 38q-38 0 -54 -17q-4 -21 -4 -52h-7q1 82 26 145.5t64 102t86 69.5t93.5 56.5t85 52.5t62.5 67t24 92q0 19 -3.5 36.5t-12 36t-27 30t-45.5 11.5q-49 0 -80.5 -33t-31.5 -73q0 -32 22.5 -47.5t65.5 -1.5q22 -52 -17 -99.5t-100 -47.5
q-57 0 -93 34t-36 94q0 88 80 135t214 47z" />
    <glyph glyph-name="three" unicode="3" horiz-adv-x="642" 
d="M392 699q-39 0 -69 -26t-30 -60q0 -32 24.5 -42.5t51.5 8.5q10 -24 10 -47q0 -47 -36.5 -74.5t-85.5 -27.5q-50 0 -85.5 30t-35.5 87q0 45 24.5 77.5t67 50t89.5 25t101 7.5q44 0 83 -6.5t78 -22t61.5 -47t22.5 -76.5q0 -42 -22 -74.5t-54 -51t-79.5 -31t-85 -17
t-84.5 -7.5v-2q313 5 313 -156q0 -108 -95 -165.5t-275 -57.5q-98 0 -168 44t-70 121q0 61 40 102.5t111 41.5q54 0 86 -39.5t15 -92.5q-44 4 -71 -23t-27 -69q0 -41 26 -59t62 -18q68 0 106.5 66t38.5 147q0 60 -35.5 107t-96.5 47h-32l1 8h27q78 0 126 61.5t48 150.5
q0 111 -76 111z" />
    <glyph glyph-name="four" unicode="4" horiz-adv-x="629" 
d="M240 210h111l43 265q36 40 81.5 109t69.5 116h84l-78 -490h107l-2 -10h-106l-3 -20q-5 -28 -6.5 -41.5t-4 -34.5t-1.5 -30.5t4 -23.5t9.5 -19.5t16.5 -12.5t24.5 -9t34.5 -2l-1 -7h-410l1 7q31 0 52.5 8t34 18t22 36.5t13.5 46.5t11 64l3 20h-313l1 8q99 26 214.5 116.5
t115.5 156.5q0 29 -14.5 44t-35.5 15q-26 0 -41.5 -16.5t-15.5 -41.5q0 -24 29 -35q-25 -41 -70 -41q-73 0 -97.5 65t13.5 130t116 65q59 0 93.5 -36.5t34.5 -108.5q0 -86 -45 -173.5t-95 -137.5z" />
    <glyph glyph-name="five" unicode="5" horiz-adv-x="638" 
d="M271 -7q-97 0 -165.5 44.5t-68.5 118.5q0 56 39.5 93t104.5 37q49 0 79.5 -32.5t16.5 -78.5q-39 -1 -66.5 -29t-27.5 -67t27.5 -58.5t62.5 -19.5q63 0 109.5 62t46.5 134q0 71 -49.5 107t-124.5 36q-91 0 -165 -47l77 230q34 101 68 140t84 39q36 0 122.5 -23t138.5 -23
q47 0 73.5 10.5t37.5 40.5l6 -1q-16 -50 -31.5 -84t-40 -68t-59 -51t-79.5 -17t-131 27t-129 27q-25 0 -49 -6l-75 -225q172 156 332 156q95 0 158.5 -49t63.5 -134q0 -84 -55 -151t-142.5 -102.5t-188.5 -35.5z" />
    <glyph glyph-name="six" unicode="6" horiz-adv-x="665" 
d="M475 707q98 0 162.5 -39.5t64.5 -113.5q0 -56 -39.5 -93t-104.5 -37q-48 0 -80.5 38t-17.5 84q40 -10 68 13.5t28 63.5q0 39 -27 57.5t-62 18.5q-116 0 -167 -350q81 59 171 65.5t149.5 -38t59.5 -121.5q0 -79 -51 -140.5t-125.5 -91.5t-155.5 -30q-127 0 -200.5 84
t-73.5 215q0 110 51 204.5t144 152.5t206 58zM485 268q0 96 -51.5 114t-135.5 -42q-18 -115 -18 -196q0 -73 17.5 -108t56.5 -35q29 0 49 8.5t40.5 34t31 82t10.5 142.5z" />
    <glyph glyph-name="seven" unicode="7" horiz-adv-x="578" 
d="M293 710q28 0 76 -11.5t91 -25.5t90.5 -25.5t75 -12t44.5 15.5q5 21 7 52h6q-4 -40 -8 -59q-9 -48 -46 -101t-82.5 -98t-89.5 -89.5t-74 -91.5t-30 -88q0 -25 14.5 -38t38.5 -4q-5 -74 -48.5 -108t-99.5 -34q-54 0 -91.5 30t-37.5 81q0 46 25 88t67 75.5t93 65
t105.5 62.5t102 62.5t85.5 70.5t53 81h-1q-24 -56 -73.5 -90t-110.5 -34q-47 0 -142 17t-148 17q-85 0 -105 -59l-7 1q17 53 33 90t42 77.5t62.5 61.5t82.5 21z" />
    <glyph glyph-name="eight" unicode="8" horiz-adv-x="619" 
d="M641 584q0 -39 -41 -76.5t-117 -62.5q77 -38 121 -82.5t44 -117.5q0 -113 -106.5 -182.5t-258.5 -69.5q-47 0 -89 7.5t-79 24t-58.5 46t-21.5 70.5q0 33 16 60t46 47t57 32.5t65 26.5q-99 69 -99 163q0 57 33 104.5t84 75t107 42.5t108 15q73 0 131 -29.5t58 -93.5z
M471 116q0 38 -35.5 67t-108 64.5t-104.5 56.5q-37 -20 -62 -62.5t-25 -85.5q0 -64 39.5 -109.5t119.5 -45.5q70 0 123 33.5t53 81.5zM302 594q0 -15 4.5 -28.5t15.5 -25.5t21 -20.5t30 -19.5t31.5 -17.5t37 -18t36.5 -17.5q87 48 87 124q0 56 -44.5 90.5t-101.5 34.5
q-49 0 -83 -30t-34 -72z" />
    <glyph glyph-name="nine" unicode="9" horiz-adv-x="663" 
d="M302 -7q-93 0 -160.5 36.5t-67.5 113.5q0 59 39.5 96t104.5 37q48 0 80.5 -38t17.5 -84q-39 10 -67.5 -13.5t-28.5 -62.5q0 -41 30 -59t63 -18q68 1 101 80.5t62 269.5q-80 -59 -169.5 -65t-150 41.5t-60.5 132.5q0 62 29 110.5t77 77.5t105.5 44t120.5 15
q127 0 200.5 -84t73.5 -215q0 -111 -48 -205t-140.5 -152t-211.5 -58zM422 699q-132 0 -132 -275q0 -85 54 -102.5t134 38.5q15 96 19 196q6 143 -75 143z" />
    <glyph glyph-name="colon" unicode=":" horiz-adv-x="264" 
d="M161 185q34 0 56.5 -24t22.5 -59q0 -44 -33.5 -76.5t-75.5 -32.5q-34 0 -56.5 24t-22.5 59q0 44 33 76.5t76 32.5zM216 532q34 0 56.5 -24t22.5 -59q0 -44 -33.5 -76.5t-75.5 -32.5q-34 0 -56.5 24t-22.5 59q0 44 33 76.5t76 32.5z" />
    <glyph glyph-name="semicolon" unicode=";" horiz-adv-x="272" 
d="M83 -146l-6 5q64 58 55.5 112.5t-79.5 86.5q-7 50 29.5 88.5t79.5 38.5q36 0 60 -26.5t24 -68.5q0 -55 -45.5 -120t-117.5 -116zM216 532q34 0 56.5 -24t22.5 -59q0 -44 -33.5 -76.5t-75.5 -32.5q-34 0 -56.5 24t-22.5 59q0 44 33 76.5t76 32.5z" />
    <glyph glyph-name="less" unicode="&#x3c;" horiz-adv-x="327" 
d="M96 300l267 253l2 -5l-223 -248l145 -248l-4 -5z" />
    <glyph glyph-name="equal" unicode="=" horiz-adv-x="524" 
d="M112 405h427l-1 -10h-427zM81 205h427l-2 -10h-427z" />
    <glyph glyph-name="greater" unicode="&#x3e;" horiz-adv-x="327" 
d="M139 553l186 -253l-266 -253l-3 5l224 248l-145 248z" />
    <glyph glyph-name="question" unicode="?" horiz-adv-x="572" 
d="M317 185q34 0 56.5 -24t22.5 -59q0 -44 -33.5 -76.5t-76.5 -32.5q-34 0 -56.5 24t-22.5 59q0 44 33.5 76.5t76.5 32.5zM387 707q57 0 111 -13t97.5 -49t43.5 -90q0 -51 -33.5 -91.5t-81.5 -65.5t-96 -46.5t-81.5 -47t-33.5 -53.5q0 -17 8 -32q-3 -5 -7 -5q-2 0 -4.5 4
t-4.5 12t-2 17q0 29 21 62.5t46 63.5t46 85.5t21 122.5q0 56 -19.5 87t-55.5 31q-34 0 -62 -30t-28 -79q0 -40 26 -56q-9 -46 -40 -71t-70 -25q-36 0 -60.5 23t-24.5 66q0 52 29 89.5t75.5 56t91 26.5t88.5 8z" />
    <glyph glyph-name="at" unicode="@" horiz-adv-x="794" 
d="M580 88q105 10 164.5 87.5t59.5 183.5t-66 178t-191 72q-94 0 -182 -39t-151.5 -101.5t-102 -143t-38.5 -161.5q0 -111 70.5 -180.5t187.5 -69.5q99 0 202 50l4 -9q-104 -51 -206 -51q-122 0 -195 72.5t-73 187.5q0 111 65.5 216t178.5 172t240 67q129 0 198 -75t69 -185
q0 -118 -69.5 -200t-191.5 -82q-47 0 -73 23t-17 68q-21 -36 -59 -64t-79 -28q-36 0 -57 24.5t-21 65.5q0 100 82 191t179 91q45 0 82 -17t57 -39l-64 -195q-11 -32 -15 -47t-7 -32t2 -23.5t17 -6.5zM467 191l69 207q12 39 -15 39q-32 0 -70 -53.5t-63.5 -122t-25.5 -113.5
q0 -35 20 -35q17 0 43 23.5t42 54.5z" />
    <glyph glyph-name="A" unicode="A" horiz-adv-x="1119" 
d="M821 734l172 -556q29 -94 58 -132.5t78 -38.5l-1 -7h-415l1 7q116 0 70 162l-21 75h-154q-88 -163 -179 -248.5t-200 -85.5q-99 0 -164.5 52.5t-65.5 147.5q0 84 61.5 137t141.5 53q78 0 139 -43t61 -115q0 -52 -36 -87.5t-94 -35.5q-45 0 -73 31.5t-15 75.5q36 1 61 28
t25 66q0 36 -25.5 54t-57.5 18q-56 0 -101.5 -52t-45.5 -128q0 -86 52.5 -139t140.5 -53q159 0 306 229q84 131 217 438q8 17 22 51zM706 445q-53 -118 -92 -191h146z" />
    <glyph glyph-name="B" unicode="B" horiz-adv-x="860" 
d="M539 733q-16 31 0.5 54.5t45.5 23.5q23 0 39 -13.5t16 -40.5q0 -43 -59 -62q34 6 53 6q92 0 158.5 -35.5t66.5 -101.5q0 -163 -301 -176l-1 -2q34 -1 68.5 -5.5t76.5 -17.5t73.5 -34t53 -57.5t21.5 -84.5q0 -80 -60.5 -143t-173 -88t-271.5 14l1 7q59 -10 103.5 -5
t77.5 27.5t55 50t35 62.5t18.5 65.5t5.5 58.5q0 61 -32.5 103.5t-101.5 42.5l1 8q159 0 159 203q0 43 -20 70.5t-55 27.5q-32 0 -53.5 -32t-33.5 -109l-86 -550h-304l1 7q31 0 52 8t33.5 18t22 36.5t13.5 46.5t11 64l53 340q7 47 34.5 80.5t67 50.5t74 24.5t69.5 9.5v1
q-63 0 -179.5 49t-178.5 49q-48 0 -77 -20t-29 -58q0 -32 19.5 -47.5t46.5 -15.5q45 0 76 40q42 -19 53.5 -53.5t-3 -66.5t-49.5 -56t-77 -24q-58 0 -103 40.5t-45 103.5q0 70 52.5 118t132.5 48q64 0 186.5 -50t180.5 -50q15 0 23.5 7.5t8.5 17.5q0 14 -12 20t-33 -5z" />
    <glyph glyph-name="B" unicode="&#xe000;" horiz-adv-x="860" 
d="M539 733q-16 31 0.5 54.5t45.5 23.5q23 0 39 -13.5t16 -40.5q0 -43 -59 -62q34 6 53 6q92 0 158.5 -35.5t66.5 -101.5q0 -163 -301 -176l-1 -2q34 -1 68.5 -5.5t76.5 -17.5t73.5 -34t53 -57.5t21.5 -84.5q0 -80 -60.5 -143t-173 -88t-271.5 14l1 7q59 -10 103.5 -5
t77.5 27.5t55 50t35 62.5t18.5 65.5t5.5 58.5q0 61 -32.5 103.5t-101.5 42.5l1 8q159 0 159 203q0 43 -20 70.5t-55 27.5q-32 0 -53.5 -32t-33.5 -109l-86 -550h-304l1 7q31 0 52 8t33.5 18t22 36.5t13.5 46.5t11 64l53 340q7 47 34.5 80.5t67 50.5t74 24.5t69.5 9.5v1
q-63 0 -179.5 49t-178.5 49q-48 0 -77 -20t-29 -58q0 -32 19.5 -47.5t46.5 -15.5q45 0 76 40q42 -19 53.5 -53.5t-3 -66.5t-49.5 -56t-77 -24q-58 0 -103 40.5t-45 103.5q0 70 52.5 118t132.5 48q64 0 186.5 -50t180.5 -50q15 0 23.5 7.5t8.5 17.5q0 14 -12 20t-33 -5z" />
    <glyph glyph-name="C" unicode="C" horiz-adv-x="715" 
d="M536 751q-76 0 -143.5 -100t-104.5 -238.5t-37 -264.5q0 -42 7.5 -78t25 -71.5t53 -56t85.5 -20.5q97 0 172 69t75 182q0 70 -35.5 101.5t-84.5 31.5q-38 0 -63 -24.5t-25 -65.5q0 -33 20 -54t52 -22q5 -44 -28.5 -75.5t-78.5 -31.5q-52 0 -81.5 29t-29.5 73
q0 77 74.5 128t159.5 51q72 0 115.5 -35t43.5 -106q0 -112 -81.5 -187.5t-228.5 -75.5q-112 0 -193 47.5t-118 119t-37 155.5q0 99 34 193t95 169t155 120.5t205 45.5q95 0 160.5 -40t65.5 -112q0 -56 -38 -92t-85 -36q-41 0 -71 29.5t-19 71.5q69 16 69 83q0 40 -24 63.5
t-61 23.5z" />
    <glyph glyph-name="D" unicode="D" horiz-adv-x="912" 
d="M345 -30l1 7q90 -16 160 15t110 87.5t66 134t35 144.5t9 129q0 101 -29 152t-94 51q-43 0 -64.5 -29t-33.5 -111l-86 -550h-304l1 7q26 0 45 4t32.5 15.5t21.5 22.5t15 35t10 42l9 54l52 340q7 47 34.5 80.5t67 50.5t74 24.5t69.5 9.5v1q-63 0 -179.5 49t-178.5 49
q-48 0 -77 -20t-29 -58q0 -32 19.5 -47.5t46.5 -15.5q45 0 76 40q42 -19 53.5 -53.5t-3 -66.5t-49.5 -56t-77 -24q-58 0 -103 40.5t-45 103.5q0 70 52.5 118t132.5 48q64 0 186.5 -50t180.5 -50q15 0 23.5 7.5t8.5 17.5q0 14 -12 20t-33 -5q-16 31 0.5 54.5t45.5 23.5
q23 0 39 -13.5t16 -40.5q0 -43 -59 -62q24 3 47 3q57 0 108.5 -17.5t95 -52.5t69 -96.5t25.5 -141.5q0 -46 -8 -94t-28 -99t-50 -95.5t-76.5 -80.5t-105 -56t-139 -20t-174.5 25z" />
    <glyph glyph-name="E" unicode="E" horiz-adv-x="707" 
d="M477 710q-60 0 -98 -59.5t-38 -123.5q0 -56 32 -98t81 -42h27l-2 -8h-16q-67 0 -122.5 -46.5t-84.5 -114.5t-29 -139q0 -198 163 -198q121 0 199.5 83t78.5 177q0 53 -33 88.5t-96 35.5q-38 0 -63 -24.5t-25 -65.5q0 -33 20 -54t52 -22q5 -44 -28.5 -75.5t-78.5 -31.5
q-52 0 -81.5 29t-29.5 73q0 77 74.5 128t159.5 51q82 0 125 -41t43 -104q0 -45 -22.5 -89.5t-64.5 -83t-110.5 -62.5t-152.5 -24q-154 0 -235.5 74.5t-81.5 178.5q0 107 94.5 181.5t272.5 75.5l1 2q-113 2 -177.5 47t-64.5 115q0 50 33 86.5t84 55t99.5 26.5t92.5 8
q98 0 163.5 -39.5t65.5 -111.5q0 -56 -38 -92.5t-85 -36.5q-41 0 -71 29.5t-19 71.5q69 15 69 83q0 39 -23 63t-60 24z" />
    <glyph glyph-name="E" unicode="&#xe001;" horiz-adv-x="707" 
d="M477 710q-60 0 -98 -59.5t-38 -123.5q0 -56 32 -98t81 -42h27l-2 -8h-16q-67 0 -122.5 -46.5t-84.5 -114.5t-29 -139q0 -198 163 -198q121 0 199.5 83t78.5 177q0 53 -33 88.5t-96 35.5q-38 0 -63 -24.5t-25 -65.5q0 -33 20 -54t52 -22q5 -44 -28.5 -75.5t-78.5 -31.5
q-52 0 -81.5 29t-29.5 73q0 77 74.5 128t159.5 51q82 0 125 -41t43 -104q0 -45 -22.5 -89.5t-64.5 -83t-110.5 -62.5t-152.5 -24q-154 0 -235.5 74.5t-81.5 178.5q0 107 94.5 181.5t272.5 75.5l1 2q-113 2 -177.5 47t-64.5 115q0 50 33 86.5t84 55t99.5 26.5t92.5 8
q98 0 163.5 -39.5t65.5 -111.5q0 -56 -38 -92.5t-85 -36.5q-41 0 -71 29.5t-19 71.5q69 15 69 83q0 39 -23 63t-60 24z" />
    <glyph glyph-name="F" unicode="F" horiz-adv-x="986" 
d="M464 180l52 340q7 47 34.5 80.5t67 50.5t74 24.5t69.5 9.5v1q-63 0 -179.5 49t-178.5 49q-48 0 -77 -20t-29 -58q0 -32 19.5 -47.5t46.5 -15.5q45 0 76 40q42 -19 53.5 -53.5t-3 -66.5t-49.5 -56t-77 -24q-58 0 -103 40.5t-45 103.5q0 70 52.5 118t132.5 48q64 0 186 -50
t181 -50q15 0 23.5 7.5t8.5 17.5q0 14 -12 20t-33 -5q-16 31 0.5 54.5t45.5 23.5q23 0 39 -13.5t16 -40.5q0 -43 -59 -62v-1q14 2 28 3t26.5 2t36.5 1h40.5h57.5h71l-38 -241h-9q18 119 -13.5 175.5t-142.5 56.5q-71 0 -96 -30.5t-37 -110.5l-29 -189q84 0 143.5 40
t76.5 117h7l-67 -323h-7q14 72 -29 115.5t-124 43.5l-24 -148q-11 -73 -49 -128.5t-85.5 -86.5t-107.5 -50t-107.5 -25t-94.5 -6q-85 0 -154 53.5t-69 145.5q0 84 61.5 137t141.5 53q78 0 139 -43t61 -115q0 -52 -36 -87.5t-94 -35.5q-45 0 -73 31.5t-15 75.5q36 1 61 28
t25 66q0 36 -25.5 54t-57.5 18q-56 0 -101.5 -52t-45.5 -128q0 -83 54.5 -137t132.5 -54q95 0 156 66t80 194z" />
    <glyph glyph-name="G" unicode="G" horiz-adv-x="768" 
d="M576 -182q0 27 -13.5 51t-30 40t-30 39.5t-12.5 48.5q-46 -63 -161 -63q-133 0 -206 91.5t-73 227.5q0 128 63 244t179 189.5t255 73.5q98 0 163.5 -40t65.5 -112q0 -56 -38 -92t-85 -36q-41 0 -71 29.5t-19 71.5q69 16 69 83q0 40 -23.5 63.5t-61.5 23.5
q-78 0 -147 -95.5t-105.5 -224t-36.5 -242.5q0 -22 1.5 -45.5t8 -60.5t17 -64.5t32 -48t50.5 -20.5q31 0 70.5 19t54.5 48l19 125q15 102 9 128q-9 39 -66 42h-11l1 7h359v-7q-47 0 -66 -28t-30 -101l-33 -221q-7 -48 -23 -91.5t-41 -81.5t-63 -61t-83 -23q-63 0 -99 30
t-36 78q0 52 33.5 78.5t79.5 26.5q42 0 71 -27t24 -75q-27 1 -42.5 -11t-15.5 -35q0 -17 9.5 -27.5t27.5 -10.5q60 0 60 86z" />
    <glyph glyph-name="H" unicode="H" horiz-adv-x="1190" 
d="M880 150l30 200h-221l-22 -144q-11 -73 -49 -128.5t-85.5 -86.5t-107.5 -50t-107.5 -25t-94.5 -6q-85 0 -154 53.5t-69 145.5q0 84 61.5 137t141.5 53q78 0 139 -43t61 -115q0 -52 -36 -87.5t-94 -35.5q-45 0 -73 31.5t-15 75.5q36 1 61 28t25 66q0 36 -25.5 54t-57.5 18
q-56 0 -101.5 -52t-45.5 -128q0 -83 54.5 -137t132.5 -54q95 0 156 66t80 194l52 341q7 47 34.5 80.5t67 50t73.5 24t70 9.5v1q-63 0 -179.5 49t-178.5 49q-48 0 -77 -20t-29 -58q0 -32 19.5 -47.5t46.5 -15.5q45 0 76 40q42 -19 53.5 -53.5t-3 -66.5t-49.5 -56t-77 -24
q-58 0 -103 40.5t-45 103.5q0 70 52.5 118t132.5 48q64 0 186 -50t181 -50q15 0 23.5 7.5t8.5 17.5q0 14 -12 20t-33 -5q-16 31 0.5 54.5t45.5 23.5q21 0 37.5 -13.5t16.5 -35.5q0 -20 -11 -32.5t-28 -23t-35 -25.5t-34.5 -48.5t-24.5 -82.5l-30 -190h221l8 52
q13 87 64.5 169.5t117 138.5t134.5 90t121 34q43 0 65.5 -21t22.5 -54q0 -46 -32.5 -73.5t-71.5 -27.5q-38 0 -52 38q31 13 31 52q0 22 -13.5 37.5t-36.5 15.5q-26 0 -47.5 -21.5t-35.5 -56.5t-22 -65.5t-13 -61.5l-68 -426q-5 -28 -6.5 -41.5t-4 -34.5t-1.5 -30.5t4 -23.5
t9.5 -19.5t16.5 -12.5t24.5 -9t34.5 -2l-1 -7h-379l1 7q48 0 66.5 29.5t31.5 113.5z" />
    <glyph glyph-name="I" unicode="I" horiz-adv-x="554" 
d="M506 550l-63 -400q-13 -82 4 -112.5t78 -30.5l-1 -7h-409l1 7q26 0 45 4t32.5 15.5t21.5 22.5t15 35t10 42l9 54l52 341q7 47 34.5 80.5t67 50t73.5 24t70 9.5v1q-63 0 -179.5 49t-178.5 49q-48 0 -77 -20t-29 -58q0 -32 19.5 -47.5t46.5 -15.5q45 0 76 40
q42 -19 53.5 -53.5t-3 -66.5t-49.5 -56t-77 -24q-58 0 -103 40.5t-45 103.5q0 70 52.5 118t132.5 48q64 0 186.5 -50t180.5 -50q15 0 23.5 7.5t8.5 17.5q0 14 -12 20t-33 -5q-16 31 0.5 54.5t45.5 23.5q21 0 37.5 -13.5t16.5 -35.5q0 -20 -11 -32.5t-28 -23t-35 -25.5
t-34.5 -48.5t-24.5 -82.5z" />
    <glyph glyph-name="J" unicode="J" horiz-adv-x="769" 
d="M721 550l-54 -344q-11 -73 -49 -128.5t-85.5 -86.5t-107.5 -50t-107.5 -25t-94.5 -6q-85 0 -154 53.5t-69 145.5q0 84 61.5 137t141.5 53q78 0 139 -43t61 -115q0 -52 -36 -87.5t-94 -35.5q-45 0 -73 31.5t-15 75.5q36 1 61 28t25 66q0 36 -25.5 54t-57.5 18
q-56 0 -101.5 -52t-45.5 -128q0 -83 54.5 -137t132.5 -54q95 0 156 66t80 194l52 341q7 47 34.5 80.5t67 50t73.5 24t70 9.5v1q-63 0 -179.5 49t-178.5 49q-48 0 -77 -20t-29 -58q0 -32 19.5 -47.5t46.5 -15.5q45 0 76 40q42 -19 53.5 -53.5t-3 -66.5t-49.5 -56t-77 -24
q-58 0 -103 40.5t-45 103.5q0 70 52.5 118t132.5 48q64 0 186 -50t181 -50q15 0 23.5 7.5t8.5 17.5q0 14 -12 20t-33 -5q-16 31 0.5 54.5t45.5 23.5q21 0 37.5 -13.5t16.5 -35.5q0 -20 -11 -32.5t-28 -23t-35 -25.5t-34.5 -48.5t-24.5 -82.5z" />
    <glyph glyph-name="K" unicode="K" horiz-adv-x="1098" 
d="M721 550l-30 -187l102 98q130 128 153 178q26 54 -38 54l1 7h284l-1 -7q-148 0 -394 -239l-79 -75q86 22 142.5 13t92.5 -55t73 -154q19 -56 32 -89.5t30.5 -71t35.5 -57t39 -24.5l-3 -3q-133 -27 -225 29t-118 188q-19 97 -42 154.5t-60 66.5l-27 -26l-22 -144
q-11 -73 -49 -128.5t-85.5 -86.5t-107.5 -50t-107.5 -25t-94.5 -6q-85 0 -154 53.5t-69 145.5q0 84 61.5 137t141.5 53q78 0 139 -43t61 -115q0 -52 -36 -87.5t-94 -35.5q-45 0 -73 31.5t-15 75.5q36 1 61 28t25 66q0 36 -25.5 54t-57.5 18q-56 0 -101.5 -52t-45.5 -128
q0 -83 54.5 -137t132.5 -54q95 0 156 66t80 194l52 341q7 47 34.5 80.5t67 50t73.5 24t70 9.5v1q-63 0 -179.5 49t-178.5 49q-48 0 -77 -20t-29 -58q0 -32 19.5 -47.5t46.5 -15.5q45 0 76 40q42 -19 53.5 -53.5t-3 -66.5t-49.5 -56t-77 -24q-58 0 -103 40.5t-45 103.5
q0 70 52.5 118t132.5 48q64 0 186 -50t181 -50q15 0 23.5 7.5t8.5 17.5q0 14 -12 20t-33 -5q-16 31 0.5 54.5t45.5 23.5q21 0 37.5 -13.5t16.5 -35.5q0 -20 -11 -32.5t-28 -23t-35 -25.5t-34.5 -48.5t-24.5 -82.5z" />
    <glyph glyph-name="L" unicode="L" horiz-adv-x="670" 
d="M210 370q12 73 50 147t93.5 134.5t130.5 98.5t154 38q58 0 90 -30.5t32 -74.5q0 -53 -42.5 -92.5t-97.5 -39.5q-37 0 -60 23.5t-14 60.5q28 -1 45 20.5t17 48.5q0 22 -18 39t-48 17q-91 0 -123 -196l-53 -336q-10 -61 -39 -108t-68.5 -79t-80.5 -60t-84.5 -66t-70.5 -81
l1 -1q122 148 262 148q69 0 162.5 -28.5t170.5 -62t163.5 -62t143.5 -28.5q67 0 110 40l4 -2q-99 -195 -260 -195q-67 0 -158.5 33.5t-169 73.5t-176.5 73.5t-179 33.5q-30 0 -49 -9.5t-41 -42.5l-7 4q22 38 53 78.5t51 66t39.5 71.5t28.5 105z" />
    <glyph glyph-name="M" unicode="M" horiz-adv-x="1362" 
d="M603 655l-68 -428q-12 -75 -36 -133t-53 -92t-65.5 -55.5t-69 -29t-66.5 -7.5q-112 0 -178.5 56t-66.5 143q0 84 61.5 137t141.5 53q78 0 139 -43t61 -115q0 -52 -36 -87.5t-94 -35.5q-45 0 -73 31.5t-15 75.5q36 1 61 28t25 66q0 36 -25.5 54t-57.5 18q-56 0 -101.5 -52
t-45.5 -128q0 -77 50 -134t154 -57q112 0 183.5 79t94.5 226l78 488q72 -28 144 -25q-45 7 -136.5 51.5t-151.5 44.5q-48 0 -77 -20t-29 -58q0 -32 19.5 -47.5t46.5 -15.5q45 0 76 40q42 -19 53.5 -53.5t-3 -66.5t-49.5 -56t-77 -24q-58 0 -103 40.5t-45 103.5
q0 70 52.5 118t132.5 48q53 0 111.5 -25t116 -50t106.5 -25q15 0 23.5 7.5t8.5 17.5q0 14 -12 20t-33 -5q-16 31 0.5 54.5t45.5 23.5q21 0 37.5 -13.5t16.5 -35.5q0 -63 -65 -74l96 -426q184 314 335 431q70 70 152 110.5t136 40.5q43 0 65.5 -21t22.5 -54
q0 -46 -32.5 -73.5t-71.5 -27.5q-38 0 -52 38q31 13 31 52q0 22 -13.5 37.5t-36.5 15.5q-26 0 -47.5 -21.5t-35.5 -56.5t-22 -65.5t-13 -61.5l-68 -426q-5 -28 -6.5 -41.5t-4 -34.5t-1.5 -30.5t4 -23.5t9.5 -19.5t16.5 -12.5t24.5 -9t34.5 -2l-1 -7h-379l1 7q48 0 66.5 29.5
t31.5 113.5l40 262q17 114 90 214q-120 -122 -242.5 -327.5t-174.5 -332.5z" />
    <glyph glyph-name="N" unicode="N" horiz-adv-x="1227" 
d="M523 225l46 281q10 49 5.5 112.5t-27.5 85.5q65 -20 170 -15q-45 7 -135.5 51t-151.5 44q-48 0 -77 -20t-29 -58q0 -32 19.5 -47.5t46.5 -15.5q45 0 76 40q55 -25 58.5 -74t-37 -87.5t-98.5 -38.5t-102.5 40.5t-44.5 104.5q0 69 52.5 117t131.5 48q52 0 112.5 -25
t116 -50t96.5 -25q42 0 42 24q0 15 -12 21t-33 -5q-16 31 0.5 54.5t46.5 23.5q20 0 36.5 -13t16.5 -41q0 -56 -67 -69l290 -415l50 315q44 278 208 278q53 0 76 -29t23 -66q0 -47 -32 -75t-70 -28q-40 0 -54 38q31 13 31 52q0 22 -13 37.5t-36 15.5q-26 0 -47.5 -21
t-35.5 -55t-22.5 -65.5t-13.5 -63.5l-100 -640l-441 625l-59 -364q-15 -93 -47.5 -159t-75 -98.5t-83 -46t-84.5 -13.5q-112 0 -178.5 56t-66.5 143q0 84 61.5 137t141.5 53q78 0 139 -43t61 -115q0 -52 -36 -87.5t-94 -35.5q-45 0 -73 31.5t-15 75.5q36 1 61 28t25 66
q0 36 -25.5 54t-57.5 18q-56 0 -101.5 -52t-45.5 -128q0 -77 50 -134t154 -57q112 0 183 79t95 226z" />
    <glyph glyph-name="O" unicode="O" horiz-adv-x="868" 
d="M50 239q0 244 188 377q29 70 104.5 114t190.5 44q87 0 156 -26.5t111.5 -72t65 -102t22.5 -120.5q0 -109 -43 -208t-113 -169t-163 -111t-190 -41q-145 0 -237 89.5t-92 225.5zM493 726l4 -4q-71 -25 -124.5 -107.5t-85.5 -198.5q41 -37 97 -37q43 0 68 24.5t25 65.5
q0 33 -20 54t-52 22q-5 44 28.5 75.5t78.5 31.5q52 0 81.5 -29t29.5 -73q0 -77 -74.5 -128t-156.5 -51q-64 0 -108 33q-37 -136 -37 -272q0 -197 109 -197q78 0 157 101.5t126.5 242t47.5 258.5q0 42 -7 78t-24.5 72t-54 57t-89.5 21q-71 0 -143.5 -35t-106.5 -98
q92 58 231 94z" />
    <glyph glyph-name="P" unicode="P" horiz-adv-x="1061" 
d="M464 180l52 340q7 47 34.5 80.5t67 50.5t74.5 24.5t70 9.5v1q-63 0 -179.5 49t-178.5 49q-48 0 -77 -20t-29 -58q0 -32 19.5 -47.5t46.5 -15.5q45 0 76 40q42 -19 53.5 -53.5t-3 -66.5t-49.5 -56t-77 -24q-58 0 -103 40.5t-45 103.5q0 70 52.5 118t132.5 48q65 0 187 -50
t180 -50q15 0 23.5 7.5t8.5 17.5q0 14 -12 20t-33 -5q-16 31 0.5 54.5t45.5 23.5q23 0 39 -13.5t16 -40.5q0 -43 -59 -62q34 6 53 6q113 0 177 -44t64 -133q0 -72 -38.5 -127.5t-98 -84.5t-126.5 -40.5t-127 -1.5l1 8q41 -3 73.5 14.5t52 47.5t32.5 70.5t18 80t5 79.5
q0 54 -19.5 87t-55.5 33q-32 0 -53.5 -31.5t-33.5 -108.5l-54 -344q-11 -73 -49 -128.5t-85.5 -86.5t-107.5 -50t-107.5 -25t-94.5 -6q-85 0 -154 53.5t-69 145.5q0 84 61.5 137t141.5 53q78 0 139 -43t61 -115q0 -52 -36 -87.5t-94 -35.5q-45 0 -73 31.5t-15 75.5
q36 1 61 28t25 66q0 36 -25.5 54t-57.5 18q-56 0 -101.5 -52t-45.5 -128q0 -83 54.5 -137t132.5 -54q95 0 156 66t80 194z" />
    <glyph glyph-name="Q" unicode="Q" horiz-adv-x="850" 
d="M247 -58q-66 0 -113.5 13t-67 29.5t-19.5 33.5q0 20 26 31.5t58 11.5q27 0 75 -11.5t85 -23.5t116 -38q128 61 195 204t67 302q0 46 -7 87.5t-24 86t-53.5 71.5t-88.5 27q-65 0 -117.5 -40t-83.5 -103.5t-47 -135t-16 -142.5q0 -165 96 -165q44 0 66 28t22 76
q0 38 -23 62t-60 25q-6 53 30 92t93 39q59 0 93.5 -36.5t34.5 -88.5q0 -60 -40 -108.5t-96 -73t-112 -24.5q-27 0 -58 8t-66.5 28t-64 49t-47.5 77t-19 106q0 151 115.5 243.5t286.5 92.5q72 0 139 -18t123.5 -53t90.5 -94.5t34 -135.5q0 -149 -118.5 -294.5t-302.5 -205.5
q138 -46 235.5 -75t251 -56.5t287.5 -27.5q64 0 103 8t67 31l4 -2q-63 -115 -142.5 -175t-192.5 -60q-68 0 -140.5 20.5t-152 63.5t-133.5 77t-142 94.5t-121 82.5q-67 -13 -126 -13zM243 -48q54 0 109 15q-134 85 -206 85q-29 0 -43.5 -10.5t-14.5 -24.5q0 -24 41.5 -44.5
t113.5 -20.5z" />
    <glyph glyph-name="R" unicode="R" horiz-adv-x="1102" 
d="M464 180l52 340q7 47 34.5 80.5t67 50.5t74.5 24.5t70 9.5v1q-63 0 -179.5 49t-178.5 49q-48 0 -77 -20t-29 -58q0 -32 19.5 -47.5t46.5 -15.5q45 0 76 40q42 -19 53.5 -53.5t-3 -66.5t-49.5 -56t-77 -24q-58 0 -103 40.5t-45 103.5q0 70 52.5 118t132.5 48q65 0 187 -50
t180 -50q15 0 23.5 7.5t8.5 17.5q0 14 -12 20t-33 -5q-16 31 0.5 54.5t45.5 23.5q23 0 39 -13.5t16 -40.5q0 -43 -59 -62q34 6 53 6q246 0 246 -154q0 -32 -14 -60t-32.5 -48t-54.5 -39t-62 -30t-74 -24t-71.5 -18.5t-72.5 -15.5q-9 -2 -14 -3q59 10 95 13.5t80 -1
t72.5 -22.5t55 -55t44.5 -95q32 -104 58 -151t66 -57l-3 -3q-44 -9 -82 -9q-107 0 -169.5 42.5t-83.5 149.5q-16 82 -51 132t-81 53l-1 3l-1 2q109 42 146 105t37 166q0 108 -75 108q-32 0 -53.5 -31.5t-33.5 -108.5l-54 -344q-11 -73 -49 -128.5t-85.5 -86.5t-107.5 -50
t-107.5 -25t-94.5 -6q-85 0 -154 53.5t-69 145.5q0 84 61.5 137t141.5 53q78 0 139 -43t61 -115q0 -52 -36 -87.5t-94 -35.5q-45 0 -73 31.5t-15 75.5q36 1 61 28t25 66q0 36 -25.5 54t-57.5 18q-56 0 -101.5 -52t-45.5 -128q0 -83 54.5 -137t132.5 -54q95 0 156 66t80 194z
" />
    <glyph glyph-name="S" unicode="S" horiz-adv-x="715" 
d="M168 490q0 71 49.5 124.5t121.5 79t150 25.5q95 0 160.5 -40t65.5 -113q0 -54 -38.5 -90.5t-84.5 -36.5q-41 0 -68 27t-16 69q29 6 45 27.5t16 50.5q0 48 -28.5 72.5t-70.5 24.5q-51 0 -92 -31.5t-41 -80.5q0 -42 38.5 -74.5t93.5 -58.5t109.5 -56.5t93 -83t38.5 -122.5
q0 -136 -124 -235t-294 -99q-139 0 -215.5 68t-76.5 163q0 84 58 141.5t145 57.5q78 0 139 -43t61 -115q0 -52 -36 -87.5t-94 -35.5q-45 0 -73 31.5t-15 75.5q36 1 61 28t25 66q0 36 -25.5 54t-57.5 18q-61 0 -104 -56.5t-43 -131.5q0 -93 68 -158.5t193 -65.5
q119 0 191.5 59t72.5 137q0 43 -29.5 80t-73.5 62t-96 54.5t-96 57t-73.5 69.5t-29.5 92z" />
    <glyph glyph-name="S" unicode="&#xe002;" horiz-adv-x="715" 
d="M168 490q0 71 49.5 124.5t121.5 79t150 25.5q95 0 160.5 -40t65.5 -113q0 -54 -38.5 -90.5t-84.5 -36.5q-41 0 -68 27t-16 69q29 6 45 27.5t16 50.5q0 48 -28.5 72.5t-70.5 24.5q-51 0 -92 -31.5t-41 -80.5q0 -42 38.5 -74.5t93.5 -58.5t109.5 -56.5t93 -83t38.5 -122.5
q0 -136 -124 -235t-294 -99q-139 0 -215.5 68t-76.5 163q0 84 58 141.5t145 57.5q78 0 139 -43t61 -115q0 -52 -36 -87.5t-94 -35.5q-45 0 -73 31.5t-15 75.5q36 1 61 28t25 66q0 36 -25.5 54t-57.5 18q-61 0 -104 -56.5t-43 -131.5q0 -93 68 -158.5t193 -65.5
q119 0 191.5 59t72.5 137q0 43 -29.5 80t-73.5 62t-96 54.5t-96 57t-73.5 69.5t-29.5 92z" />
    <glyph glyph-name="T" unicode="T" horiz-adv-x="637" 
d="M0 625q2 65 33.5 112.5t84 72t110.5 35.5t124 11q88 0 293.5 -34t269.5 -34q74 0 118 40l4 -2q-55 -108 -120 -151.5t-144 -43.5q-51 0 -122 17q-47 -17 -66 -140l-57 -358q-13 -82 4 -112.5t78 -30.5l-1 -7h-409l1 7q26 0 45 4t32.5 15.5t21.5 22.5t15 35t10 42l9 54
l46 299q7 44 36 78.5t70.5 53t79.5 28t75 12.5q-60 16 -159.5 55t-180.5 64.5t-140 25.5q-109 0 -109 -78q0 -38 24.5 -58.5t59.5 -20.5q55 0 88 42q58 -27 58 -80q0 -54 -39.5 -85.5t-93.5 -31.5q-58 0 -101.5 36.5t-47.5 104.5z" />
    <glyph glyph-name="U" unicode="U" horiz-adv-x="968" 
d="M258 249l43 272q7 47 35 80.5t67 50t73 24t70 9.5v1q-63 0 -179.5 49t-178.5 49q-48 0 -77 -20t-29 -58q0 -32 19.5 -47.5t46.5 -15.5q45 0 76 40q42 -19 53.5 -53.5t-3 -66.5t-49.5 -56t-77 -24q-58 0 -103 40.5t-45 103.5q0 70 52.5 118t132.5 48q64 0 186.5 -50
t180.5 -50q15 0 23.5 7.5t8.5 17.5q0 14 -12 20t-33 -5q-16 31 0.5 54.5t45.5 23.5q21 0 37.5 -13.5t16.5 -35.5q0 -20 -11 -32.5t-28 -23t-35 -25.5t-34.5 -48.5t-24.5 -82.5l-42 -268q-8 -47 -11.5 -81.5t-2.5 -81.5t10.5 -76.5t34.5 -51t65 -21.5q93 0 160 73.5t87 194.5
l27 165q7 42 10 69.5t5 65.5t-4.5 62t-19 47.5t-37 34.5t-60.5 11l1 7h319l-1 -7q-36 0 -65 -11t-49.5 -35t-35 -49t-25.5 -65.5t-17 -71t-14 -77.5l-23 -146q-21 -133 -96 -207.5t-202 -74.5q-150 0 -218 70t-44 223z" />
    <glyph glyph-name="V" unicode="V" horiz-adv-x="896" 
d="M488 -31l1 -1q173 117 285.5 265t112.5 259q0 37 -19 59.5t-52 22.5q-26 0 -48 -13.5t-32 -37.5q-87 6 -87 90q0 55 36.5 89.5t87.5 34.5q58 0 100.5 -46t42.5 -131q0 -87 -40.5 -180t-106 -172.5t-142 -145.5t-155.5 -112l-3 6q12 18 12 42q0 35 -31.5 90t-69.5 107
t-69.5 124.5t-31.5 137.5q0 106 75.5 163t191.5 65v1q-63 0 -179.5 49t-178.5 49q-48 0 -77 -20t-29 -58q0 -32 19.5 -47.5t46.5 -15.5q45 0 76 40q55 -25 58.5 -74t-37 -87.5t-98.5 -38.5t-102.5 40.5t-44.5 104.5q0 69 52.5 117t131.5 48q52 0 121 -25t132.5 -50
t104.5 -25q42 0 42 24q0 15 -12 21t-33 -5q-16 31 0.5 54.5t45.5 23.5q21 0 37.5 -13.5t16.5 -37.5q0 -12 -6 -22t-12 -15.5t-20.5 -15t-21.5 -14.5q-89 -70 -89 -205q0 -66 21 -149.5t42 -151.5t21 -95q0 -34 -18.5 -58t-67.5 -65z" />
    <glyph glyph-name="W" unicode="W" horiz-adv-x="1172" 
d="M861 493q0 -79 -44 -172q8 -25 26 -75.5t26.5 -82t8.5 -56.5q0 -34 -24.5 -65t-73.5 -73l1 -1q171 115 279 263.5t108 260.5q0 37 -19 59.5t-52 22.5q-26 0 -48 -13.5t-32 -37.5q-87 6 -87 90q0 55 36.5 89.5t87.5 34.5q58 0 100.5 -46t42.5 -131q0 -115 -67.5 -238
t-163 -216t-202.5 -156l-3 6q12 18 12 42q0 45 -56 164q-108 -134 -245 -212l-3 6q12 18 12 42q0 35 -31.5 90t-69.5 107t-69.5 124.5t-31.5 137.5q0 106 75.5 163t191.5 65v1q-63 0 -179.5 49t-178.5 49q-48 0 -77 -20t-29 -58q0 -32 19.5 -47.5t46.5 -15.5q45 0 76 40
q55 -25 58.5 -74t-37 -87.5t-98.5 -38.5t-102.5 40.5t-44.5 104.5q0 69 52.5 117t131.5 48q52 0 121 -25t132.5 -50t104.5 -25q42 0 42 24q0 15 -12 21t-33 -5q-16 31 0.5 54.5t45.5 23.5q21 0 37.5 -13.5t16.5 -37.5q0 -12 -6 -22t-12 -15.5t-20.5 -15t-21.5 -14.5
q-90 -71 -90 -203q0 -65 21.5 -147.5t42.5 -151.5t21 -99q0 -34 -18.5 -58t-67.5 -65l1 -1q133 90 223 204q-26 55 -41 91t-29 90t-14 100q0 85 39.5 132.5t90.5 47.5q43 0 73 -36.5t30 -103.5zM792 471q0 -65 21 -134q37 85 37 153q0 70 -28 70q-30 0 -30 -89z" />
    <glyph glyph-name="X" unicode="X" horiz-adv-x="962" 
d="M880 727q-85 0 -145 -82.5t-83 -200.5q95 -230 141 -314q91 -167 175 -189l-3 -3q-66 -12 -142 -12q-86 0 -139 42t-97 126q-20 39 -52 111q-38 -147 -119.5 -221t-185.5 -74q-93 0 -161.5 55t-68.5 144q0 84 61.5 137t141.5 53q78 0 139 -43t61 -115q0 -52 -36 -87.5
t-94 -35.5q-45 0 -73 31.5t-15 75.5q36 1 61 28t25 66q0 36 -25.5 54t-57.5 18q-56 0 -101.5 -52t-45.5 -128q0 -78 50.5 -134.5t140.5 -56.5q110 0 186.5 82.5t108.5 220.5q-13 31 -37.5 93t-39 96.5t-38 85.5t-42 78.5t-42 55t-48.5 36.5t-51 3l-3 3q72 45 167 45
q69 0 115.5 -33t80.5 -99q17 -34 55 -124q28 119 89 197t156 78q68 0 105.5 -40t37.5 -99q0 -70 -43 -121t-112 -51q-57 0 -91 39t-23 88.5t71 74.5q19 -42 60 -42q32 0 50 19.5t18 46.5q0 31 -19.5 52.5t-62.5 21.5z" />
    <glyph glyph-name="Y" unicode="Y" horiz-adv-x="544" 
d="M849 827q-122 0 -234 -201l-174 -313l-21 -133q-5 -28 -6.5 -41.5t-4 -34.5t-1.5 -30.5t4 -23.5t9.5 -19.5t16.5 -12.5t24.5 -9t34.5 -2l-1 -7h-410l1 7q31 0 52.5 8t34 18t22 36.5t13.5 46.5t11 64l15 101q-12 96 -38.5 182.5t-66 146t-80.5 59.5q-19 0 -47 -23l-3 5
q37 32 86.5 54t97.5 22q68 0 118.5 -41.5t74.5 -107t32.5 -146.5t-7.5 -161l202 360q121 213 246 213q69 0 106.5 -38t37.5 -98q0 -67 -43 -116.5t-110 -49.5q-53 0 -85.5 30t-32.5 73q0 30 17 57.5t56 37.5q19 -42 62 -42q30 0 48 19.5t18 48.5q0 61 -75 61z" />
    <glyph glyph-name="Z" unicode="Z" horiz-adv-x="675" 
d="M550 284l2 3q53 -25 88.5 -81.5t35.5 -111.5q0 -65 -46 -120.5t-121 -55.5q-45 0 -102 28.5t-102 62t-98.5 62t-93.5 28.5q-21 0 -37 -9.5t-16 -30.5q0 -20 21.5 -27t44.5 11q23 -47 2 -78t-62 -31q-27 0 -46.5 17.5t-19.5 55.5q0 59 60 88q20 55 67 102t103.5 77.5
t122.5 63t123.5 59.5t106 66.5t69.5 84.5q-40 -17 -107.5 -27t-129 -14.5t-119 -13t-92.5 -31t-35 -61.5q0 -35 39 -59l-2 -3q-53 25 -88.5 81.5t-35.5 111.5q0 65 46 120.5t121 55.5q45 0 97 -25t91.5 -54.5t88 -54.5t88.5 -25q20 0 36 10.5t16 31.5q0 20 -21.5 28.5
t-44.5 -9.5q-23 46 -2 77.5t62 31.5q27 0 46.5 -17.5t19.5 -55.5q0 -60 -60 -91q-21 -57 -80.5 -103.5t-134 -80.5t-149.5 -69.5t-139 -86.5t-91 -114q42 17 113.5 23.5t137.5 8t128.5 7t100 26.5t37.5 59q0 35 -39 59z" />
    <glyph glyph-name="bracketleft" unicode="[" horiz-adv-x="332" 
d="M202 783h244l-1 -7h-109l-135 -853h109l-1 -7h-244z" />
    <glyph glyph-name="backslash" unicode="\" horiz-adv-x="415" 
d="M400 -91h-10l-265 881h10z" />
    <glyph glyph-name="bracketright" unicode="]" horiz-adv-x="332" 
d="M134 783h244l-137 -867h-244l1 7h108l135 853h-108z" />
    <glyph glyph-name="asciicircum" unicode="^" horiz-adv-x="327" 
d="M286 775l94 -263l-10 -5l-89 237l-165 -237l-8 5z" />
    <glyph glyph-name="underscore" unicode="_" horiz-adv-x="410" 
d="M-15 -100h410l-2 -10h-410z" />
    <glyph glyph-name="grave" unicode="`" horiz-adv-x="0" 
d="M324 577l-4 -6l-207 151q0 12 9.5 21t22.5 9q8 0 20.5 -8.5t32 -28t35 -36.5t44.5 -50t47 -52z" />
    <glyph glyph-name="a" unicode="a" 
d="M378 524q-39 0 -76.5 -65.5t-59 -157.5t-21.5 -175q0 -79 35 -79q44 0 88 93t65 210l11 61q12 61 3 87t-45 26zM616 528l-53 -310q-34 -194 20 -215l-3 -3q-32 -7 -71 -7q-73 0 -112 37.5t-18 123.5l37 154l-4 1q-45 -176 -101 -246t-129 -70t-107.5 53.5t-34.5 131.5
q0 80 42.5 161.5t119.5 137t164 55.5q30 0 69.5 -12t66 -21.5t58 -4t56.5 33.5z" />
    <glyph glyph-name="b" unicode="b" horiz-adv-x="590" 
d="M262 320l-8 3q38 120 88 168.5t115 48.5q71 0 109.5 -43.5t38.5 -124.5q0 -50 -12 -101.5t-37.5 -101.5t-61.5 -89t-88 -63t-112 -24q-115 0 -184.5 65.5t-54.5 165.5l79 498q2 16 -9.5 24t-31.5 2l-3 3q30 14 75 26.5t78 12.5q44 0 60 -19.5t8 -69.5l-96 -587
q-17 -105 25 -105q41 0 85.5 74.5t72 174.5t28.5 178q0 72 -27 72q-31 0 -70.5 -51.5t-66.5 -136.5z" />
    <glyph glyph-name="b" unicode="&#xe003;" horiz-adv-x="590" 
d="M262 320l-8 3q38 120 88 168.5t115 48.5q71 0 109.5 -43.5t38.5 -124.5q0 -50 -12 -101.5t-37.5 -101.5t-61.5 -89t-88 -63t-112 -24q-115 0 -184.5 65.5t-54.5 165.5l79 498q2 16 -9.5 24t-31.5 2l-3 3q30 14 75 26.5t78 12.5q44 0 60 -19.5t8 -69.5l-96 -587
q-17 -105 25 -105q41 0 85.5 74.5t72 174.5t28.5 178q0 72 -27 72q-31 0 -70.5 -51.5t-66.5 -136.5z" />
    <glyph glyph-name="c" unicode="c" horiz-adv-x="553" 
d="M40 205q0 132 97.5 229.5t238.5 97.5q30 0 60.5 -5.5t61.5 -18.5t50.5 -39t19.5 -61q0 -44 -32.5 -78t-81.5 -34q-37 0 -60.5 23t-18.5 65q29 8 45 29t16 46q0 27 -18 46t-50 19q-46 0 -79.5 -45t-47 -98.5t-13.5 -101.5q0 -86 40 -131t103 -45q93 0 155 71l6 -3
q-51 -86 -129.5 -132t-157.5 -46q-88 0 -146.5 55.5t-58.5 156.5z" />
    <glyph glyph-name="d" unicode="d" horiz-adv-x="614" 
d="M651 701l-78 -483q-32 -195 20 -215l-3 -3q-32 -7 -71 -7q-73 0 -112 37.5t-18 123.5l30 154l-4 1q-39 -175 -94.5 -245.5t-132.5 -70.5q-71 0 -109.5 43.5t-38.5 124.5q0 62 21.5 126.5t60.5 119.5t102 90t138 35q40 0 68 -9l-2 -3q-44 -2 -84 -46t-66 -108.5
t-41.5 -135.5t-17.5 -133q-2 -72 30 -72q43 0 89 83.5t66 202.5l70 411q2 16 -9.5 24t-31.5 2l-3 3q30 14 75 26.5t78 12.5q44 0 60 -19.5t8 -69.5z" />
    <glyph glyph-name="e" unicode="e" horiz-adv-x="553" 
d="M237 318q94 -5 141 37.5t47 103.5q0 29 -16 47t-42 18q-54 0 -93.5 -70t-44.5 -152q-5 -87 30 -143t113 -56q93 0 154 71l6 -3q-49 -80 -124.5 -129t-160.5 -49q-92 0 -149.5 57.5t-57.5 156.5q0 130 98 227.5t238 97.5q33 0 63.5 -4.5t61 -16t49 -35t18.5 -56.5
q0 -30 -17.5 -57t-56.5 -48t-102.5 -22t-155.5 21z" />
    <glyph glyph-name="f" unicode="f" horiz-adv-x="309" 
d="M76 525h52q6 38 10 58.5t12 52.5t17 49.5t23.5 38.5t32.5 32t44 18.5t58 7.5q66 0 105 -30t39 -79q0 -48 -32 -79.5t-88 -31.5q-45 0 -73.5 35t-9.5 77q26 -5 44.5 9.5t18.5 39.5q0 47 -39 47q-34 0 -62.5 -30.5t-28.5 -70.5q0 -29 15.5 -52.5t34 -36.5t32.5 -27.5
t11 -27.5h84l-2 -10h-68l-79 -502q-10 -65 -34 -120.5t-70.5 -96t-105.5 -40.5q-63 0 -99 30t-36 78q0 52 33.5 78.5t79.5 26.5q42 0 71 -27t24 -75q-27 1 -42.5 -11t-15.5 -35q0 -17 9.5 -27.5t27.5 -10.5q60 0 60 86q0 28 -13.5 53.5t-29 42t-26 42.5t-5.5 56l72 452h-53z
" />
    <glyph glyph-name="g" unicode="g" 
d="M378 524q-39 0 -76.5 -65.5t-59 -157.5t-21.5 -175q0 -79 35 -79q44 0 88 93t65 210l11 61q12 61 3 87t-45 26zM616 528l-82 -521q-17 -107 -97 -169.5t-218 -62.5q-35 0 -66.5 4.5t-63 15.5t-50 34t-18.5 55q0 42 29.5 69.5t72.5 27.5q34 0 59 -22.5t21 -60.5
q-26 -3 -41 -19t-15 -37q0 -24 19.5 -41t57.5 -17q55 0 80 36.5t40 114.5l72 373l-4 1q-45 -176 -101 -246t-129 -70t-107.5 53.5t-34.5 131.5q0 80 42.5 161.5t119.5 137t164 55.5q30 0 69.5 -12t66 -21.5t58 -4t56.5 33.5z" />
    <glyph glyph-name="h" unicode="h" horiz-adv-x="596" 
d="M42 149l94 573q2 16 -9.5 24t-31.5 2l-3 3q30 14 75 26.5t78 12.5q44 0 59.5 -19.5t6.5 -69.5l-93 -484l4 -1q83 316 257 316q36 0 60 -12t34.5 -28.5t14 -41.5t2 -45t-5.5 -45l-24 -142q-34 -194 20 -215l-3 -3q-35 -7 -65.5 -8t-60.5 6.5t-49.5 25t-28.5 50.5t-1 80
l40 248q6 35 3 55.5t-20 20.5q-42 0 -88 -75.5t-74 -188.5q-47 -193 -11 -211l-3 -3q-68 -10 -112.5 -6t-61.5 40.5t-3 114.5z" />
    <glyph glyph-name="i" unicode="i" horiz-adv-x="280" 
d="M49 149l52 315q2 16 -9.5 24t-31.5 2l-3 3q30 14 75 26.5t78 12.5q44 0 59 -19.5t7 -69.5l-38 -230q-8 -44 -10.5 -63t-6.5 -59t1 -61t18 -27l-3 -3q-40 -8 -73 -8q-142 0 -115 157zM147 571l-2 3q17 27 19.5 71.5t-18.5 75.5q18 33 49 52.5t62 19.5q33 0 58 -20t25 -59
q0 -59 -58 -102.5t-135 -40.5z" />
    <glyph glyph-name="j" unicode="j" horiz-adv-x="280" 
d="M36 63l65 401q2 16 -9.5 24t-31.5 2l-3 3q30 14 75 26.5t78 12.5q44 0 59 -19.5t7 -69.5l-68 -430q-10 -65 -34 -120.5t-70.5 -96t-105.5 -40.5q-63 0 -99 30t-36 78q0 52 33.5 78.5t79.5 26.5q42 0 71 -27t24 -75q-27 1 -42.5 -11t-15.5 -35q0 -17 9.5 -27.5t27.5 -10.5
q60 0 60 86q0 28 -13.5 53.5t-29 42t-26 42.5t-5.5 56zM147 571l-2 3q17 27 19.5 71.5t-18.5 75.5q18 33 49 52.5t62 19.5q33 0 58 -20t25 -59q0 -59 -58 -102.5t-135 -40.5z" />
    <glyph glyph-name="k" unicode="k" horiz-adv-x="583" 
d="M261 262l-1 2q63 24 111 69t48 107q0 38 -25 38q-40 0 -86.5 -75t-74.5 -189q-47 -193 -11 -211l-3 -3q-51 -8 -84 -8q-62 0 -84.5 34t-8.5 123l94 573q2 16 -9.5 24t-31.5 2l-3 3q30 14 75 26.5t78 12.5q44 0 59.5 -19.5t6.5 -69.5l-93 -484l4 -1q25 94 56.5 159.5
t66.5 98t67 45.5t68 13q57 0 88 -27.5t31 -67.5q0 -29 -18.5 -53.5t-43 -39.5t-67 -29.5t-70.5 -21t-73.5 -16t-58.5 -12.5q80 12 130.5 2t74 -29.5t34.5 -54.5q28 -89 54.5 -127.5t61.5 -52.5l-3 -3q-74 -14 -117 -14q-152 0 -188 144q-3 14 -7.5 32t-7 28.5t-6 23.5
t-6.5 20.5t-7 14t-9 10t-11 3.5z" />
    <glyph glyph-name="l" unicode="l" horiz-adv-x="269" 
d="M39 149l92 573q2 16 -9.5 24t-31.5 2l-3 3q30 14 75 26.5t78 12.5q44 0 59 -19.5t7 -69.5l-78 -488q-8 -46 -10.5 -64t-7 -60t-0.5 -63.5t16 -27.5l-3 -3q-22 -1 -49.5 -3.5t-54.5 6.5t-48 24t-30.5 48t-1.5 79z" />
    <glyph glyph-name="m" unicode="m" horiz-adv-x="911" 
d="M395 478q-41 0 -82 -74t-70 -190q-47 -193 -11 -211l-3 -3q-51 -8 -84 -8q-63 0 -86 34.5t-7 122.5l56 315q2 16 -9.5 24t-31.5 2l-3 3q30 14 75 26.5t78 12.5q44 0 60 -19.5t6 -69.5l-55 -226l4 -1q47 178 108.5 247t138.5 69q141 0 99 -172l-35 -143l4 -1
q47 178 108.5 247t138.5 69q36 0 60 -12t34.5 -28.5t14 -41.5t2 -45t-5.5 -45l-24 -142q-34 -194 20 -215l-3 -3q-38 -8 -73 -8q-158 0 -132 162l40 248q6 35 3 55.5t-20 20.5q-41 0 -82 -74t-70 -190q-47 -193 -11 -211l-3 -3q-51 -8 -84 -8q-63 0 -85 35.5t-3 126.5
l40 248q6 35 3 55.5t-20 20.5z" />
    <glyph glyph-name="n" unicode="n" 
d="M52 149l56 315q2 16 -9.5 24t-31.5 2l-3 3q30 14 75 26.5t78 12.5q44 0 60 -19.5t6 -69.5l-55 -226l4 -1q83 316 257 316q36 0 60 -12t34.5 -28.5t14 -41.5t2 -45t-5.5 -45l-24 -142q-34 -194 20 -215l-3 -3q-38 -8 -73 -8q-158 0 -132 162l40 248q6 35 3 55.5t-20 20.5
q-42 0 -88 -75.5t-74 -188.5q-47 -193 -11 -211l-3 -3q-51 -8 -84 -8q-63 0 -86 34.5t-7 122.5z" />
    <glyph glyph-name="o" unicode="o" horiz-adv-x="605" 
d="M367 532q107 0 175 -63t68 -162q0 -125 -97.5 -219.5t-230.5 -94.5q-107 0 -174.5 63.5t-67.5 162.5q0 128 96 220.5t231 92.5zM283 1q39 5 68.5 53.5t45 118t22.5 133t7 114.5q0 104 -60 104q-38 0 -68 -50t-45 -122.5t-22.5 -137t-7.5 -110.5q0 -103 60 -103z" />
    <glyph glyph-name="p" unicode="p" horiz-adv-x="604" 
d="M217 532q44 0 60.5 -20t5.5 -69l-50 -227l4 -1q39 182 97 253.5t137 71.5q71 0 109.5 -43.5t38.5 -124.5q0 -62 -22.5 -127t-63.5 -120.5t-105 -91t-139 -35.5q-40 0 -68 9l2 3q58 3 110 76.5t79 170t28 179.5q0 72 -30 72q-43 0 -89.5 -82t-72.5 -213l-45 -220
q-9 -43 -14 -85t-2 -82t19 -48l-3 -3q-22 -1 -49.5 -3.5t-54.5 6.5t-48 24t-30.5 48t-1.5 79l89 535q2 16 -9.5 24t-31.5 2l-3 3q30 14 75 26.5t78 12.5z" />
    <glyph glyph-name="q" unicode="q" 
d="M378 524q-39 0 -76.5 -65.5t-59 -157.5t-21.5 -175q0 -79 35 -79q44 0 88 93t65 210l11 61q12 61 3 87t-45 26zM616 528l-87 -531q-32 -195 20 -215l-3 -3q-38 -8 -72 -8q-70 0 -107.5 37.5t-21.5 124.5l71 375l-4 1q-45 -176 -101 -246t-129 -70t-107.5 53.5
t-34.5 131.5q0 80 42.5 161.5t119.5 137t164 55.5q30 0 69.5 -12t66 -21.5t58 -4t56.5 33.5z" />
    <glyph glyph-name="r" unicode="r" horiz-adv-x="544" 
d="M241 213q-47 -192 -11 -210l-3 -3q-29 -8 -60 -8q-61 0 -96.5 36.5t-20.5 120.5l56 315q2 16 -9.5 24t-31.5 2l-3 3q30 14 75 26.5t78 12.5q44 0 60 -19.5t6 -69.5l-55 -227l4 -1q48 185 102 255t134 70q63 0 95.5 -33.5t32.5 -82.5q0 -54 -38 -94t-101 -40
q-37 0 -61.5 23t-20.5 65q29 0 51.5 24t22.5 58q0 23 -10.5 35.5t-28.5 12.5q-45 0 -89.5 -80.5t-77.5 -214.5z" />
    <glyph glyph-name="s" unicode="s" horiz-adv-x="535" 
d="M220 -7q-38 0 -71 4.5t-65 15.5t-50.5 32.5t-18.5 52.5q0 39 26.5 67.5t66.5 28.5q32 0 54 -19.5t18 -53.5q-21 -7 -34 -25.5t-13 -40.5q0 -53 93 -53q22 0 44 3t49 10t43.5 23.5t16.5 39.5q0 27 -32 48.5t-78 39t-92 37.5t-78 55t-32 82q0 49 25.5 87.5t67.5 60.5
t89.5 33t96.5 11q34 0 65 -4.5t60 -14.5t46.5 -29.5t17.5 -46.5q0 -35 -23.5 -60.5t-59.5 -25.5q-28 0 -46.5 18t-14.5 49q17 6 29 21t12 33q0 51 -98 51q-42 0 -77.5 -19t-35.5 -58q0 -27 31.5 -47.5t76.5 -35.5t90.5 -33t77 -51.5t31.5 -80.5q0 -68 -50 -116.5
t-117.5 -68.5t-140.5 -20z" />
    <glyph glyph-name="s" unicode="&#xe004;" horiz-adv-x="535" 
d="M220 -7q-38 0 -71 4.5t-65 15.5t-50.5 32.5t-18.5 52.5q0 39 26.5 67.5t66.5 28.5q32 0 54 -19.5t18 -53.5q-21 -7 -34 -25.5t-13 -40.5q0 -53 93 -53q22 0 44 3t49 10t43.5 23.5t16.5 39.5q0 27 -32 48.5t-78 39t-92 37.5t-78 55t-32 82q0 49 25.5 87.5t67.5 60.5
t89.5 33t96.5 11q34 0 65 -4.5t60 -14.5t46.5 -29.5t17.5 -46.5q0 -35 -23.5 -60.5t-59.5 -25.5q-28 0 -46.5 18t-14.5 49q17 6 29 21t12 33q0 51 -98 51q-42 0 -77.5 -19t-35.5 -58q0 -27 31.5 -47.5t76.5 -35.5t90.5 -33t77 -51.5t31.5 -80.5q0 -68 -50 -116.5
t-117.5 -68.5t-140.5 -20z" />
    <glyph glyph-name="t" unicode="t" horiz-adv-x="290" 
d="M322 715l-32 -190h70l-2 -10h-69l-50 -302q-32 -195 20 -215l-3 -3q-28 -4 -49 -4q-32 0 -60 7t-53.5 23t-36.5 49t-3 79l57 366h-45l2 10q111 0 169.5 43t75.5 147h9z" />
    <glyph glyph-name="u" unicode="u" horiz-adv-x="604" 
d="M592 375l-29 -157q-15 -63 -12.5 -133t32.5 -82l-3 -3q-32 -7 -71 -7q-73 0 -112 37.5t-18 123.5l37 154l-4 1q-48 -184 -101.5 -250t-137.5 -66q-49 0 -79 17t-38.5 43t-10.5 56t5 56l49 299q2 16 -9.5 24t-31.5 2l-3 3q30 14 75 26.5t78 12.5q44 0 59 -19.5t7 -69.5
l-52 -320q-13 -76 32 -76q81 0 147 264q48 196 11 215l3 3q68 5 113 0.5t61.5 -40.5t2.5 -114z" />
    <glyph glyph-name="v" unicode="v" horiz-adv-x="517" 
d="M276 443l-46 -290q-12 -64 -6 -93.5t36 -29.5q45 0 106.5 46.5t108 117.5t46.5 132q0 33 -16 52.5t-45 19.5q-51 0 -70 -44q-37 2 -56.5 22.5t-19.5 53.5q0 49 32 79.5t76 30.5q50 0 86.5 -40t36.5 -116q0 -100 -57 -192t-145 -145.5t-177 -53.5q-141 0 -117 147l52 324
q2 16 -9.5 24t-31.5 2l-3 3q30 14 75 26.5t78 12.5q44 0 59 -19.5t7 -69.5z" />
    <glyph glyph-name="w" unicode="w" horiz-adv-x="838" 
d="M588 375l-37 -222q-12 -64 -6.5 -93.5t36.5 -29.5q45 0 106.5 46.5t108 117.5t46.5 132q0 33 -16 52.5t-45 19.5q-51 0 -70 -44q-37 2 -56.5 22.5t-19.5 53.5q0 49 32 79.5t76 30.5q50 0 86.5 -40t36.5 -116q0 -101 -56.5 -192.5t-143.5 -145t-176 -53.5q-70 0 -102 37.5
t-15 109.5l39 168l-4 1q-33 -127 -68 -196t-73 -94.5t-94 -25.5q-49 0 -79 17t-38.5 43t-10.5 56t5 56l49 299q2 16 -9.5 24t-31.5 2l-3 3q30 14 75 26.5t78 12.5q44 0 59 -19.5t7 -69.5l-52 -320q-13 -76 32 -76q42 0 74.5 67.5t68.5 196.5q11 42 19 83.5t8 82.5t-16 49
l3 3q68 5 112.5 0.5t61 -40.5t3.5 -114z" />
    <glyph glyph-name="x" unicode="x" horiz-adv-x="598" 
d="M369 418l32 -84q11 198 139 198q44 0 78.5 -22t34.5 -72q0 -43 -25.5 -67.5t-60.5 -24.5q-33 0 -55.5 22.5t-19.5 55.5q26 2 42 16.5t16 38.5q0 35 -36 35q-51 0 -78.5 -65t-22.5 -146l33 -85q45 -116 76.5 -162t72.5 -53l-3 -3q-52 -10 -93.5 -10.5t-90 11.5t-87 51.5
t-61.5 106.5l-12 34q-1 -33 -3 -55t-10 -52t-21.5 -48.5t-38.5 -31.5t-60 -13q-51 0 -88 28t-37 81q0 44 28.5 69.5t65.5 25.5q36 0 61 -24.5t22 -61.5q-29 -2 -46.5 -18t-17.5 -42q0 -39 41 -39q37 0 60 35t29 83t1 103l-57 164q-39 115 -100 87l-3 3q72 45 152 45
q57 0 88.5 -27.5t54.5 -86.5z" />
    <glyph glyph-name="y" unicode="y" horiz-adv-x="596" 
d="M592 375l-58 -368q-17 -107 -97 -169.5t-218 -62.5q-35 0 -66.5 4.5t-63 15.5t-50 34t-18.5 55q0 42 29.5 69.5t72.5 27.5q34 0 59 -22.5t21 -60.5q-26 -3 -41 -19t-15 -37q0 -24 19.5 -41t57.5 -17q55 0 80 36.5t40 114.5l72 373l-4 1q-48 -184 -101.5 -250t-137.5 -66
q-49 0 -79 17t-38.5 43t-10.5 56t5 56l49 299q2 16 -9.5 24t-31.5 2l-3 3q30 14 75 26.5t78 12.5q44 0 59 -19.5t7 -69.5l-52 -320q-13 -76 32 -76q81 0 147 264q48 196 11 215l3 3q68 5 112 0.5t60.5 -40.5t4.5 -114z" />
    <glyph glyph-name="y" unicode="&#xe006;" horiz-adv-x="596" 
d="M592 375l-58 -368q-17 -107 -97 -169.5t-218 -62.5q-35 0 -66.5 4.5t-63 15.5t-50 34t-18.5 55q0 42 29.5 69.5t72.5 27.5q34 0 59 -22.5t21 -60.5q-26 -3 -41 -19t-15 -37q0 -24 19.5 -41t57.5 -17q55 0 80 36.5t40 114.5l72 373l-4 1q-48 -184 -101.5 -250t-137.5 -66
q-49 0 -79 17t-38.5 43t-10.5 56t5 56l49 299q2 16 -9.5 24t-31.5 2l-3 3q30 14 75 26.5t78 12.5q44 0 59 -19.5t7 -69.5l-52 -320q-13 -76 32 -76q81 0 147 264q48 196 11 215l3 3q68 5 112 0.5t60.5 -40.5t4.5 -114z" />
    <glyph glyph-name="z" unicode="z" horiz-adv-x="558" 
d="M440 253l2 3q44 -15 71.5 -51.5t27.5 -78.5q0 -50 -36 -91.5t-101 -41.5q-49 0 -111.5 27.5t-115.5 55t-80 27.5q-38 0 -38 -30q0 -14 12.5 -20.5t31.5 4.5q18 -29 2 -52t-46 -23q-19 0 -34 12.5t-15 37.5q0 45 50 71q20 46 70 82t109 60t117.5 47t106.5 54.5t66 70.5
q-37 -16 -107 -26t-125 -14.5t-98 -22.5t-43 -52q0 -18 21 -30l-2 -3q-44 15 -71.5 51.5t-27.5 78.5q0 50 36 91.5t101 41.5q49 0 106.5 -27.5t106 -55t75.5 -27.5q38 0 38 30q0 14 -12.5 20.5t-31.5 -4.5q-18 29 -2 52t46 23q19 0 34 -12.5t15 -37.5q0 -46 -48 -71
q-14 -42 -59.5 -75.5t-103.5 -57t-117.5 -46.5t-112 -57t-75.5 -77q46 19 150 28.5t171.5 26t67.5 59.5q0 18 -21 30z" />
    <glyph glyph-name="braceleft" unicode="{" horiz-adv-x="353" 
d="M164 351v-2q38 0 67.5 -28t29.5 -78q0 -26 -21.5 -90t-21.5 -116q0 -124 110 -127l-1 -7q-66 3 -112.5 20.5t-69 44t-32 51t-9.5 50.5q0 34 15.5 68t34 57t34 51.5t15.5 51.5q0 49 -59 49h-26l1 8h26q33 0 55.5 17t22.5 54q0 23 -18.5 77t-18.5 88q0 20 5.5 42t24 51.5
t48 52.5t83 40.5t122.5 20.5l-1 -7q-135 -4 -160 -168q-6 -34 -6.5 -81t-2.5 -64q-10 -60 -51 -93t-84 -33z" />
    <glyph glyph-name="bar" unicode="|" horiz-adv-x="242" 
d="M102 -91l139 880h10l-139 -880h-10z" />
    <glyph glyph-name="braceright" unicode="}" horiz-adv-x="353" 
d="M300 349v2q-38 0 -67.5 28t-29.5 78q0 27 21.5 91.5t21.5 114.5q0 124 -111 127l2 7q66 -3 112.5 -20.5t69 -44t32 -51t9.5 -50.5q0 -34 -15.5 -68t-34 -57t-34 -51.5t-15.5 -51.5q0 -49 59 -49h26l-1 -8h-26q-33 0 -55.5 -17t-22.5 -54q0 -23 18.5 -77.5t18.5 -87.5
q0 -20 -5.5 -42t-24 -51.5t-48 -52.5t-83 -40.5t-122.5 -20.5l1 7q135 4 160 168q6 34 6.5 81t2.5 64q10 60 51 93t84 33z" />
    <glyph glyph-name="asciitilde" unicode="~" horiz-adv-x="437" 
d="M81 300l-9 3q51 82 107 82q39 0 96 -43.5t95 -43.5q50 0 92 67l8 -3q-45 -74 -100 -74q-27 0 -54 13.5t-45 30t-44 30t-51 13.5q-50 0 -95 -75z" />
    <glyph glyph-name="exclamdown" unicode="&#xa1;" horiz-adv-x="296" 
d="M106 -210q-95 74 -95 153q0 39 23 84t51.5 81.5t57.5 87.5t38 97h8q-6 -51 10 -107t35 -109.5t19 -93.5q0 -54 -35.5 -99t-111.5 -94zM193 340q-35 0 -57 24t-22 59q0 44 33 76.5t76 32.5q34 0 56.5 -24t22.5 -59q0 -44 -33 -76.5t-76 -32.5z" />
    <glyph glyph-name="cent" unicode="&#xa2;" horiz-adv-x="536" 
d="M80 303q0 131 84.5 221t211.5 99l20 128h10l-20 -128q32 0 62 -4.5t62.5 -16.5t52.5 -37.5t20 -62.5q0 -53 -30.5 -81.5t-72.5 -28.5q-34 0 -53.5 21.5t-14.5 62.5q43 22 43 72q0 31 -20 50.5t-51 16.5l-60 -381q37 -26 82 -26q93 0 150 74l5 -3q-108 -181 -260 -193
l-20 -127h-10l20 126h-12q-88 0 -143.5 59.5t-55.5 158.5zM260 385q0 -97 55 -144l59 372q-53 -14 -83.5 -89.5t-30.5 -138.5z" />
    <glyph glyph-name="sterling" unicode="&#xa3;" horiz-adv-x="629" 
d="M427 699q-39 0 -58.5 -26.5t-28.5 -81.5q-3 -16 -12.5 -89.5t-17.5 -124.5h162l-1 -10h-163q-19 -117 -49 -202q26 -2 107 -9.5t116 -7.5q73 0 112.5 37t58.5 115h8q-30 -150 -97 -228.5t-164 -78.5q-26 0 -54 9.5t-41 16.5t-48 30.5t-39 26.5q-50 -83 -118 -83
q-37 0 -57 15.5t-20 41.5q0 107 151 116q-3 35 -13.5 106t-13.5 95h-53l1 10h51q-6 43 -6 82q0 76 43.5 134.5t106.5 86t132 27.5q35 0 70.5 -5.5t73 -18t60.5 -38.5t23 -62q0 -48 -33 -78t-74 -30q-35 0 -56.5 21.5t-17.5 62.5q20 9 32 28.5t12 40.5q0 32 -25 51.5
t-60 19.5zM93 1q75 0 82 99q-32 16 -65 16q-34 0 -57 -18t-23 -46q0 -22 17.5 -36.5t45.5 -14.5z" />
    <glyph glyph-name="currency" unicode="&#xa4;" horiz-adv-x="637" 
d="M107 65l-6 7l76 67q-52 67 -37.5 160.5t87.5 160.5l-54 68l8 7l55 -68q74 65 165 65t146 -65l76 68l6 -7l-77 -68q53 -67 38.5 -160.5t-88.5 -160.5l55 -67l-8 -7l-55 67q-75 -64 -166 -64t-145 64zM188 143q53 -65 142 -65t162 65t87.5 157t-37.5 157t-141.5 65
t-162.5 -65t-87.5 -157t37.5 -157z" />
    <glyph glyph-name="yen" unicode="&#xa5;" horiz-adv-x="812" 
d="M207 258l2 10h135l3 16l-108 287q-26 70 -50.5 96t-73.5 26l1 7h404l-1 -7q-24 0 -40 -7t-21.5 -21t-8 -27t2 -34.5t7.5 -32.5t10 -31l69 -216l65 97q24 36 41 64t35 61.5t23.5 57.5t3.5 45.5t-20 32.5t-52 11l1 7h283l-1 -7q-39 0 -78 -21t-79.5 -64t-72 -84.5
t-75.5 -105.5l-70 -103l-8 -47h137l-2 -10h-136l-12 -77h136l-2 -10h-136q-9 -55 -10 -91.5t19.5 -54.5t69.5 -18l-1 -7h-400l1 7q30 0 51 7t34 18t22 34.5t13.5 44t10.5 60.5h-136l2 10h136l12 77h-136z" />
    <glyph glyph-name="brokenbar" unicode="&#xa6;" horiz-adv-x="242" 
d="M177 384l64 405h10l-64 -405h-10zM102 -91l64 405h10l-64 -405h-10z" />
    <glyph glyph-name="section" unicode="&#xa7;" horiz-adv-x="592" 
d="M607 369q0 -80 -67 -135.5t-168 -64.5q40 -17 63.5 -29t53.5 -33t44.5 -48.5t14.5 -60.5q0 -50 -25.5 -88t-66.5 -59t-85 -31t-88 -10q-68 0 -121.5 21.5t-53.5 70.5q0 35 22.5 55.5t51.5 20.5q24 0 38.5 -16t10.5 -45q-13 -6 -22 -20t-9 -28q0 -21 24 -36t60 -15
q47 0 78.5 22t31.5 56q0 26 -30.5 46.5t-74 36t-87.5 34.5t-74.5 53.5t-30.5 81.5q0 80 67.5 135.5t167.5 63.5q-41 18 -64 30t-53.5 33.5t-44.5 48.5t-14 60q0 50 25.5 88t66 59t84 31t87.5 10q69 0 122.5 -21.5t53.5 -70.5q0 -35 -22 -55.5t-51 -20.5q-25 0 -39.5 16
t-11.5 45q14 6 23.5 20t9.5 28q0 21 -24 36t-61 15q-46 0 -78 -22.5t-32 -55.5q0 -26 30.5 -46.5t74.5 -36t88 -34.5t74.5 -53.5t30.5 -81.5zM457 252q0 26 -27.5 45.5t-81.5 42.5q-43 -4 -72 -25t-29 -50q0 -27 26.5 -46t81.5 -43q45 5 73.5 26t28.5 50z" />
    <glyph glyph-name="dieresis" unicode="&#xa8;" horiz-adv-x="0" 
d="M128 683q19 0 31.5 -13.5t12.5 -32.5q0 -25 -18.5 -43t-42.5 -18q-19 0 -31.5 13.5t-12.5 33.5q0 24 18.5 42t42.5 18zM326 683q19 0 31.5 -13.5t12.5 -32.5q0 -25 -18.5 -43t-42.5 -18q-19 0 -31.5 13.5t-12.5 33.5q0 24 18.5 42t42.5 18z" />
    <glyph glyph-name="copyright" unicode="&#xa9;" horiz-adv-x="776" 
d="M99 304q0 104 56.5 196t149 146t194.5 54q125 0 206.5 -87.5t81.5 -215.5q0 -105 -56.5 -197t-148.5 -146t-194 -54q-125 0 -207 87.5t-82 216.5zM109 304q0 -124 79.5 -209t199.5 -85q152 0 270.5 115.5t118.5 271.5q0 124 -79 208.5t-199 84.5q-152 0 -271 -115.5
t-119 -270.5zM205 321q0 110 89 185.5t203 75.5q49 0 98 -14l50 13l-19 -182h-7q2 43 -6.5 80t-37.5 66t-75 29q-118 0 -154 -224q-33 -224 83 -224q67 0 112 53t63 122h7l-39 -182l-45 13q-46 -14 -103 -14q-93 0 -156 57t-63 146z" />
    <glyph glyph-name="ordfeminine" unicode="&#xaa;" horiz-adv-x="448" 
d="M313 705q-28 0 -54 -45.5t-41 -110t-15 -122.5q0 -55 25 -55q30 0 60.5 64.5t45.5 147.5l7 42q8 43 2.5 61t-30.5 18zM480 708l-38 -217q-23 -135 14 -150l-2 -2q-31 -6 -57.5 -5t-51 11.5t-32 35t0.5 65.5l26 108l-3 1q-31 -123 -70.5 -172t-90.5 -49t-75.5 37.5
t-24.5 91.5q0 89 68 168.5t161 79.5q21 0 48.5 -8t46 -15t40.5 -3.5t40 23.5z" />
    <glyph glyph-name="guillemotleft" unicode="&#xab;" horiz-adv-x="439" 
d="M90 266l222 197l4 -4l-159 -193l97 -193l-4 -4zM238 266l221 197l5 -4l-159 -193l97 -193l-5 -4z" />
    <glyph glyph-name="logicalnot" unicode="&#xac;" horiz-adv-x="468" 
d="M77 330h419l-30 -185h-9l28 175h-410z" />
    <glyph glyph-name="registered" unicode="&#xae;" horiz-adv-x="776" 
d="M99 304q0 104 56.5 196t149 146t194.5 54q125 0 206.5 -87.5t81.5 -215.5q0 -105 -56.5 -197t-148.5 -146t-194 -54q-125 0 -207 87.5t-82 216.5zM109 304q0 -124 79.5 -209t199.5 -85q152 0 270.5 115.5t118.5 271.5q0 124 -79 208.5t-199 84.5q-152 0 -271 -115.5
t-119 -270.5zM175 121l1 8q42 0 55.5 22t23.5 87l35 221q13 59 6 84.5t-50 25.5l1 7h173q25 0 40.5 -0.5t40.5 -2t41 -5t34.5 -10.5t29.5 -17t18.5 -25t7.5 -34q0 -37 -18.5 -63.5t-49 -39.5t-59.5 -19t-61 -7v-2q43 0 70 -7t42.5 -25.5t22.5 -36t17 -53.5l29 -110
q-38 -2 -56 -2q-62 0 -76.5 15t-27.5 86q-1 6 -4.5 29t-6.5 36t-9.5 30.5t-17.5 26t-27 8.5h-11l-17 -110q-12 -58 -7 -83.5t39 -25.5l-1 -8h-228zM390 356h17q100 0 100 134q0 77 -66 77h-17z" />
    <glyph glyph-name="macron" unicode="&#xaf;" horiz-adv-x="0" 
d="M377 620l-2 -10h-318l2 10h318z" />
    <glyph glyph-name="degree" unicode="&#xb0;" horiz-adv-x="287" 
d="M94 553q0 62 46.5 108t107.5 46q49 0 80.5 -34t31.5 -84q0 -62 -47 -107.5t-108 -45.5q-49 0 -80 33.5t-31 83.5zM104 553q0 -46 28.5 -76.5t72.5 -30.5q57 0 101 42.5t44 100.5q0 46 -29 77t-73 31q-57 0 -100.5 -43t-43.5 -101z" />
    <glyph glyph-name="plusminus" unicode="&#xb1;" horiz-adv-x="524" 
d="M270 80l33 215h-208l1 10h209l34 215h10l-34 -215h208l-1 -10h-208l-34 -215h-10zM50 10h427l-2 -10h-427z" />
    <glyph glyph-name="twosuperior" unicode="&#xb2;" horiz-adv-x="394" 
d="M305 240q-22 0 -61.5 10.5t-72 21t-66.5 16t-43 -4.5q-5 -18 -6 -38h-6q3 42 17.5 75.5t41 60t47.5 42.5t56 39q9 6 14 9q115 73 115 167q0 59 -50 59q-32 0 -53 -19.5t-21 -49.5q0 -26 19 -36q-6 -30 -26.5 -46t-45.5 -16q-23 0 -39 15t-16 43q0 35 20 60t51.5 36.5
t59 16t53.5 4.5q175 0 175 -99q0 -45 -28.5 -78t-66 -49t-90.5 -29q-3 -1 -20 -5t-21.5 -5t-19 -5t-20.5 -6.5t-18.5 -7t-19.5 -8.5t-17 -9.5t-18 -12t-15 -14.5q30 23 72 23q30 0 92 -19.5t96 -19.5q54 0 66 38l7 -1q-23 -72 -54.5 -115t-87.5 -43z" />
    <glyph glyph-name="threesuperior" unicode="&#xb3;" horiz-adv-x="417" 
d="M239 491h-20l2 9h17q49 0 77.5 41t28.5 96q0 60 -49 60q-30 0 -48 -19.5t-18 -41.5q0 -24 16 -33q-6 -26 -24 -40t-40 -14t-36.5 12.5t-14.5 37.5q0 31 17 53.5t44.5 33t53.5 15t54 4.5q170 0 170 -87q0 -111 -199 -121v-1q35 0 65 -4.5t60.5 -15.5t48.5 -34.5t18 -56.5
q0 -70 -62.5 -107.5t-178.5 -37.5q-22 0 -45 3.5t-49 13t-42 29t-16 47.5q0 39 23 60.5t54 21.5q25 0 40.5 -16t12.5 -46q-33 -15 -33 -53q0 -23 16.5 -37.5t42.5 -14.5q46 0 72.5 42t26.5 93q0 44 -21.5 76t-63.5 32z" />
    <glyph glyph-name="acute" unicode="&#xb4;" horiz-adv-x="0" 
d="M129 571l-3 6q27 22 65 53t60 49t46.5 37t40 27.5t23.5 8.5q23 0 23 -24z" />
    <glyph glyph-name="mu" unicode="&#xb5;" horiz-adv-x="660" 
d="M38 -225l99 623q5 34 4.5 56t-19.5 30.5t-63 2.5v7l278 38l-58 -366q-9 -31 0 -63t46 -32q43 0 92 39l46 288q13 51 2.5 75.5t-61.5 16.5v7l259 35l-64 -405q-5 -34 -4.5 -56.5t18 -31.5t56.5 -1v-7q-118 -31 -174.5 -32.5t-72 22.5t-3.5 81q-143 -109 -234 -109
q-81 0 -93 69l-45 -287h-9z" />
    <glyph glyph-name="paragraph" unicode="&#xb6;" horiz-adv-x="541" 
d="M216 -225l66 416q-78 -9 -131 30.5t-53 111.5q0 98 70 145t173 47h266l-2 -10h-106l-117 -740h-10l117 740h-146l-117 -740h-10z" />
    <glyph glyph-name="periodcentered" unicode="&#xb7;" horiz-adv-x="264" 
d="M216 532q34 0 56.5 -24t22.5 -59q0 -44 -33.5 -76.5t-75.5 -32.5q-34 0 -56.5 24t-22.5 59q0 44 33 76.5t76 32.5z" />
    <glyph glyph-name="cedilla" unicode="&#xb8;" horiz-adv-x="0" 
d="M-99 -172l9 6q20 -23 58 -23q37 0 57.5 17t20.5 40t-21.5 40.5t-60.5 19.5q24 43 32 68l10 1q-10 -31 -28 -61q37 -4 57.5 -22.5t20.5 -43.5q0 -28 -24 -48.5t-65 -20.5q-46 0 -66 27z" />
    <glyph glyph-name="onesuperior" unicode="&#xb9;" horiz-adv-x="325" 
d="M335 245h-267l1 7q48 0 62.5 22.5t24.5 87.5l34 213q-37 -39 -78 -62l-1 6q94 54 158 181h70l-54 -338q-13 -57 -5 -83.5t56 -26.5z" />
    <glyph glyph-name="ordmasculine" unicode="&#xba;" horiz-adv-x="424" 
d="M323 707q75 0 123 -46t48 -117q0 -90 -68.5 -152t-161.5 -62q-75 0 -122 46t-47 117q0 89 68 151.5t160 62.5zM265 338q46 0 73.5 71t27.5 197q0 93 -44 93q-45 0 -72.5 -72.5t-27.5 -197.5q0 -91 43 -91z" />
    <glyph glyph-name="guillemotright" unicode="&#xbb;" horiz-adv-x="439" 
d="M275 463l159 -197l-222 -197l-4 4l159 193l-98 193zM127 463l159 -197l-222 -197l-4 4l160 193l-99 193z" />
    <glyph glyph-name="onequarter" unicode="&#xbc;" horiz-adv-x="1036" 
d="M345 245h-267l1 7q48 0 62.5 22.5t24.5 87.5l34 213q-37 -39 -78 -62l-1 6q94 54 158 181h70l-54 -338q-13 -57 -5 -83.5t56 -26.5zM241 0h-10l607 700h10zM615 128l1 7q55 15 132 77t77 109q0 18 -11 28t-27 10q-37 0 -54 -30q-26 1 -39 16.5t-13 37.5q0 30 21.5 53.5
t60.5 23.5q74 0 74 -105q0 -55 -22 -119.5t-46 -99.5h51l32 203q44 48 80 116h69l-51 -319h68l-1 -8h-68l-2 -11q-13 -57 -5 -83.5t55 -26.5l-1 -7h-265l1 7q17 0 29 2t20.5 10t13.5 13.5t9.5 23t6 26.5t6.5 35l2 11h-204z" />
    <glyph glyph-name="onehalf" unicode="&#xbd;" horiz-adv-x="1015" 
d="M345 245h-267l1 7q48 0 62.5 22.5t24.5 87.5l34 213q-37 -39 -78 -62l-1 6q94 54 158 181h70l-54 -338q-13 -57 -5 -83.5t56 -26.5zM241 0h-10l607 700h10zM858 -5q-22 0 -61.5 10.5t-72 21t-66.5 16t-43 -4.5q-5 -18 -6 -38h-6q3 42 17.5 75.5t41 60t47.5 42.5t56 39
q9 6 14 9q115 73 115 167q0 26 -13 42.5t-37 16.5q-32 0 -53 -19.5t-21 -49.5q0 -26 19 -36q-6 -30 -26.5 -46t-45.5 -16q-23 0 -39 15t-16 43q0 35 20 60t51.5 36.5t59 16t53.5 4.5q175 0 175 -99q0 -45 -28.5 -78t-66 -49t-90.5 -29q-3 -1 -20 -5t-21.5 -5t-19 -5
t-20.5 -6.5t-18.5 -7t-19.5 -8.5t-17 -9.5t-18 -12t-15 -14.5q30 23 72 23q30 0 92 -19.5t96 -19.5q54 0 66 38l7 -1q-23 -72 -54.5 -115t-87.5 -43z" />
    <glyph glyph-name="threequarters" unicode="&#xbe;" horiz-adv-x="1070" 
d="M253 491h-20l2 9h17q49 0 77.5 41t28.5 96q0 60 -49 60q-30 0 -48 -19.5t-18 -41.5q0 -24 16 -33q-6 -26 -24 -40t-40 -14t-36.5 12.5t-14.5 37.5q0 31 17 53.5t44.5 33t53.5 15t54 4.5q170 0 170 -87q0 -111 -199 -121v-1q35 0 65 -4.5t60.5 -15.5t48.5 -34.5t18 -56.5
q0 -70 -62.5 -107.5t-178.5 -37.5q-22 0 -45 3.5t-49 13t-42 29t-16 47.5q0 39 23 60.5t54 21.5q25 0 40.5 -16t12.5 -46q-33 -15 -33 -53q0 -23 16.5 -37.5t42.5 -14.5q46 0 72.5 42t26.5 93q0 44 -21.5 76t-63.5 32zM295 0h-10l607 700h10zM668 128l1 7q55 15 132 77
t77 109q0 18 -11 28t-27 10q-37 0 -54 -30q-26 1 -39 16.5t-13 37.5q0 30 21.5 53.5t60.5 23.5q74 0 74 -105q0 -55 -22 -119.5t-46 -99.5h51l32 203q44 48 80 116h69l-51 -319h68l-1 -8h-68l-2 -11q-13 -57 -5 -83.5t55 -26.5l-1 -7h-265l1 7q17 0 29 2t20.5 10t13.5 13.5
t9.5 23t6 26.5t6.5 35l2 11h-204z" />
    <glyph glyph-name="questiondown" unicode="&#xbf;" horiz-adv-x="572" 
d="M338 340q-34 0 -57 24t-23 59q0 44 34 76.5t76 32.5q35 0 57 -24t22 -59q0 -44 -33 -76.5t-76 -32.5zM269 -182q-58 0 -112 13t-98 49t-44 90q0 43 24 79t60.5 58.5t79 44t79 37.5t60.5 38t24 46q0 18 -9 33q4 5 7 5q11 0 11 -32q0 -29 -21 -63t-46 -64t-46 -85.5
t-21 -122.5q0 -56 19.5 -87t55.5 -31q34 0 62.5 30t28.5 78q0 40 -27 57q10 47 40.5 71.5t69.5 24.5q36 0 60.5 -23t24.5 -66q0 -52 -29 -89.5t-75.5 -56t-90.5 -26.5t-87 -8z" />
    <glyph glyph-name="Agrave" unicode="&#xc0;" horiz-adv-x="1119" 
d="M821 734l172 -556q29 -94 58 -132.5t78 -38.5l-1 -7h-415l1 7q116 0 70 162l-21 75h-154q-88 -163 -179 -248.5t-200 -85.5q-99 0 -164.5 52.5t-65.5 147.5q0 84 61.5 137t141.5 53q78 0 139 -43t61 -115q0 -52 -36 -87.5t-94 -35.5q-45 0 -73 31.5t-15 75.5q36 1 61 28
t25 66q0 36 -25.5 54t-57.5 18q-56 0 -101.5 -52t-45.5 -128q0 -86 52.5 -139t140.5 -53q159 0 306 229q84 131 217 438q8 17 22 51zM706 445q-53 -118 -92 -191h146zM849 785l-4 -6l-215 98q0 12 9.5 21t22.5 9t36.5 -15t71 -50.5t79.5 -56.5z" />
    <glyph glyph-name="Aacute" unicode="&#xc1;" horiz-adv-x="1119" 
d="M821 734l172 -556q29 -94 58 -132.5t78 -38.5l-1 -7h-415l1 7q116 0 70 162l-21 75h-154q-88 -163 -179 -248.5t-200 -85.5q-99 0 -164.5 52.5t-65.5 147.5q0 84 61.5 137t141.5 53q78 0 139 -43t61 -115q0 -52 -36 -87.5t-94 -35.5q-45 0 -73 31.5t-15 75.5q36 1 61 28
t25 66q0 36 -25.5 54t-57.5 18q-56 0 -101.5 -52t-45.5 -128q0 -86 52.5 -139t140.5 -53q159 0 306 229q84 131 217 438q8 17 22 51zM706 445q-53 -118 -92 -191h146zM803 779l-3 6q40 22 98 57t86.5 50t41.5 15q23 0 23 -24z" />
    <glyph glyph-name="Acircumflex" unicode="&#xc2;" horiz-adv-x="1119" 
d="M821 734l172 -556q29 -94 58 -132.5t78 -38.5l-1 -7h-415l1 7q116 0 70 162l-21 75h-154q-88 -163 -179 -248.5t-200 -85.5q-99 0 -164.5 52.5t-65.5 147.5q0 84 61.5 137t141.5 53q78 0 139 -43t61 -115q0 -52 -36 -87.5t-94 -35.5q-45 0 -73 31.5t-15 75.5q36 1 61 28
t25 66q0 36 -25.5 54t-57.5 18q-56 0 -101.5 -52t-45.5 -128q0 -86 52.5 -139t140.5 -53q159 0 306 229q84 131 217 438q8 17 22 51zM706 445q-53 -118 -92 -191h146zM847 890l135 -120l-6 -5l-138 67l-160 -67l-4 5z" />
    <glyph glyph-name="Atilde" unicode="&#xc3;" horiz-adv-x="1119" 
d="M821 734l172 -556q29 -94 58 -132.5t78 -38.5l-1 -7h-415l1 7q116 0 70 162l-21 75h-154q-88 -163 -179 -248.5t-200 -85.5q-99 0 -164.5 52.5t-65.5 147.5q0 84 61.5 137t141.5 53q78 0 139 -43t61 -115q0 -52 -36 -87.5t-94 -35.5q-45 0 -73 31.5t-15 75.5q36 1 61 28
t25 66q0 36 -25.5 54t-57.5 18q-56 0 -101.5 -52t-45.5 -128q0 -86 52.5 -139t140.5 -53q159 0 306 229q84 131 217 438q8 17 22 51zM706 445q-53 -118 -92 -191h146zM645 797l-8 3q28 46 50 64t51 18q39 0 96 -43.5t95 -43.5q24 0 43 14.5t43 52.5l8 -3q-27 -44 -48 -59
t-46 -15q-34 0 -66.5 21.5t-64 43.5t-63.5 22q-23 0 -43 -15.5t-47 -59.5z" />
    <glyph glyph-name="Adieresis" unicode="&#xc4;" horiz-adv-x="1119" 
d="M821 734l172 -556q29 -94 58 -132.5t78 -38.5l-1 -7h-415l1 7q116 0 70 162l-21 75h-154q-88 -163 -179 -248.5t-200 -85.5q-99 0 -164.5 52.5t-65.5 147.5q0 84 61.5 137t141.5 53q78 0 139 -43t61 -115q0 -52 -36 -87.5t-94 -35.5q-45 0 -73 31.5t-15 75.5q36 1 61 28
t25 66q0 36 -25.5 54t-57.5 18q-56 0 -101.5 -52t-45.5 -128q0 -86 52.5 -139t140.5 -53q159 0 306 229q84 131 217 438q8 17 22 51zM706 445q-53 -118 -92 -191h146zM945 884q19 0 31.5 -13.5t12.5 -32.5q0 -25 -18.5 -43t-42.5 -18q-19 0 -31.5 13.5t-12.5 33.5
q0 24 18.5 42t42.5 18zM747 884q19 0 31.5 -13.5t12.5 -32.5q0 -25 -18.5 -43t-42.5 -18q-19 0 -31.5 13.5t-12.5 33.5q0 24 18.5 42t42.5 18z" />
    <glyph glyph-name="Aring" unicode="&#xc5;" horiz-adv-x="1119" 
d="M821 734l172 -556q29 -94 58 -132.5t78 -38.5l-1 -7h-415l1 7q116 0 70 162l-21 75h-154q-88 -163 -179 -248.5t-200 -85.5q-99 0 -164.5 52.5t-65.5 147.5q0 84 61.5 137t141.5 53q78 0 139 -43t61 -115q0 -52 -36 -87.5t-94 -35.5q-45 0 -73 31.5t-15 75.5q36 1 61 28
t25 66q0 36 -25.5 54t-57.5 18q-56 0 -101.5 -52t-45.5 -128q0 -86 52.5 -139t140.5 -53q159 0 306 229q84 131 217 438q8 17 22 51zM858 959q38 0 63 -24t25 -60q0 -44 -36 -76.5t-82 -32.5q-39 0 -63.5 24.5t-24.5 60.5q0 44 35.5 76t82.5 32zM858 949q-43 0 -75.5 -29
t-32.5 -69q0 -32 22 -53.5t56 -21.5q42 0 75 29.5t33 69.5q0 31 -22.5 52.5t-55.5 21.5zM706 445q-53 -118 -92 -191h146z" />
    <glyph glyph-name="AE" unicode="&#xc6;" horiz-adv-x="1161" 
d="M931 710q-60 0 -98 -59.5t-38 -123.5q0 -56 32 -98t81 -42h27l-2 -8h-16q-67 0 -122.5 -46.5t-84.5 -114.5t-29 -139q0 -198 163 -198q121 0 199.5 83t78.5 177q0 53 -33 88.5t-96 35.5q-38 0 -63 -24.5t-25 -65.5q0 -33 20 -54t52 -22q5 -44 -28.5 -75.5t-78.5 -31.5
q-52 0 -81.5 29t-29.5 73q0 77 74.5 128t159.5 51q82 0 125 -41t43 -104q0 -45 -22.5 -89.5t-64.5 -83t-110.5 -62.5t-152.5 -24q-154 0 -235.5 74.5t-81.5 178.5q0 67 37 122h-192q-190 -237 -37 -237l-1 -7h-296l1 7q41 0 88.5 26t102.5 78.5t88.5 89t87.5 99.5l269 315
q38 54 122.5 79t164.5 25q98 0 163.5 -39.5t65.5 -111.5q0 -56 -38 -92.5t-85 -36.5q-41 0 -71 29.5t-19 71.5q69 15 69 83q0 39 -23 63t-60 24zM385 299l-39 -45h192q93 122 323 125l1 2q-113 2 -177.5 47t-64.5 115q0 20 4 33z" />
    <glyph glyph-name="Ccedilla" unicode="&#xc7;" horiz-adv-x="715" 
d="M290 -255l9 6q20 -23 58 -23q37 0 57.5 17t20.5 40t-21.5 40.5t-60.5 19.5q24 45 31 66q-108 3 -185.5 50.5t-113 118t-35.5 152.5q0 99 34 193t95 169t155 120.5t205 45.5q95 0 160.5 -40t65.5 -112q0 -56 -38 -92t-85 -36q-41 0 -71 29.5t-19 71.5q69 16 69 83
q0 40 -24 63.5t-61 23.5q-76 0 -143.5 -100t-104.5 -238.5t-37 -264.5q0 -42 7.5 -78t25 -71.5t53 -56t85.5 -20.5q97 0 172 69t75 182q0 70 -35.5 101.5t-84.5 31.5q-38 0 -63 -24.5t-25 -65.5q0 -33 20 -54t52 -22q5 -44 -28.5 -75.5t-78.5 -31.5q-52 0 -81.5 29t-29.5 73
q0 77 74.5 128t159.5 51q72 0 115.5 -35t43.5 -106q0 -112 -81.5 -187.5t-228.5 -75.5h-5q-10 -30 -26 -57q37 -4 57.5 -22.5t20.5 -43.5q0 -28 -24 -48.5t-65 -20.5q-46 0 -66 27z" />
    <glyph glyph-name="Egrave" unicode="&#xc8;" horiz-adv-x="707" 
d="M477 710q-60 0 -98 -59.5t-38 -123.5q0 -56 32 -98t81 -42h27l-2 -8h-16q-67 0 -122.5 -46.5t-84.5 -114.5t-29 -139q0 -198 163 -198q121 0 199.5 83t78.5 177q0 53 -33 88.5t-96 35.5q-38 0 -63 -24.5t-25 -65.5q0 -33 20 -54t52 -22q5 -44 -28.5 -75.5t-78.5 -31.5
q-52 0 -81.5 29t-29.5 73q0 77 74.5 128t159.5 51q82 0 125 -41t43 -104q0 -45 -22.5 -89.5t-64.5 -83t-110.5 -62.5t-152.5 -24q-154 0 -235.5 74.5t-81.5 178.5q0 107 94.5 181.5t272.5 75.5l1 2q-113 2 -177.5 47t-64.5 115q0 50 33 86.5t84 55t99.5 26.5t92.5 8
q98 0 163.5 -39.5t65.5 -111.5q0 -56 -38 -92.5t-85 -36.5q-41 0 -71 29.5t-19 71.5q69 15 69 83q0 39 -23 63t-60 24zM502 771l-4 -6l-215 98q0 12 9.5 21t22.5 9t36.5 -15t71 -50.5t79.5 -56.5z" />
    <glyph glyph-name="Eacute" unicode="&#xc9;" horiz-adv-x="707" 
d="M477 710q-60 0 -98 -59.5t-38 -123.5q0 -56 32 -98t81 -42h27l-2 -8h-16q-67 0 -122.5 -46.5t-84.5 -114.5t-29 -139q0 -198 163 -198q121 0 199.5 83t78.5 177q0 53 -33 88.5t-96 35.5q-38 0 -63 -24.5t-25 -65.5q0 -33 20 -54t52 -22q5 -44 -28.5 -75.5t-78.5 -31.5
q-52 0 -81.5 29t-29.5 73q0 77 74.5 128t159.5 51q82 0 125 -41t43 -104q0 -45 -22.5 -89.5t-64.5 -83t-110.5 -62.5t-152.5 -24q-154 0 -235.5 74.5t-81.5 178.5q0 107 94.5 181.5t272.5 75.5l1 2q-113 2 -177.5 47t-64.5 115q0 50 33 86.5t84 55t99.5 26.5t92.5 8
q98 0 163.5 -39.5t65.5 -111.5q0 -56 -38 -92.5t-85 -36.5q-41 0 -71 29.5t-19 71.5q69 15 69 83q0 39 -23 63t-60 24zM456 765l-3 6q40 22 98 57t86.5 50t41.5 15q23 0 23 -24z" />
    <glyph glyph-name="Ecircumflex" unicode="&#xca;" horiz-adv-x="707" 
d="M477 710q-60 0 -98 -59.5t-38 -123.5q0 -56 32 -98t81 -42h27l-2 -8h-16q-67 0 -122.5 -46.5t-84.5 -114.5t-29 -139q0 -198 163 -198q121 0 199.5 83t78.5 177q0 53 -33 88.5t-96 35.5q-38 0 -63 -24.5t-25 -65.5q0 -33 20 -54t52 -22q5 -44 -28.5 -75.5t-78.5 -31.5
q-52 0 -81.5 29t-29.5 73q0 77 74.5 128t159.5 51q82 0 125 -41t43 -104q0 -45 -22.5 -89.5t-64.5 -83t-110.5 -62.5t-152.5 -24q-154 0 -235.5 74.5t-81.5 178.5q0 107 94.5 181.5t272.5 75.5l1 2q-113 2 -177.5 47t-64.5 115q0 50 33 86.5t84 55t99.5 26.5t92.5 8
q98 0 163.5 -39.5t65.5 -111.5q0 -56 -38 -92.5t-85 -36.5q-41 0 -71 29.5t-19 71.5q69 15 69 83q0 39 -23 63t-60 24zM500 876l135 -120l-6 -5l-138 67l-160 -67l-4 5z" />
    <glyph glyph-name="Edieresis" unicode="&#xcb;" horiz-adv-x="707" 
d="M477 710q-60 0 -98 -59.5t-38 -123.5q0 -56 32 -98t81 -42h27l-2 -8h-16q-67 0 -122.5 -46.5t-84.5 -114.5t-29 -139q0 -198 163 -198q121 0 199.5 83t78.5 177q0 53 -33 88.5t-96 35.5q-38 0 -63 -24.5t-25 -65.5q0 -33 20 -54t52 -22q5 -44 -28.5 -75.5t-78.5 -31.5
q-52 0 -81.5 29t-29.5 73q0 77 74.5 128t159.5 51q82 0 125 -41t43 -104q0 -45 -22.5 -89.5t-64.5 -83t-110.5 -62.5t-152.5 -24q-154 0 -235.5 74.5t-81.5 178.5q0 107 94.5 181.5t272.5 75.5l1 2q-113 2 -177.5 47t-64.5 115q0 50 33 86.5t84 55t99.5 26.5t92.5 8
q98 0 163.5 -39.5t65.5 -111.5q0 -56 -38 -92.5t-85 -36.5q-41 0 -71 29.5t-19 71.5q69 15 69 83q0 39 -23 63t-60 24zM400 870q19 0 31.5 -13.5t12.5 -32.5q0 -25 -18.5 -43t-42.5 -18q-19 0 -31.5 13.5t-12.5 33.5q0 24 18.5 42t42.5 18zM598 870q19 0 31.5 -13.5
t12.5 -32.5q0 -25 -18.5 -43t-42.5 -18q-19 0 -31.5 13.5t-12.5 33.5q0 24 18.5 42t42.5 18z" />
    <glyph glyph-name="Igrave" unicode="&#xcc;" horiz-adv-x="554" 
d="M506 550l-63 -400q-13 -82 4 -112.5t78 -30.5l-1 -7h-409l1 7q26 0 45 4t32.5 15.5t21.5 22.5t15 35t10 42l9 54l52 341q7 47 34.5 80.5t67 50t73.5 24t70 9.5v1q-63 0 -179.5 49t-178.5 49q-48 0 -77 -20t-29 -58q0 -32 19.5 -47.5t46.5 -15.5q45 0 76 40
q42 -19 53.5 -53.5t-3 -66.5t-49.5 -56t-77 -24q-58 0 -103 40.5t-45 103.5q0 70 52.5 118t132.5 48q64 0 186.5 -50t180.5 -50q15 0 23.5 7.5t8.5 17.5q0 14 -12 20t-33 -5q-16 31 0.5 54.5t45.5 23.5q21 0 37.5 -13.5t16.5 -35.5q0 -20 -11 -32.5t-28 -23t-35 -25.5
t-34.5 -48.5t-24.5 -82.5zM470 822l-4 -6l-215 98q0 12 9.5 21t22.5 9t36.5 -15t71 -50.5t79.5 -56.5z" />
    <glyph glyph-name="Iacute" unicode="&#xcd;" horiz-adv-x="554" 
d="M506 550l-63 -400q-13 -82 4 -112.5t78 -30.5l-1 -7h-409l1 7q26 0 45 4t32.5 15.5t21.5 22.5t15 35t10 42l9 54l52 341q7 47 34.5 80.5t67 50t73.5 24t70 9.5v1q-63 0 -179.5 49t-178.5 49q-48 0 -77 -20t-29 -58q0 -32 19.5 -47.5t46.5 -15.5q45 0 76 40
q42 -19 53.5 -53.5t-3 -66.5t-49.5 -56t-77 -24q-58 0 -103 40.5t-45 103.5q0 70 52.5 118t132.5 48q64 0 186.5 -50t180.5 -50q15 0 23.5 7.5t8.5 17.5q0 14 -12 20t-33 -5q-16 31 0.5 54.5t45.5 23.5q21 0 37.5 -13.5t16.5 -35.5q0 -20 -11 -32.5t-28 -23t-35 -25.5
t-34.5 -48.5t-24.5 -82.5zM424 816l-3 6q40 22 98 57t86.5 50t41.5 15q23 0 23 -24z" />
    <glyph glyph-name="Icircumflex" unicode="&#xce;" horiz-adv-x="554" 
d="M468 927l133 -118q38 -11 38 -47q0 -20 -11 -32.5t-28 -23t-35 -25.5t-34.5 -48.5t-24.5 -82.5l-63 -400q-13 -82 4 -112.5t78 -30.5l-1 -7h-409l1 7q26 0 45 4t32.5 15.5t21.5 22.5t15 35t10 42l9 54l52 341q7 47 34.5 80.5t67 50t73.5 24t70 9.5v1q-63 0 -179.5 49
t-178.5 49q-48 0 -77 -20t-29 -58q0 -32 19.5 -47.5t46.5 -15.5q45 0 76 40q42 -19 53.5 -53.5t-3 -66.5t-49.5 -56t-77 -24q-58 0 -103 40.5t-45 103.5q0 70 52.5 118t132.5 48q64 0 186.5 -50t180.5 -50q15 0 23.5 7.5t8.5 17.5q0 14 -12 20t-33 -5q-15 30 -1 52.5
t41 24.5l-120 59l-160 -67l-4 5z" />
    <glyph glyph-name="Idieresis" unicode="&#xcf;" horiz-adv-x="554" 
d="M506 550l-63 -400q-13 -82 4 -112.5t78 -30.5l-1 -7h-409l1 7q26 0 45 4t32.5 15.5t21.5 22.5t15 35t10 42l9 54l52 341q7 47 34.5 80.5t67 50t73.5 24t70 9.5v1q-63 0 -179.5 49t-178.5 49q-48 0 -77 -20t-29 -58q0 -32 19.5 -47.5t46.5 -15.5q45 0 76 40
q42 -19 53.5 -53.5t-3 -66.5t-49.5 -56t-77 -24q-58 0 -103 40.5t-45 103.5q0 70 52.5 118t132.5 48q64 0 186.5 -50t180.5 -50q15 0 23.5 7.5t8.5 17.5q0 14 -12 20t-33 -5q-16 31 0.5 54.5t45.5 23.5q21 0 37.5 -13.5t16.5 -35.5q0 -20 -11 -32.5t-28 -23t-35 -25.5
t-34.5 -48.5t-24.5 -82.5zM368 921q19 0 31.5 -13.5t12.5 -32.5q0 -25 -18.5 -43t-42.5 -18q-19 0 -31.5 13.5t-12.5 33.5q0 24 18.5 42t42.5 18zM566 921q19 0 31.5 -13.5t12.5 -32.5q0 -25 -18.5 -43t-42.5 -18q-19 0 -31.5 13.5t-12.5 33.5q0 24 18.5 42t42.5 18z" />
    <glyph glyph-name="Eth" unicode="&#xd0;" horiz-adv-x="912" 
d="M173 345l1 10h101l26 165q7 47 34.5 80.5t67 50.5t74 24.5t69.5 9.5v1q-63 0 -179.5 49t-178.5 49q-48 0 -77 -20t-29 -58q0 -32 19.5 -47.5t46.5 -15.5q45 0 76 40q42 -19 53.5 -53.5t-3 -66.5t-49.5 -56t-77 -24q-58 0 -103 40.5t-45 103.5q0 70 52.5 118t132.5 48
q64 0 186.5 -50t180.5 -50q15 0 23.5 7.5t8.5 17.5q0 14 -12 20t-33 -5q-16 31 0.5 54.5t45.5 23.5q23 0 39 -13.5t16 -40.5q0 -43 -59 -62q24 3 47 3q57 0 108.5 -17.5t95 -52.5t69 -96.5t25.5 -141.5q0 -46 -8 -94t-28 -99t-50 -95.5t-76.5 -80.5t-105 -56t-139 -20
t-174.5 25l1 7q90 -16 160 15t110 87.5t66 134t35 144.5t9 129q0 101 -29 152t-94 51q-43 0 -64.5 -29t-33.5 -111l-31 -195h114l-1 -10h-114l-54 -345h-304l1 7q26 0 45 4t32.5 15.5t21.5 22.5t15 35t10 42l9 54l25 165h-101z" />
    <glyph glyph-name="Ntilde" unicode="&#xd1;" horiz-adv-x="1227" 
d="M523 225l46 281q10 49 5.5 112.5t-27.5 85.5q65 -20 170 -15q-45 7 -135.5 51t-151.5 44q-48 0 -77 -20t-29 -58q0 -32 19.5 -47.5t46.5 -15.5q45 0 76 40q55 -25 58.5 -74t-37 -87.5t-98.5 -38.5t-102.5 40.5t-44.5 104.5q0 69 52.5 117t131.5 48q52 0 112.5 -25
t116 -50t96.5 -25q42 0 42 24q0 15 -12 21t-33 -5q-16 31 0.5 54.5t46.5 23.5q20 0 36.5 -13t16.5 -41q0 -56 -67 -69l290 -415l50 315q44 278 208 278q53 0 76 -29t23 -66q0 -47 -32 -75t-70 -28q-40 0 -54 38q31 13 31 52q0 22 -13 37.5t-36 15.5q-26 0 -47.5 -21
t-35.5 -55t-22.5 -65.5t-13.5 -63.5l-100 -640l-441 625l-59 -364q-15 -93 -47.5 -159t-75 -98.5t-83 -46t-84.5 -13.5q-112 0 -178.5 56t-66.5 143q0 84 61.5 137t141.5 53q78 0 139 -43t61 -115q0 -52 -36 -87.5t-94 -35.5q-45 0 -73 31.5t-15 75.5q36 1 61 28t25 66
q0 36 -25.5 54t-57.5 18q-56 0 -101.5 -52t-45.5 -128q0 -77 50 -134t154 -57q112 0 183 79t95 226zM711 874l-8 3q28 46 50 64t51 18q39 0 96 -43.5t95 -43.5q24 0 43 14.5t43 52.5l8 -3q-27 -44 -48 -59t-46 -15q-27 0 -54 13.5t-45 30t-44 30t-51 13.5q-23 0 -43 -15.5
t-47 -59.5z" />
    <glyph glyph-name="Ograve" unicode="&#xd2;" horiz-adv-x="868" 
d="M50 239q0 244 188 377q29 70 104.5 114t190.5 44q87 0 156 -26.5t111.5 -72t65 -102t22.5 -120.5q0 -109 -43 -208t-113 -169t-163 -111t-190 -41q-145 0 -237 89.5t-92 225.5zM493 726l4 -4q-71 -25 -124.5 -107.5t-85.5 -198.5q41 -37 97 -37q43 0 68 24.5t25 65.5
q0 33 -20 54t-52 22q-5 44 28.5 75.5t78.5 31.5q52 0 81.5 -29t29.5 -73q0 -77 -74.5 -128t-156.5 -51q-64 0 -108 33q-37 -136 -37 -272q0 -197 109 -197q78 0 157 101.5t126.5 242t47.5 258.5q0 42 -7 78t-24.5 72t-54 57t-89.5 21q-71 0 -143.5 -35t-106.5 -98
q92 58 231 94zM541 825l-4 -6l-215 98q0 12 9.5 21t22.5 9t36.5 -15t71 -50.5t79.5 -56.5z" />
    <glyph glyph-name="Oacute" unicode="&#xd3;" horiz-adv-x="868" 
d="M50 239q0 244 188 377q29 70 104.5 114t190.5 44q87 0 156 -26.5t111.5 -72t65 -102t22.5 -120.5q0 -109 -43 -208t-113 -169t-163 -111t-190 -41q-145 0 -237 89.5t-92 225.5zM493 726l4 -4q-71 -25 -124.5 -107.5t-85.5 -198.5q41 -37 97 -37q43 0 68 24.5t25 65.5
q0 33 -20 54t-52 22q-5 44 28.5 75.5t78.5 31.5q52 0 81.5 -29t29.5 -73q0 -77 -74.5 -128t-156.5 -51q-64 0 -108 33q-37 -136 -37 -272q0 -197 109 -197q78 0 157 101.5t126.5 242t47.5 258.5q0 42 -7 78t-24.5 72t-54 57t-89.5 21q-71 0 -143.5 -35t-106.5 -98
q92 58 231 94zM495 819l-3 6q40 22 98 57t86.5 50t41.5 15q23 0 23 -24z" />
    <glyph glyph-name="Ocircumflex" unicode="&#xd4;" horiz-adv-x="868" 
d="M50 239q0 244 188 377q29 70 104.5 114t190.5 44q87 0 156 -26.5t111.5 -72t65 -102t22.5 -120.5q0 -109 -43 -208t-113 -169t-163 -111t-190 -41q-145 0 -237 89.5t-92 225.5zM493 726l4 -4q-71 -25 -124.5 -107.5t-85.5 -198.5q41 -37 97 -37q43 0 68 24.5t25 65.5
q0 33 -20 54t-52 22q-5 44 28.5 75.5t78.5 31.5q52 0 81.5 -29t29.5 -73q0 -77 -74.5 -128t-156.5 -51q-64 0 -108 33q-37 -136 -37 -272q0 -197 109 -197q78 0 157 101.5t126.5 242t47.5 258.5q0 42 -7 78t-24.5 72t-54 57t-89.5 21q-71 0 -143.5 -35t-106.5 -98
q92 58 231 94zM539 930l135 -120l-6 -5l-138 67l-160 -67l-4 5z" />
    <glyph glyph-name="Otilde" unicode="&#xd5;" horiz-adv-x="868" 
d="M50 239q0 244 188 377q29 70 104.5 114t190.5 44q87 0 156 -26.5t111.5 -72t65 -102t22.5 -120.5q0 -109 -43 -208t-113 -169t-163 -111t-190 -41q-145 0 -237 89.5t-92 225.5zM493 726l4 -4q-71 -25 -124.5 -107.5t-85.5 -198.5q41 -37 97 -37q43 0 68 24.5t25 65.5
q0 33 -20 54t-52 22q-5 44 28.5 75.5t78.5 31.5q52 0 81.5 -29t29.5 -73q0 -77 -74.5 -128t-156.5 -51q-64 0 -108 33q-37 -136 -37 -272q0 -197 109 -197q78 0 157 101.5t126.5 242t47.5 258.5q0 42 -7 78t-24.5 72t-54 57t-89.5 21q-71 0 -143.5 -35t-106.5 -98
q92 58 231 94zM337 837l-8 3q28 46 50 64t51 18q39 0 96 -43.5t95 -43.5q24 0 43 14.5t43 52.5l8 -3q-27 -44 -48 -59t-46 -15q-34 0 -66.5 21.5t-64 43.5t-63.5 22q-23 0 -43 -15.5t-47 -59.5z" />
    <glyph glyph-name="Odieresis" unicode="&#xd6;" horiz-adv-x="868" 
d="M50 239q0 244 188 377q29 70 104.5 114t190.5 44q87 0 156 -26.5t111.5 -72t65 -102t22.5 -120.5q0 -109 -43 -208t-113 -169t-163 -111t-190 -41q-145 0 -237 89.5t-92 225.5zM493 726l4 -4q-71 -25 -124.5 -107.5t-85.5 -198.5q41 -37 97 -37q43 0 68 24.5t25 65.5
q0 33 -20 54t-52 22q-5 44 28.5 75.5t78.5 31.5q52 0 81.5 -29t29.5 -73q0 -77 -74.5 -128t-156.5 -51q-64 0 -108 33q-37 -136 -37 -272q0 -197 109 -197q78 0 157 101.5t126.5 242t47.5 258.5q0 42 -7 78t-24.5 72t-54 57t-89.5 21q-71 0 -143.5 -35t-106.5 -98
q92 58 231 94zM439 924q19 0 31.5 -13.5t12.5 -32.5q0 -25 -18.5 -43t-42.5 -18q-19 0 -31.5 13.5t-12.5 33.5q0 24 18.5 42t42.5 18zM637 924q19 0 31.5 -13.5t12.5 -32.5q0 -25 -18.5 -43t-42.5 -18q-19 0 -31.5 13.5t-12.5 33.5q0 24 18.5 42t42.5 18z" />
    <glyph glyph-name="multiply" unicode="&#xd7;" horiz-adv-x="405" 
d="M372 141l-124 152l-171 -152l-6 7l171 152l-123 152l8 7l123 -152l172 152l6 -7l-172 -152l124 -152z" />
    <glyph glyph-name="Oslash" unicode="&#xd8;" horiz-adv-x="868" 
d="M102 -85l59 82q-111 89 -111 242q0 244 188 377q29 70 104.5 114t190.5 44q91 0 166 -31l55 76l7 -5l-54 -75q88 -40 134.5 -117t46.5 -169q0 -109 -43 -208t-113 -169t-163 -111t-190 -41q-123 0 -212 67l-58 -81zM623 550q0 -64 -53 -110.5t-124 -62.5l-198 -275
q9 -167 108 -167q78 0 157 101.5t126.5 242t47.5 258.5q0 83 -26 138l-52 -72q14 -25 14 -53zM493 726l4 -4q-71 -25 -124.5 -107.5t-85.5 -198.5q41 -37 97 -37q43 0 68 24.5t25 65.5q0 33 -20 54t-52 22q-5 44 28.5 75.5t78.5 31.5q61 0 92 -41l53 73q-43 81 -145 81
q-71 0 -143.5 -35t-106.5 -98q92 58 231 94zM392 371q-64 0 -108 33q-37 -136 -37 -272v-16l186 258q-21 -3 -41 -3z" />
    <glyph glyph-name="Ugrave" unicode="&#xd9;" horiz-adv-x="968" 
d="M258 249l43 272q7 47 35 80.5t67 50t73 24t70 9.5v1q-63 0 -179.5 49t-178.5 49q-48 0 -77 -20t-29 -58q0 -32 19.5 -47.5t46.5 -15.5q45 0 76 40q42 -19 53.5 -53.5t-3 -66.5t-49.5 -56t-77 -24q-58 0 -103 40.5t-45 103.5q0 70 52.5 118t132.5 48q64 0 186.5 -50
t180.5 -50q15 0 23.5 7.5t8.5 17.5q0 14 -12 20t-33 -5q-16 31 0.5 54.5t45.5 23.5q21 0 37.5 -13.5t16.5 -35.5q0 -20 -11 -32.5t-28 -23t-35 -25.5t-34.5 -48.5t-24.5 -82.5l-42 -268q-8 -47 -11.5 -81.5t-2.5 -81.5t10.5 -76.5t34.5 -51t65 -21.5q93 0 160 73.5t87 194.5
l27 165q7 42 10 69.5t5 65.5t-4.5 62t-19 47.5t-37 34.5t-60.5 11l1 7h319l-1 -7q-36 0 -65 -11t-49.5 -35t-35 -49t-25.5 -65.5t-17 -71t-14 -77.5l-23 -146q-21 -133 -96 -207.5t-202 -74.5q-150 0 -218 70t-44 223zM712 797l-4 -6l-215 98q0 12 9.5 21t22.5 9t36.5 -15
t71 -50.5t79.5 -56.5z" />
    <glyph glyph-name="Uacute" unicode="&#xda;" horiz-adv-x="968" 
d="M258 249l43 272q7 47 35 80.5t67 50t73 24t70 9.5v1q-63 0 -179.5 49t-178.5 49q-48 0 -77 -20t-29 -58q0 -32 19.5 -47.5t46.5 -15.5q45 0 76 40q42 -19 53.5 -53.5t-3 -66.5t-49.5 -56t-77 -24q-58 0 -103 40.5t-45 103.5q0 70 52.5 118t132.5 48q64 0 186.5 -50
t180.5 -50q15 0 23.5 7.5t8.5 17.5q0 14 -12 20t-33 -5q-16 31 0.5 54.5t45.5 23.5q21 0 37.5 -13.5t16.5 -35.5q0 -20 -11 -32.5t-28 -23t-35 -25.5t-34.5 -48.5t-24.5 -82.5l-42 -268q-8 -47 -11.5 -81.5t-2.5 -81.5t10.5 -76.5t34.5 -51t65 -21.5q93 0 160 73.5t87 194.5
l27 165q7 42 10 69.5t5 65.5t-4.5 62t-19 47.5t-37 34.5t-60.5 11l1 7h319l-1 -7q-36 0 -65 -11t-49.5 -35t-35 -49t-25.5 -65.5t-17 -71t-14 -77.5l-23 -146q-21 -133 -96 -207.5t-202 -74.5q-150 0 -218 70t-44 223zM666 791l-3 6q40 22 98 57t86.5 50t41.5 15
q23 0 23 -24z" />
    <glyph glyph-name="Ucircumflex" unicode="&#xdb;" horiz-adv-x="968" 
d="M710 902l135 -120l-6 -5l-138 67l-92 -39q30 -13 30 -43q0 -20 -11 -32.5t-28 -23t-35 -25.5t-34.5 -48.5t-24.5 -82.5l-42 -268q-8 -47 -11.5 -81.5t-2.5 -81.5t10.5 -76.5t34.5 -51t65 -21.5q93 0 160 73.5t87 194.5l27 165q7 42 10 69.5t5 65.5t-4.5 62t-19 47.5
t-37 34.5t-60.5 11l1 7h319l-1 -7q-36 0 -65 -11t-49.5 -35t-35 -49t-25.5 -65.5t-17 -71t-14 -77.5l-23 -146q-21 -133 -96 -207.5t-202 -74.5q-150 0 -218 70t-44 223l43 272q7 47 35 80.5t67 50t73 24t70 9.5v1q-63 0 -179.5 49t-178.5 49q-48 0 -77 -20t-29 -58
q0 -32 19.5 -47.5t46.5 -15.5q45 0 76 40q42 -19 53.5 -53.5t-3 -66.5t-49.5 -56t-77 -24q-58 0 -103 40.5t-45 103.5q0 70 52.5 118t132.5 48q64 0 186.5 -50t180.5 -50q15 0 23.5 7.5t8.5 17.5q0 14 -12 20t-33 -5q-14 30 -1 52t40 25z" />
    <glyph glyph-name="Udieresis" unicode="&#xdc;" horiz-adv-x="968" 
d="M610 896q19 0 31.5 -13.5t12.5 -32.5q0 -36 -31 -53q16 -14 16 -35q0 -20 -11 -32.5t-28 -23t-35 -25.5t-34.5 -48.5t-24.5 -82.5l-42 -268q-8 -47 -11.5 -81.5t-2.5 -81.5t10.5 -76.5t34.5 -51t65 -21.5q93 0 160 73.5t87 194.5l27 165q7 42 10 69.5t5 65.5t-4.5 62
t-19 47.5t-37 34.5t-60.5 11l1 7h319l-1 -7q-36 0 -65 -11t-49.5 -35t-35 -49t-25.5 -65.5t-17 -71t-14 -77.5l-23 -146q-21 -133 -96 -207.5t-202 -74.5q-150 0 -218 70t-44 223l43 272q7 47 35 80.5t67 50t73 24t70 9.5v1q-63 0 -179.5 49t-178.5 49q-48 0 -77 -20
t-29 -58q0 -32 19.5 -47.5t46.5 -15.5q45 0 76 40q42 -19 53.5 -53.5t-3 -66.5t-49.5 -56t-77 -24q-58 0 -103 40.5t-45 103.5q0 70 52.5 118t132.5 48q64 0 186.5 -50t180.5 -50q15 0 23.5 7.5t8.5 17.5q0 14 -12 20t-33 -5q-12 25 -5.5 43.5t25.5 28.5q-10 13 -10 31
q0 24 18.5 42t42.5 18zM808 896q19 0 31.5 -13.5t12.5 -32.5q0 -25 -18.5 -43t-42.5 -18q-19 0 -31.5 13.5t-12.5 33.5q0 24 18.5 42t42.5 18z" />
    <glyph glyph-name="Yacute" unicode="&#xdd;" horiz-adv-x="544" 
d="M849 827q-122 0 -234 -201l-174 -313l-21 -133q-5 -28 -6.5 -41.5t-4 -34.5t-1.5 -30.5t4 -23.5t9.5 -19.5t16.5 -12.5t24.5 -9t34.5 -2l-1 -7h-410l1 7q31 0 52.5 8t34 18t22 36.5t13.5 46.5t11 64l15 101q-12 96 -38.5 182.5t-66 146t-80.5 59.5q-19 0 -47 -23l-3 5
q37 32 86.5 54t97.5 22q68 0 118.5 -41.5t74.5 -107t32.5 -146.5t-7.5 -161l202 360q121 213 246 213q69 0 106.5 -38t37.5 -98q0 -67 -43 -116.5t-110 -49.5q-53 0 -85.5 30t-32.5 73q0 30 17 57.5t56 37.5q19 -42 62 -42q30 0 48 19.5t18 48.5q0 61 -75 61zM434 759l-3 6
q40 22 98 57t86.5 50t41.5 15q23 0 23 -24z" />
    <glyph glyph-name="Thorn" unicode="&#xde;" horiz-adv-x="694" 
d="M327 146l1 8h8q75 0 114.5 46.5t56.5 150.5q16 103 -8.5 149.5t-97.5 46.5h-21l-64 -401q-8 -47 -6 -78t22.5 -46t66.5 -15l-1 -7h-408l1 7q31 0 52 8t33.5 18t22 36.5t13.5 46.5t11 64l53 340q6 38 8.5 55.5t3.5 42t-3.5 35t-14.5 22t-27.5 15t-43.5 3.5l1 7h409l-1 -7
q-66 0 -90 -30t-37 -109h46q163 0 236.5 -48.5t56.5 -154.5q-8 -49 -37 -86.5t-68 -59.5t-89.5 -36t-95 -18.5t-91.5 -4.5h-12z" />
    <glyph glyph-name="germandbls" unicode="&#xdf;" horiz-adv-x="762" 
d="M509 1q53 0 81 21.5t28 52.5q0 29 -27 53t-65 43t-76 39.5t-65 52t-27 71.5q0 38 21.5 71t52.5 58t61.5 50t52 57.5t21.5 70.5q0 62 -50.5 96t-119.5 34q-73 0 -128 -35.5t-55 -99.5q0 -42 26.5 -71t81.5 -38l-82 -514q-10 -65 -34 -120.5t-70.5 -96t-105.5 -40.5
q-63 0 -99 30t-36 78q0 52 33.5 78.5t79.5 26.5q42 0 71 -27t24 -75q-27 1 -42.5 -11t-15.5 -35q0 -17 9.5 -27.5t27.5 -10.5q60 0 60 86q0 28 -13.5 53.5t-29 42t-26 42.5t-5.5 56l71 452h-82l1 10h84q1 29 6 62q13 88 80 140.5t165 52.5q84 0 134 -38t50 -96
q0 -37 -33.5 -100t-33.5 -98q0 -30 25.5 -53t62 -39.5t72.5 -36t61.5 -53t25.5 -79.5q0 -83 -73 -138.5t-172 -55.5q-38 0 -71 4.5t-65 15.5t-50.5 32.5t-18.5 52.5q0 39 26.5 67.5t66.5 28.5q32 0 54 -19.5t18 -53.5q-21 -7 -34 -25.5t-13 -40.5q0 -54 84 -54z" />
    <glyph glyph-name="agrave" unicode="&#xe0;" 
d="M378 524q-39 0 -76.5 -65.5t-59 -157.5t-21.5 -175q0 -79 35 -79q44 0 88 93t65 210l11 61q12 61 3 87t-45 26zM616 528l-53 -310q-34 -194 20 -215l-3 -3q-32 -7 -71 -7q-73 0 -112 37.5t-18 123.5l37 154l-4 1q-45 -176 -101 -246t-129 -70t-107.5 53.5t-34.5 131.5
q0 80 42.5 161.5t119.5 137t164 55.5q30 0 69.5 -12t66 -21.5t58 -4t56.5 33.5zM411 577l-4 -6l-207 151q0 12 9.5 21t22.5 9q8 0 20.5 -8.5t32 -28t35 -36.5t44.5 -50t47 -52z" />
    <glyph glyph-name="aacute" unicode="&#xe1;" 
d="M378 524q-39 0 -76.5 -65.5t-59 -157.5t-21.5 -175q0 -79 35 -79q44 0 88 93t65 210l11 61q12 61 3 87t-45 26zM616 528l-53 -310q-34 -194 20 -215l-3 -3q-32 -7 -71 -7q-73 0 -112 37.5t-18 123.5l37 154l-4 1q-45 -176 -101 -246t-129 -70t-107.5 53.5t-34.5 131.5
q0 80 42.5 161.5t119.5 137t164 55.5q30 0 69.5 -12t66 -21.5t58 -4t56.5 33.5zM354 571l-3 6q27 22 65 53t60 49t46.5 37t40 27.5t23.5 8.5q23 0 23 -24z" />
    <glyph glyph-name="acircumflex" unicode="&#xe2;" 
d="M378 524q-39 0 -76.5 -65.5t-59 -157.5t-21.5 -175q0 -79 35 -79q44 0 88 93t65 210l11 61q12 61 3 87t-45 26zM616 528l-53 -310q-34 -194 20 -215l-3 -3q-32 -7 -71 -7q-73 0 -112 37.5t-18 123.5l37 154l-4 1q-45 -176 -101 -246t-129 -70t-107.5 53.5t-34.5 131.5
q0 80 42.5 161.5t119.5 137t164 55.5q30 0 69.5 -12t66 -21.5t58 -4t56.5 33.5zM414 745l127 -169l-6 -5l-132 107l-166 -107l-4 5z" />
    <glyph glyph-name="atilde" unicode="&#xe3;" 
d="M378 524q-39 0 -76.5 -65.5t-59 -157.5t-21.5 -175q0 -79 35 -79q44 0 88 93t65 210l11 61q12 61 3 87t-45 26zM616 528l-53 -310q-34 -194 20 -215l-3 -3q-32 -7 -71 -7q-73 0 -112 37.5t-18 123.5l37 154l-4 1q-45 -176 -101 -246t-129 -70t-107.5 53.5t-34.5 131.5
q0 80 42.5 161.5t119.5 137t164 55.5q30 0 69.5 -12t66 -21.5t58 -4t56.5 33.5zM209 589l-8 3q28 46 50 64t51 18q39 0 96 -43.5t95 -43.5q24 0 43 14.5t43 52.5l8 -3q-27 -44 -48 -59t-46 -15q-34 0 -66.5 21.5t-64 43.5t-63.5 22q-23 0 -43 -15.5t-47 -59.5z" />
    <glyph glyph-name="adieresis" unicode="&#xe4;" 
d="M378 524q-39 0 -76.5 -65.5t-59 -157.5t-21.5 -175q0 -79 35 -79q44 0 88 93t65 210l11 61q12 61 3 87t-45 26zM616 528l-53 -310q-34 -194 20 -215l-3 -3q-32 -7 -71 -7q-73 0 -112 37.5t-18 123.5l37 154l-4 1q-45 -176 -101 -246t-129 -70t-107.5 53.5t-34.5 131.5
q0 80 42.5 161.5t119.5 137t164 55.5q30 0 69.5 -12t66 -21.5t58 -4t56.5 33.5zM304 683q19 0 31.5 -13.5t12.5 -32.5q0 -25 -18.5 -43t-42.5 -18q-19 0 -31.5 13.5t-12.5 33.5q0 24 18.5 42t42.5 18zM502 683q19 0 31.5 -13.5t12.5 -32.5q0 -25 -18.5 -43t-42.5 -18
q-19 0 -31.5 13.5t-12.5 33.5q0 24 18.5 42t42.5 18z" />
    <glyph glyph-name="aring" unicode="&#xe5;" 
d="M378 524q-39 0 -76.5 -65.5t-59 -157.5t-21.5 -175q0 -79 35 -79q44 0 88 93t65 210l11 61q12 61 3 87t-45 26zM616 528l-53 -310q-34 -194 20 -215l-3 -3q-32 -7 -71 -7q-73 0 -112 37.5t-18 123.5l37 154l-4 1q-45 -176 -101 -246t-129 -70t-107.5 53.5t-34.5 131.5
q0 80 42.5 161.5t119.5 137t164 55.5q30 0 69.5 -12t66 -21.5t58 -4t56.5 33.5zM416 757q38 0 63 -24t25 -60q0 -44 -36 -76.5t-83 -32.5q-38 0 -63 24.5t-25 60.5q0 44 36 76t83 32zM416 747q-43 0 -76 -29t-33 -69q0 -32 22 -53.5t56 -21.5q43 0 76 29.5t33 69.5
q0 31 -22.5 52.5t-55.5 21.5z" />
    <glyph glyph-name="ae" unicode="&#xe6;" horiz-adv-x="906" 
d="M366 532q39 0 96 -31t70 -34q86 65 197 65q33 0 63.5 -4.5t61 -16t49 -35t18.5 -56.5q0 -65 -89.5 -105t-248.5 -2q-1 -4 -1 -11q-5 -87 30 -143t113 -56q93 0 154 71l6 -3q-49 -80 -124.5 -129t-160.5 -49q-91 0 -144.5 57t-53.5 157q0 49 16 100l-6 2
q-45 -176 -101 -246t-129 -70t-107.5 53.5t-34.5 131.5q0 80 42.5 161.5t119.5 137t164 55.5zM378 524q-39 0 -76.5 -65.5t-59 -157.5t-21.5 -175q0 -79 35 -79q44 0 88 93t65 210l11 61q12 61 3 87t-45 26zM720 524q-51 0 -89 -62t-48 -141q92 -6 143.5 37t51.5 101
q0 29 -16 47t-42 18z" />
    <glyph glyph-name="ccedilla" unicode="&#xe7;" horiz-adv-x="553" 
d="M147 -172l9 6q20 -23 58 -23q37 0 57.5 17t20.5 40t-21.5 40.5t-60.5 19.5q20 37 31 65q-87 2 -144 56.5t-57 155.5q0 132 97.5 229.5t238.5 97.5q30 0 60.5 -5.5t61.5 -18.5t50.5 -39t19.5 -61q0 -44 -32.5 -78t-81.5 -34q-37 0 -60.5 23t-18.5 65q29 8 45 29t16 46
q0 27 -18 46t-50 19q-46 0 -79.5 -45t-47 -98.5t-13.5 -101.5q0 -86 40 -131t103 -45q93 0 155 71l6 -3q-51 -84 -127 -130t-155 -48q-10 -30 -26 -57q37 -4 57.5 -22.5t20.5 -43.5q0 -28 -24 -48.5t-65 -20.5q-46 0 -66 27z" />
    <glyph glyph-name="egrave" unicode="&#xe8;" horiz-adv-x="553" 
d="M237 318q94 -5 141 37.5t47 103.5q0 29 -16 47t-42 18q-54 0 -93.5 -70t-44.5 -152q-5 -87 30 -143t113 -56q93 0 154 71l6 -3q-49 -80 -124.5 -129t-160.5 -49q-92 0 -149.5 57.5t-57.5 156.5q0 130 98 227.5t238 97.5q33 0 63.5 -4.5t61 -16t49 -35t18.5 -56.5
q0 -30 -17.5 -57t-56.5 -48t-102.5 -22t-155.5 21zM385 577l-4 -6l-207 151q0 12 9.5 21t22.5 9q8 0 20.5 -8.5t32 -28t35 -36.5t44.5 -50t47 -52z" />
    <glyph glyph-name="eacute" unicode="&#xe9;" horiz-adv-x="553" 
d="M237 318q94 -5 141 37.5t47 103.5q0 29 -16 47t-42 18q-54 0 -93.5 -70t-44.5 -152q-5 -87 30 -143t113 -56q93 0 154 71l6 -3q-49 -80 -124.5 -129t-160.5 -49q-92 0 -149.5 57.5t-57.5 156.5q0 130 98 227.5t238 97.5q33 0 63.5 -4.5t61 -16t49 -35t18.5 -56.5
q0 -30 -17.5 -57t-56.5 -48t-102.5 -22t-155.5 21zM328 571l-3 6q27 22 65 53t60 49t46.5 37t40 27.5t23.5 8.5q23 0 23 -24z" />
    <glyph glyph-name="ecircumflex" unicode="&#xea;" horiz-adv-x="553" 
d="M237 318q94 -5 141 37.5t47 103.5q0 29 -16 47t-42 18q-54 0 -93.5 -70t-44.5 -152q-5 -87 30 -143t113 -56q93 0 154 71l6 -3q-49 -80 -124.5 -129t-160.5 -49q-92 0 -149.5 57.5t-57.5 156.5q0 130 98 227.5t238 97.5q33 0 63.5 -4.5t61 -16t49 -35t18.5 -56.5
q0 -30 -17.5 -57t-56.5 -48t-102.5 -22t-155.5 21zM388 745l127 -169l-6 -5l-132 107l-166 -107l-4 5z" />
    <glyph glyph-name="edieresis" unicode="&#xeb;" horiz-adv-x="553" 
d="M237 318q94 -5 141 37.5t47 103.5q0 29 -16 47t-42 18q-54 0 -93.5 -70t-44.5 -152q-5 -87 30 -143t113 -56q93 0 154 71l6 -3q-49 -80 -124.5 -129t-160.5 -49q-92 0 -149.5 57.5t-57.5 156.5q0 130 98 227.5t238 97.5q33 0 63.5 -4.5t61 -16t49 -35t18.5 -56.5
q0 -30 -17.5 -57t-56.5 -48t-102.5 -22t-155.5 21zM476 683q19 0 31.5 -13.5t12.5 -32.5q0 -25 -18.5 -43t-42.5 -18q-19 0 -31.5 13.5t-12.5 33.5q0 24 18.5 42t42.5 18zM278 683q19 0 31.5 -13.5t12.5 -32.5q0 -25 -18.5 -43t-42.5 -18q-19 0 -31.5 13.5t-12.5 33.5
q0 24 18.5 42t42.5 18z" />
    <glyph glyph-name="igrave" unicode="&#xec;" horiz-adv-x="280" 
d="M49 149l52 315q2 16 -9.5 24t-31.5 2l-3 3q30 14 75 26.5t78 12.5q44 0 59 -19.5t7 -69.5l-38 -230q-8 -44 -10.5 -63t-6.5 -59t1 -61t18 -27l-3 -3q-40 -8 -73 -8q-142 0 -115 157zM246 577l-4 -6l-207 151q0 12 9.5 21t22.5 9q8 0 20.5 -8.5t32 -28t35 -36.5t44.5 -50
t47 -52z" />
    <glyph glyph-name="iacute" unicode="&#xed;" horiz-adv-x="280" 
d="M49 149l52 315q2 16 -9.5 24t-31.5 2l-3 3q30 14 75 26.5t78 12.5q44 0 59 -19.5t7 -69.5l-38 -230q-8 -44 -10.5 -63t-6.5 -59t1 -61t18 -27l-3 -3q-40 -8 -73 -8q-142 0 -115 157zM87 571l-3 6q27 22 65 53t60 49t46.5 37t40 27.5t23.5 8.5q23 0 23 -24z" />
    <glyph glyph-name="icircumflex" unicode="&#xee;" horiz-adv-x="280" 
d="M49 149l52 315q2 16 -9.5 24t-31.5 2l-3 3q30 14 75 26.5t78 12.5q44 0 59 -19.5t7 -69.5l-38 -230q-8 -44 -10.5 -63t-6.5 -59t1 -61t18 -27l-3 -3q-40 -8 -73 -8q-142 0 -115 157zM225 745l127 -169l-6 -5l-132 107l-166 -107l-4 5z" />
    <glyph glyph-name="idieresis" unicode="&#xef;" horiz-adv-x="280" 
d="M49 149l52 315q2 16 -9.5 24t-31.5 2l-3 3q30 14 75 26.5t78 12.5q44 0 59 -19.5t7 -69.5l-38 -230q-8 -44 -10.5 -63t-6.5 -59t1 -61t18 -27l-3 -3q-40 -8 -73 -8q-142 0 -115 157zM117 683q19 0 31.5 -13.5t12.5 -32.5q0 -25 -18.5 -43t-42.5 -18q-19 0 -31.5 13.5
t-12.5 33.5q0 24 18.5 42t42.5 18zM315 683q19 0 31.5 -13.5t12.5 -32.5q0 -25 -18.5 -43t-42.5 -18q-19 0 -31.5 13.5t-12.5 33.5q0 24 18.5 42t42.5 18z" />
    <glyph glyph-name="eth" unicode="&#xf0;" horiz-adv-x="612" 
d="M368 531q48 0 86 -30q9 96 -7 157l-115 -62l-3 9l115 62q-24 80 -104 110l3 8q93 -25 158 -87l128 70l2 -9l-123 -67q113 -115 113 -300q0 -57 -13 -113.5t-41 -108.5t-67 -91.5t-95 -63t-122 -23.5q-108 0 -175.5 63.5t-67.5 163.5q0 124 98 218t230 94zM284 0
q39 0 69 49t45 121.5t22 136.5t7 112q0 104 -60 104q-39 0 -69 -49.5t-45 -122t-22.5 -137t-7.5 -110.5q0 -104 61 -104z" />
    <glyph glyph-name="ntilde" unicode="&#xf1;" 
d="M52 149l56 315q2 16 -9.5 24t-31.5 2l-3 3q30 14 75 26.5t78 12.5q44 0 60 -19.5t6 -69.5l-55 -226l4 -1q83 316 257 316q36 0 60 -12t34.5 -28.5t14 -41.5t2 -45t-5.5 -45l-24 -142q-34 -194 20 -215l-3 -3q-38 -8 -73 -8q-158 0 -132 162l40 248q6 35 3 55.5t-20 20.5
q-42 0 -88 -75.5t-74 -188.5q-47 -193 -11 -211l-3 -3q-51 -8 -84 -8q-63 0 -86 34.5t-7 122.5zM199 589l-8 3q28 46 50 64t51 18q39 0 96 -43.5t95 -43.5q24 0 43 14.5t43 52.5l8 -3q-27 -44 -48 -59t-46 -15q-34 0 -66.5 21.5t-64 43.5t-63.5 22q-23 0 -43 -15.5
t-47 -59.5z" />
    <glyph glyph-name="ograve" unicode="&#xf2;" horiz-adv-x="605" 
d="M367 532q107 0 175 -63t68 -162q0 -125 -97.5 -219.5t-230.5 -94.5q-107 0 -174.5 63.5t-67.5 162.5q0 128 96 220.5t231 92.5zM283 1q39 5 68.5 53.5t45 118t22.5 133t7 114.5q0 104 -60 104q-38 0 -68 -50t-45 -122.5t-22.5 -137t-7.5 -110.5q0 -103 60 -103zM399 577
l-4 -6l-207 151q0 12 9.5 21t22.5 9q8 0 20.5 -8.5t32 -28t35 -36.5t44.5 -50t47 -52z" />
    <glyph glyph-name="oacute" unicode="&#xf3;" horiz-adv-x="605" 
d="M367 532q107 0 175 -63t68 -162q0 -125 -97.5 -219.5t-230.5 -94.5q-107 0 -174.5 63.5t-67.5 162.5q0 128 96 220.5t231 92.5zM283 1q39 5 68.5 53.5t45 118t22.5 133t7 114.5q0 104 -60 104q-38 0 -68 -50t-45 -122.5t-22.5 -137t-7.5 -110.5q0 -103 60 -103zM342 571
l-3 6q27 22 65 53t60 49t46.5 37t40 27.5t23.5 8.5q23 0 23 -24z" />
    <glyph glyph-name="ocircumflex" unicode="&#xf4;" horiz-adv-x="605" 
d="M367 532q107 0 175 -63t68 -162q0 -125 -97.5 -219.5t-230.5 -94.5q-107 0 -174.5 63.5t-67.5 162.5q0 128 96 220.5t231 92.5zM283 1q39 5 68.5 53.5t45 118t22.5 133t7 114.5q0 104 -60 104q-38 0 -68 -50t-45 -122.5t-22.5 -137t-7.5 -110.5q0 -103 60 -103zM402 745
l127 -169l-6 -5l-132 107l-166 -107l-4 5z" />
    <glyph glyph-name="otilde" unicode="&#xf5;" horiz-adv-x="605" 
d="M367 532q107 0 175 -63t68 -162q0 -125 -97.5 -219.5t-230.5 -94.5q-107 0 -174.5 63.5t-67.5 162.5q0 128 96 220.5t231 92.5zM283 1q39 5 68.5 53.5t45 118t22.5 133t7 114.5q0 104 -60 104q-38 0 -68 -50t-45 -122.5t-22.5 -137t-7.5 -110.5q0 -103 60 -103zM197 589
l-8 3q28 46 50 64t51 18q39 0 96 -43.5t95 -43.5q24 0 43 14.5t43 52.5l8 -3q-27 -44 -48 -59t-46 -15q-34 0 -66.5 21.5t-64 43.5t-63.5 22q-23 0 -43 -15.5t-47 -59.5z" />
    <glyph glyph-name="odieresis" unicode="&#xf6;" horiz-adv-x="605" 
d="M367 532q107 0 175 -63t68 -162q0 -125 -97.5 -219.5t-230.5 -94.5q-107 0 -174.5 63.5t-67.5 162.5q0 128 96 220.5t231 92.5zM283 1q39 5 68.5 53.5t45 118t22.5 133t7 114.5q0 104 -60 104q-38 0 -68 -50t-45 -122.5t-22.5 -137t-7.5 -110.5q0 -103 60 -103zM292 683
q19 0 31.5 -13.5t12.5 -32.5q0 -25 -18.5 -43t-42.5 -18q-19 0 -31.5 13.5t-12.5 33.5q0 24 18.5 42t42.5 18zM490 683q19 0 31.5 -13.5t12.5 -32.5q0 -25 -18.5 -43t-42.5 -18q-19 0 -31.5 13.5t-12.5 33.5q0 24 18.5 42t42.5 18z" />
    <glyph glyph-name="divide" unicode="&#xf7;" horiz-adv-x="524" 
d="M97 305h427l-2 -10h-427zM345 520q16 0 27.5 -12.5t11.5 -29.5q0 -22 -17 -38t-38 -16q-17 0 -28.5 12t-11.5 29q0 22 17 38.5t39 16.5zM290 176q17 0 28 -12t11 -30q0 -22 -16.5 -38t-37.5 -16q-17 0 -28.5 12t-11.5 29q0 22 17 38.5t38 16.5z" />
    <glyph glyph-name="oslash" unicode="&#xf8;" horiz-adv-x="612" 
d="M379 532q71 0 126 -29l42 59l7 -5l-42 -58q52 -29 81 -79t29 -113q0 -125 -97.5 -219.5t-230.5 -94.5q-70 0 -124 28l-44 -61l-8 5l43 60q-109 63 -109 194q0 128 96 220.5t231 92.5zM378 524q-36 0 -64.5 -43.5t-44 -110.5t-24 -127.5t-10.5 -114.5l203 282v10
q0 104 -60 104zM295 1q37 5 65 48t43.5 107t23.5 124t10 115l-202 -283v-8q0 -103 60 -103z" />
    <glyph glyph-name="ugrave" unicode="&#xf9;" horiz-adv-x="604" 
d="M592 375l-29 -157q-15 -63 -12.5 -133t32.5 -82l-3 -3q-32 -7 -71 -7q-73 0 -112 37.5t-18 123.5l37 154l-4 1q-48 -184 -101.5 -250t-137.5 -66q-49 0 -79 17t-38.5 43t-10.5 56t5 56l49 299q2 16 -9.5 24t-31.5 2l-3 3q30 14 75 26.5t78 12.5q44 0 59 -19.5t7 -69.5
l-52 -320q-13 -76 32 -76q81 0 147 264q48 196 11 215l3 3q68 5 113 0.5t61.5 -40.5t2.5 -114zM383 577l-4 -6l-207 151q0 12 9.5 21t22.5 9q8 0 20.5 -8.5t32 -28t35 -36.5t44.5 -50t47 -52z" />
    <glyph glyph-name="uacute" unicode="&#xfa;" horiz-adv-x="604" 
d="M592 375l-29 -157q-15 -63 -12.5 -133t32.5 -82l-3 -3q-32 -7 -71 -7q-73 0 -112 37.5t-18 123.5l37 154l-4 1q-48 -184 -101.5 -250t-137.5 -66q-49 0 -79 17t-38.5 43t-10.5 56t5 56l49 299q2 16 -9.5 24t-31.5 2l-3 3q30 14 75 26.5t78 12.5q44 0 59 -19.5t7 -69.5
l-52 -320q-13 -76 32 -76q81 0 147 264q48 196 11 215l3 3q68 5 113 0.5t61.5 -40.5t2.5 -114zM326 571l-3 6q27 22 65 53t60 49t46.5 37t40 27.5t23.5 8.5q23 0 23 -24z" />
    <glyph glyph-name="ucircumflex" unicode="&#xfb;" horiz-adv-x="604" 
d="M592 375l-29 -157q-15 -63 -12.5 -133t32.5 -82l-3 -3q-32 -7 -71 -7q-73 0 -112 37.5t-18 123.5l37 154l-4 1q-48 -184 -101.5 -250t-137.5 -66q-49 0 -79 17t-38.5 43t-10.5 56t5 56l49 299q2 16 -9.5 24t-31.5 2l-3 3q30 14 75 26.5t78 12.5q44 0 59 -19.5t7 -69.5
l-52 -320q-13 -76 32 -76q81 0 147 264q48 196 11 215l3 3q68 5 113 0.5t61.5 -40.5t2.5 -114zM386 745l127 -169l-6 -5l-132 107l-166 -107l-4 5z" />
    <glyph glyph-name="udieresis" unicode="&#xfc;" horiz-adv-x="604" 
d="M592 375l-29 -157q-15 -63 -12.5 -133t32.5 -82l-3 -3q-32 -7 -71 -7q-73 0 -112 37.5t-18 123.5l37 154l-4 1q-48 -184 -101.5 -250t-137.5 -66q-49 0 -79 17t-38.5 43t-10.5 56t5 56l49 299q2 16 -9.5 24t-31.5 2l-3 3q30 14 75 26.5t78 12.5q44 0 59 -19.5t7 -69.5
l-52 -320q-13 -76 32 -76q81 0 147 264q48 196 11 215l3 3q68 5 113 0.5t61.5 -40.5t2.5 -114zM276 683q19 0 31.5 -13.5t12.5 -32.5q0 -25 -18.5 -43t-42.5 -18q-19 0 -31.5 13.5t-12.5 33.5q0 24 18.5 42t42.5 18zM474 683q19 0 31.5 -13.5t12.5 -32.5q0 -25 -18.5 -43
t-42.5 -18q-19 0 -31.5 13.5t-12.5 33.5q0 24 18.5 42t42.5 18z" />
    <glyph glyph-name="yacute" unicode="&#xfd;" horiz-adv-x="596" 
d="M592 375l-58 -368q-17 -107 -97 -169.5t-218 -62.5q-35 0 -66.5 4.5t-63 15.5t-50 34t-18.5 55q0 42 29.5 69.5t72.5 27.5q34 0 59 -22.5t21 -60.5q-26 -3 -41 -19t-15 -37q0 -24 19.5 -41t57.5 -17q55 0 80 36.5t40 114.5l72 373l-4 1q-48 -184 -101.5 -250t-137.5 -66
q-49 0 -79 17t-38.5 43t-10.5 56t5 56l49 299q2 16 -9.5 24t-31.5 2l-3 3q30 14 75 26.5t78 12.5q44 0 59 -19.5t7 -69.5l-52 -320q-13 -76 32 -76q81 0 147 264q48 196 11 215l3 3q68 5 112 0.5t60.5 -40.5t4.5 -114zM333 571l-3 6q27 22 65 53t60 49t46.5 37t40 27.5
t23.5 8.5q23 0 23 -24z" />
    <glyph glyph-name="thorn" unicode="&#xfe;" horiz-adv-x="590" 
d="M243 790q44 0 60.5 -20t5.5 -69l-90 -485l4 -1q39 182 97 253.5t137 71.5q71 0 109.5 -43.5t38.5 -124.5q0 -62 -22.5 -127t-63.5 -120.5t-105 -91t-139 -35.5q-40 0 -68 9l2 3q58 3 110 76.5t79 170t28 179.5q0 72 -30 72q-43 0 -89.5 -82t-72.5 -213l-45 -220
q-9 -43 -14 -85t-2 -82t19 -48l-3 -3q-22 -1 -49.5 -3.5t-54.5 6.5t-48 24t-30.5 48t-1.5 79l129 793q2 16 -9.5 24t-31.5 2l-3 3q30 14 75 26.5t78 12.5z" />
    <glyph glyph-name="ydieresis" unicode="&#xff;" horiz-adv-x="596" 
d="M592 375l-58 -368q-17 -107 -97 -169.5t-218 -62.5q-35 0 -66.5 4.5t-63 15.5t-50 34t-18.5 55q0 42 29.5 69.5t72.5 27.5q34 0 59 -22.5t21 -60.5q-26 -3 -41 -19t-15 -37q0 -24 19.5 -41t57.5 -17q55 0 80 36.5t40 114.5l72 373l-4 1q-48 -184 -101.5 -250t-137.5 -66
q-49 0 -79 17t-38.5 43t-10.5 56t5 56l49 299q2 16 -9.5 24t-31.5 2l-3 3q30 14 75 26.5t78 12.5q44 0 59 -19.5t7 -69.5l-52 -320q-13 -76 32 -76q81 0 147 264q48 196 11 215l3 3q68 5 112 0.5t60.5 -40.5t4.5 -114zM283 683q19 0 31.5 -13.5t12.5 -32.5q0 -25 -18.5 -43
t-42.5 -18q-19 0 -31.5 13.5t-12.5 33.5q0 24 18.5 42t42.5 18zM481 683q19 0 31.5 -13.5t12.5 -32.5q0 -25 -18.5 -43t-42.5 -18q-19 0 -31.5 13.5t-12.5 33.5q0 24 18.5 42t42.5 18z" />
    <glyph glyph-name="OE" unicode="&#x152;" horiz-adv-x="1100" 
d="M870 710q-60 0 -98 -59.5t-38 -123.5q0 -56 32 -98t81 -42h27l-2 -8h-16q-67 0 -122.5 -46.5t-84.5 -114.5t-29 -139q0 -198 163 -198q121 0 199.5 83t78.5 177q0 53 -33 88.5t-96 35.5q-38 0 -63 -24.5t-25 -65.5q0 -33 20 -54t52 -22q5 -44 -28.5 -75.5t-78.5 -31.5
q-52 0 -81.5 29t-29.5 73q0 77 74.5 128t159.5 51q82 0 125 -41t43 -104q0 -45 -22.5 -89.5t-64.5 -83t-110.5 -62.5t-152.5 -24q-105 0 -176.5 36t-107.5 96q-45 -8 -87 -8q-133 0 -225.5 79.5t-92.5 215.5q0 172 126 295.5t305 123.5q88 0 159 -34q89 46 217 46
q98 0 163.5 -39.5t65.5 -111.5q0 -56 -38 -92.5t-85 -36.5q-41 0 -71 29.5t-19 71.5q69 15 69 83q0 39 -23 63t-60 24zM380 1q39 0 73 25q-20 43 -20 96q0 107 94.5 181.5t272.5 75.5l1 2q-113 2 -177.5 47t-64.5 115q0 45 30 82q-25 74 -98 74q-51 0 -92 -42.5t-64.5 -104
t-39 -137.5t-21 -135.5t-5.5 -105.5q0 -173 111 -173z" />
    <glyph glyph-name="oe" unicode="&#x153;" horiz-adv-x="935" 
d="M379 532q110 0 173 -69q90 69 206 69q33 0 63.5 -4.5t61 -16t49 -35t18.5 -56.5q0 -63 -86.5 -98t-252.5 -8v-12q0 -79 39 -132.5t116 -53.5q41 0 83.5 18t73.5 56l6 -3q-52 -87 -126.5 -140.5t-166.5 -53.5q-100 0 -158 60q-81 -60 -184 -60q-107 0 -174.5 63.5
t-67.5 162.5q0 128 96 220.5t231 92.5zM295 1q39 5 68.5 53.5t45 118t22.5 133t7 114.5q0 104 -60 104q-38 0 -68 -50t-45 -122.5t-22.5 -137t-7.5 -110.5q0 -103 60 -103zM749 524q-55 0 -93.5 -61t-44.5 -141q92 -6 141.5 38t49.5 99q0 28 -14 46.5t-39 18.5z" />
    <glyph glyph-name="Ydieresis" unicode="&#x178;" horiz-adv-x="544" 
d="M849 827q-122 0 -234 -201l-174 -313l-21 -133q-5 -28 -6.5 -41.5t-4 -34.5t-1.5 -30.5t4 -23.5t9.5 -19.5t16.5 -12.5t24.5 -9t34.5 -2l-1 -7h-410l1 7q31 0 52.5 8t34 18t22 36.5t13.5 46.5t11 64l15 101q-12 96 -38.5 182.5t-66 146t-80.5 59.5q-19 0 -47 -23l-3 5
q37 32 86.5 54t97.5 22q68 0 118.5 -41.5t74.5 -107t32.5 -146.5t-7.5 -161l202 360q121 213 246 213q69 0 106.5 -38t37.5 -98q0 -67 -43 -116.5t-110 -49.5q-53 0 -85.5 30t-32.5 73q0 30 17 57.5t56 37.5q19 -42 62 -42q30 0 48 19.5t18 48.5q0 61 -75 61zM378 864
q19 0 31.5 -13.5t12.5 -32.5q0 -25 -18.5 -43t-42.5 -18q-19 0 -31.5 13.5t-12.5 33.5q0 24 18.5 42t42.5 18zM576 864q19 0 31.5 -13.5t12.5 -32.5q0 -25 -18.5 -43t-42.5 -18q-19 0 -31.5 13.5t-12.5 33.5q0 24 18.5 42t42.5 18z" />
    <glyph glyph-name="tilde" unicode="&#x2dc;" horiz-adv-x="0" 
d="M37 589l-8 3q28 46 50 64t51 18q39 0 96 -43.5t95 -43.5q24 0 43 14.5t43 52.5l8 -3q-27 -44 -48 -59t-46 -15q-34 0 -66.5 21.5t-64 43.5t-63.5 22q-23 0 -43 -15.5t-47 -59.5z" />
    <glyph glyph-name="endash" unicode="&#x2013;" horiz-adv-x="468" 
d="M496 330l-2 -10h-419l2 10h419z" />
    <glyph glyph-name="emdash" unicode="&#x2014;" horiz-adv-x="582" 
d="M611 330l-2 -10h-534l2 10h534z" />
    <glyph glyph-name="quoteleft" unicode="&#x2018;" horiz-adv-x="247" 
d="M276 757l5 -5q-65 -58 -57 -121.5t79 -94.5q7 -50 -29.5 -88.5t-79.5 -38.5q-36 0 -60 26.5t-24 68.5q0 55 48 129t118 124z" />
    <glyph glyph-name="quoteright" unicode="&#x2019;" horiz-adv-x="247" 
d="M156 407l-5 5q65 58 56.5 121.5t-78.5 94.5q-6 50 30 88.5t79 38.5q37 0 60.5 -26.5t23.5 -68.5q0 -56 -48 -129.5t-118 -123.5z" />
    <glyph glyph-name="quotedblleft" unicode="&#x201c;" horiz-adv-x="469" 
d="M498 757l5 -5q-65 -58 -57 -121.5t79 -94.5q7 -50 -29.5 -88.5t-79.5 -38.5q-36 0 -60 26.5t-24 68.5q0 55 48 129t118 124zM276 757l5 -5q-65 -58 -57 -121.5t79 -94.5q7 -50 -29.5 -88.5t-79.5 -38.5q-36 0 -60 26.5t-24 68.5q0 55 48 129t118 124z" />
    <glyph glyph-name="quotedblright" unicode="&#x201d;" horiz-adv-x="469" 
d="M156 407l-5 5q65 58 56.5 121.5t-78.5 94.5q-6 50 30 88.5t79 38.5q37 0 60.5 -26.5t23.5 -68.5q0 -56 -48 -129.5t-118 -123.5zM378 407l-5 5q65 58 56.5 121.5t-78.5 94.5q-6 50 30 88.5t79 38.5q37 0 60.5 -26.5t23.5 -68.5q0 -56 -48 -129.5t-118 -123.5z" />
    <glyph glyph-name="quotedblbase" unicode="&#x201e;" horiz-adv-x="469" 
d="M65 -163l-5 5q65 58 56.5 121.5t-78.5 94.5q-6 50 30 88.5t79 38.5q37 0 60.5 -26.5t23.5 -68.5q0 -56 -48 -129.5t-118 -123.5zM287 -163l-5 5q65 58 56.5 121.5t-78.5 94.5q-6 50 30 88.5t79 38.5q37 0 60.5 -26.5t23.5 -68.5q0 -56 -48 -129.5t-118 -123.5z" />
    <glyph glyph-name="bullet" unicode="&#x2022;" horiz-adv-x="372" 
d="M270 532q47 0 77.5 -32t30.5 -80q0 -61 -45 -105.5t-104 -44.5q-47 0 -78 33.5t-31 81.5q0 60 45.5 103.5t104.5 43.5z" />
    <glyph glyph-name="ellipsis" unicode="&#x2026;" horiz-adv-x="733" 
d="M151 185q35 0 57.5 -24t22.5 -59q0 -44 -33.5 -76.5t-76.5 -32.5q-34 0 -56.5 24t-22.5 59q0 44 33 76.5t76 32.5zM396 185q34 0 56.5 -24t22.5 -59q0 -44 -33.5 -76.5t-75.5 -32.5q-35 0 -57 24t-22 59q0 44 33 76.5t76 32.5zM640 185q35 0 57.5 -24t22.5 -59
q0 -44 -33.5 -76.5t-76.5 -32.5q-34 0 -56.5 24t-22.5 59q0 44 33 76.5t76 32.5z" />
    <glyph glyph-name="guilsinglleft" unicode="&#x2039;" horiz-adv-x="273" 
d="M90 266l222 197l4 -4l-159 -193l97 -193l-4 -4z" />
    <glyph glyph-name="guilsinglright" unicode="&#x203a;" horiz-adv-x="273" 
d="M127 463l159 -197l-222 -197l-4 4l160 193l-99 193z" />
    <glyph glyph-name="Euro" unicode="&#x20ac;" horiz-adv-x="684" 
d="M100 404l2 10h42q36 132 139.5 212.5t246.5 80.5q78 0 142 -22l75 20l-35 -279h-7q3 48 -2.5 92t-22 86.5t-53.5 68t-91 25.5q-134 0 -189 -284h217l-2 -10h-217q-6 -28 -9 -54l-8 -54h217l-2 -10h-216q-34 -284 98 -284q54 0 99 25.5t75.5 68t50 86.5t31.5 92h7
l-54 -279l-68 19q-69 -21 -149 -21q-134 0 -210.5 80t-78.5 213h-47l2 10h45q0 53 13 108h-41z" />
    <glyph glyph-name="trademark" unicode="&#x2122;" horiz-adv-x="1159" 
d="M156 700h434l-8 -157h-10q4 76 -26.5 112t-109.5 36l-52 -329q-13 -58 -4.5 -84t55.5 -26l-1 -7h-266l1 7q47 0 61 22t24 88l52 329q-79 0 -120.5 -35.5t-61.5 -112.5h-9zM815 246h-18l-98 418l-36 -226q-5 -28 -7 -44.5t-3.5 -41.5t2.5 -40t11.5 -30.5t23.5 -22.5t39 -7
l-1 -7h-208l1 7q29 0 51.5 13t35 29.5t23 47.5t14.5 51t10 57l23 144q9 57 -4.5 77.5t-66.5 20.5l1 8h224l62 -287l156 287h201l-1 -8q-47 0 -61.5 -21.5t-24.5 -87.5l-35 -221q-13 -58 -4.5 -84t55.5 -26l-1 -7h-259l1 7q43 0 55 19t23 91l51 319z" />
    <glyph glyph-name="A.alt" horiz-adv-x="849" 
d="M514 169l-21 75h-222q-127 -237 28 -237l-1 -7h-293l1 7q40 0 77.5 22.5t79 76t59.5 81t60 97.5q7 11 10 16l259 434l172 -556q29 -94 58 -132.5t78 -38.5l-1 -7h-415l1 7q116 0 70 162zM421 499l-118 -200l-26 -45h213z" />
    <glyph glyph-name="Agrave.alt" horiz-adv-x="849" 
d="M514 169l-21 75h-222q-127 -237 28 -237l-1 -7h-293l1 7q40 0 77.5 22.5t79 76t59.5 81t60 97.5q7 11 10 16l259 434l172 -556q29 -94 58 -132.5t78 -38.5l-1 -7h-415l1 7q116 0 70 162zM421 499l-118 -200l-26 -45h213zM575 762l-4 -6l-215 98q0 12 9.5 21t22.5 9
t36.5 -15t71 -50.5t79.5 -56.5z" />
    <glyph glyph-name="Aacute.alt" horiz-adv-x="849" 
d="M514 169l-21 75h-222q-127 -237 28 -237l-1 -7h-293l1 7q40 0 77.5 22.5t79 76t59.5 81t60 97.5q7 11 10 16l259 434l172 -556q29 -94 58 -132.5t78 -38.5l-1 -7h-415l1 7q116 0 70 162zM421 499l-118 -200l-26 -45h213zM529 756l-3 6q40 22 98 57t86.5 50t41.5 15
q23 0 23 -24z" />
    <glyph glyph-name="Acircumflex.alt" horiz-adv-x="849" 
d="M514 169l-21 75h-222q-127 -237 28 -237l-1 -7h-293l1 7q40 0 77.5 22.5t79 76t59.5 81t60 97.5q7 11 10 16l259 434l172 -556q29 -94 58 -132.5t78 -38.5l-1 -7h-415l1 7q116 0 70 162zM421 499l-118 -200l-26 -45h213zM573 867l135 -120l-6 -5l-138 67l-160 -67l-4 5z
" />
    <glyph glyph-name="Atilde.alt" horiz-adv-x="849" 
d="M514 169l-21 75h-222q-127 -237 28 -237l-1 -7h-293l1 7q40 0 77.5 22.5t79 76t59.5 81t60 97.5q7 11 10 16l259 434l172 -556q29 -94 58 -132.5t78 -38.5l-1 -7h-415l1 7q116 0 70 162zM421 499l-118 -200l-26 -45h213zM371 774l-8 3q28 46 50 64t51 18q39 0 96 -43.5
t95 -43.5q24 0 43 14.5t43 52.5l8 -3q-27 -44 -48 -59t-46 -15q-27 0 -54 13.5t-45 30t-44 30t-51 13.5q-23 0 -43 -15.5t-47 -59.5z" />
    <glyph glyph-name="Adieresis.alt" horiz-adv-x="849" 
d="M514 169l-21 75h-222q-127 -237 28 -237l-1 -7h-293l1 7q40 0 77.5 22.5t79 76t59.5 81t60 97.5q7 11 10 16l259 434l172 -556q29 -94 58 -132.5t78 -38.5l-1 -7h-415l1 7q116 0 70 162zM421 499l-118 -200l-26 -45h213zM473 861q19 0 31.5 -13.5t12.5 -32.5
q0 -25 -18.5 -43t-42.5 -18q-19 0 -31.5 13.5t-12.5 33.5q0 24 18.5 42t42.5 18zM671 861q19 0 31.5 -13.5t12.5 -32.5q0 -25 -18.5 -43t-42.5 -18q-19 0 -31.5 13.5t-12.5 33.5q0 24 18.5 42t42.5 18z" />
    <glyph glyph-name="Aring.alt" horiz-adv-x="849" 
d="M514 169l-21 75h-222q-127 -237 28 -237l-1 -7h-293l1 7q40 0 77.5 22.5t79 76t59.5 81t60 97.5q7 11 10 16l259 434l172 -556q29 -94 58 -132.5t78 -38.5l-1 -7h-415l1 7q116 0 70 162zM421 499l-118 -200l-26 -45h213zM584 936q38 0 63 -24t25 -60q0 -44 -36 -76.5
t-82 -32.5q-39 0 -63.5 24.5t-24.5 60.5q0 44 35.5 76t82.5 32zM584 926q-43 0 -75.5 -29t-32.5 -69q0 -32 22 -53.5t56 -21.5q42 0 75 29.5t33 69.5q0 31 -22.5 52.5t-55.5 21.5z" />
    <glyph glyph-name="AE.alt" horiz-adv-x="1178" 
d="M1193 700l-13 -241h-10q6 118 -42.5 175t-169.5 57h-97l-53 -330q84 0 143.5 40t76.5 117h7l-68 -323h-7q15 72 -28.5 115.5t-124.5 43.5l-40 -253q-8 -53 1 -72.5t42 -19.5q275 0 370 289h10l-94 -298h-650l1 7q31 0 52.5 8t34 18t22 36.5t13.5 46.5t11 64l10 64h-251
q-190 -237 -37 -237l-1 -7h-296l1 7q41 0 88.5 26t102.5 78.5t88.5 89t87.5 99.5l341 400h479zM385 299l-39 -45h245l56 350z" />
    <glyph glyph-name="B.alt" horiz-adv-x="735" 
d="M100 700h276q45 0 70.5 -0.5t69 -3t69 -7.5t57.5 -15t49.5 -24t30 -36t12.5 -50q0 -163 -301 -176l-1 -2q44 0 88 -6.5t93.5 -22.5t80.5 -50t31 -82q0 -59 -32 -104.5t-84.5 -70.5t-110.5 -37.5t-118 -12.5h-390l1 7q31 0 52 8t33.5 18t22 36.5t13.5 46.5t11 64l53 340
q5 30 6.5 42.5t4 35t1.5 31t-4 23t-9.5 19.5t-16.5 11.5t-24.5 8.5t-34.5 2zM355 390h28q159 0 159 203q0 50 -26 75t-87 25h-26zM354 382l-41 -258q-13 -71 -5.5 -94t51.5 -23t76.5 25.5t49 67t24 84t7.5 85.5q0 57 -29 85t-101 28h-32z" />
    <glyph glyph-name="C.alt" horiz-adv-x="690" 
d="M404 -7q-148 0 -244.5 83.5t-96.5 217.5q0 114 65 210t171 149.5t227 53.5q105 0 156 -35t51 -85q0 -43 -34 -77t-82 -34q-39 0 -62 23.5t-18 68.5q23 6 40 28.5t17 49.5q0 52 -75 52q-58 0 -104 -36t-72.5 -90t-44 -124t-24 -129.5t-6.5 -113.5q0 -203 139 -203
q49 0 81.5 32t32.5 71q0 38 -33 61q10 46 41.5 71t70.5 25t61.5 -23.5t22.5 -60.5q0 -69 -73 -127t-207 -58z" />
    <glyph glyph-name="Ccedilla.alt" horiz-adv-x="690" 
d="M283 -172l9 6q20 -23 58 -23q37 0 57.5 17t20.5 40t-21.5 40.5t-60.5 19.5q23 43 31 66q-138 8 -226 90t-88 210q0 114 65 210t171 149.5t227 53.5q105 0 156 -35t51 -85q0 -43 -34 -77t-82 -34q-39 0 -62 23.5t-18 68.5q23 6 40 28.5t17 49.5q0 52 -75 52
q-58 0 -104 -36t-72.5 -90t-44 -124t-24 -129.5t-6.5 -113.5q0 -203 139 -203q49 0 81.5 32t32.5 71q0 38 -33 61q10 46 41.5 71t70.5 25t61.5 -23.5t22.5 -60.5q0 -69 -73 -127t-207 -58h-18q-10 -30 -26 -57q37 -4 57.5 -22.5t20.5 -43.5q0 -28 -24 -48.5t-65 -20.5
q-46 0 -66 27z" />
    <glyph glyph-name="D.alt" horiz-adv-x="787" 
d="M-9 0l1 7q31 0 52 8t33 18t21.5 36.5t13.5 46.5t11 64l53 340q5 34 7 48.5t4 38t-0.5 33t-7.5 23t-15.5 18t-26 8.5t-37.5 4l1 7h363q162 0 251.5 -69t89.5 -205q0 -85 -27 -161t-77.5 -135.5t-130 -94.5t-177.5 -35h-402zM360 7q86 0 141 79t85 264q18 113 18 174
q0 88 -38.5 128.5t-133.5 40.5h-28l-90 -569q-13 -71 -5.5 -94t51.5 -23z" />
    <glyph glyph-name="Eth.alt" horiz-adv-x="787" 
d="M-9 0l1 7q31 0 52 8t33 18t21.5 36.5t13.5 46.5t11 64l25 165h-99l1 10h100l26 165q5 34 7 48.5t4 38t-0.5 33t-7.5 23t-15.5 18t-26 8.5t-37.5 4l1 7h363q162 0 251.5 -69t89.5 -205q0 -85 -27 -161t-77.5 -135.5t-130 -94.5t-177.5 -35h-402zM360 7q86 0 141 79t85 264
q18 113 18 174q0 88 -38.5 128.5t-133.5 40.5h-28l-54 -338h119l-1 -10h-119l-35 -221q-13 -71 -5.5 -94t51.5 -23z" />
    <glyph glyph-name="E.alt" horiz-adv-x="721" 
d="M736 700l-13 -241h-9q5 118 -44.5 175t-170.5 57h-97l-51 -330q84 0 143.5 40t76.5 117h7l-67 -323h-7q14 72 -29.5 115.5t-124.5 43.5l-40 -253q-8 -53 1.5 -72.5t42.5 -19.5q274 0 369 289h10l-93 -298h-650l1 7q26 0 45 4t32.5 15.5t21.5 22.5t15 35t10 42l9 54
l52 340q6 38 8 55.5t3 42.5t-3.5 35t-14 21.5t-27 15t-43.5 3.5l1 7h636z" />
    <glyph glyph-name="Egrave.alt" horiz-adv-x="721" 
d="M736 700l-13 -241h-9q5 118 -44.5 175t-170.5 57h-97l-51 -330q84 0 143.5 40t76.5 117h7l-67 -323h-7q14 72 -29.5 115.5t-124.5 43.5l-40 -253q-8 -53 1.5 -72.5t42.5 -19.5q274 0 369 289h10l-93 -298h-650l1 7q26 0 45 4t32.5 15.5t21.5 22.5t15 35t10 42l9 54
l52 340q6 38 8 55.5t3 42.5t-3.5 35t-14 21.5t-27 15t-43.5 3.5l1 7h636zM469 762l-4 -6l-215 98q0 12 9.5 21t22.5 9t36.5 -15t71 -50.5t79.5 -56.5z" />
    <glyph glyph-name="Eacute.alt" horiz-adv-x="721" 
d="M736 700l-13 -241h-9q5 118 -44.5 175t-170.5 57h-97l-51 -330q84 0 143.5 40t76.5 117h7l-67 -323h-7q14 72 -29.5 115.5t-124.5 43.5l-40 -253q-8 -53 1.5 -72.5t42.5 -19.5q274 0 369 289h10l-93 -298h-650l1 7q26 0 45 4t32.5 15.5t21.5 22.5t15 35t10 42l9 54
l52 340q6 38 8 55.5t3 42.5t-3.5 35t-14 21.5t-27 15t-43.5 3.5l1 7h636zM423 756l-3 6q40 22 98 57t86.5 50t41.5 15q23 0 23 -24z" />
    <glyph glyph-name="Ecircumflex.alt" horiz-adv-x="721" 
d="M736 700l-13 -241h-9q5 118 -44.5 175t-170.5 57h-97l-51 -330q84 0 143.5 40t76.5 117h7l-67 -323h-7q14 72 -29.5 115.5t-124.5 43.5l-40 -253q-8 -53 1.5 -72.5t42.5 -19.5q274 0 369 289h10l-93 -298h-650l1 7q26 0 45 4t32.5 15.5t21.5 22.5t15 35t10 42l9 54
l52 340q6 38 8 55.5t3 42.5t-3.5 35t-14 21.5t-27 15t-43.5 3.5l1 7h636zM467 867l135 -120l-6 -5l-138 67l-160 -67l-4 5z" />
    <glyph glyph-name="Edieresis.alt" horiz-adv-x="721" 
d="M736 700l-13 -241h-9q5 118 -44.5 175t-170.5 57h-97l-51 -330q84 0 143.5 40t76.5 117h7l-67 -323h-7q14 72 -29.5 115.5t-124.5 43.5l-40 -253q-8 -53 1.5 -72.5t42.5 -19.5q274 0 369 289h10l-93 -298h-650l1 7q26 0 45 4t32.5 15.5t21.5 22.5t15 35t10 42l9 54
l52 340q6 38 8 55.5t3 42.5t-3.5 35t-14 21.5t-27 15t-43.5 3.5l1 7h636zM367 861q19 0 31.5 -13.5t12.5 -32.5q0 -25 -18.5 -43t-42.5 -18q-19 0 -31.5 13.5t-12.5 33.5q0 24 18.5 42t42.5 18zM565 861q19 0 31.5 -13.5t12.5 -32.5q0 -25 -18.5 -43t-42.5 -18
q-19 0 -31.5 13.5t-12.5 33.5q0 24 18.5 42t42.5 18z" />
    <glyph glyph-name="F.alt" horiz-adv-x="681" 
d="M480 691h-78l-51 -330q84 0 143.5 40t76.5 117h7l-67 -323h-7q14 72 -29 115.5t-124 43.5l-28 -175q-12 -66 -11 -104t26 -53t91 -15l-1 -7h-438l1 7q26 0 45 4t32.5 15.5t21.5 22.5t15 35t10 42l9 54l52 340q6 38 8 55.5t3 42.5t-3.5 35t-14 21.5t-27 15t-43.5 3.5l1 7
h616l-12 -241h-10q5 118 -44 175t-170 57z" />
    <glyph glyph-name="F.titl" horiz-adv-x="806" 
d="M581 695v-1q14 2 28 3t26.5 2t36.5 1h40.5h57.5h71l-37 -241h-9q18 119 -14 175.5t-143 56.5q-71 0 -96 -30.5t-37 -110.5l-29 -189q84 0 143.5 40t76.5 117h7l-67 -323h-7q14 72 -29 115.5t-124 43.5l-28 -175q-12 -66 -11 -104t26 -53t91 -15l-1 -7h-438l1 7q26 0 45 4
t32.5 15.5t21.5 22.5t15 35t10 42l9 54l52 340q7 47 34.5 80.5t67 50.5t74 24.5t69.5 9.5v1q-63 0 -179.5 49t-178.5 49q-48 0 -77 -20t-29 -58q0 -32 19.5 -47.5t46.5 -15.5q45 0 76 40q42 -19 53.5 -53.5t-3 -66.5t-49.5 -56t-77 -24q-58 0 -103 40.5t-45 103.5
q0 70 52.5 118t132.5 48q64 0 186.5 -50t180.5 -50q15 0 23.5 7.5t8.5 17.5q0 14 -12 20t-33 -5q-16 31 0.5 54.5t45.5 23.5q23 0 39 -13.5t16 -40.5q0 -43 -59 -62z" />
    <glyph glyph-name="G.alt" horiz-adv-x="737" 
d="M690 194l-31 -199q-1 2 -4 7t-4.5 7t-4.5 5.5t-6.5 5t-8.5 3t-12 1.5q-27 0 -102 -15.5t-117 -15.5q-142 0 -239.5 85t-97.5 216q0 86 38.5 163t102 131.5t148.5 86.5t175 32q105 0 156 -35t51 -85q0 -43 -34 -77t-82 -34q-39 0 -62 23.5t-18 68.5q23 6 40 28.5t17 49.5
q0 52 -75 52q-58 0 -103.5 -34t-72.5 -85t-44.5 -117.5t-23.5 -124t-6 -111.5q0 -88 34.5 -156t103.5 -68q33 0 63 9l23 142q6 39 8.5 55.5t3.5 41.5t-3 34.5t-13 20.5t-24.5 14.5t-39.5 3.5l1 7h359v-7q-47 0 -66 -28t-30 -101z" />
    <glyph glyph-name="G.swsh" horiz-adv-x="768" 
d="M484 -39l5 34q-48 -61 -160 -61q-133 0 -206 91.5t-73 227.5q0 128 63 244t179 189.5t255 73.5q98 0 163.5 -40t65.5 -112q0 -56 -38 -92t-85 -36q-41 0 -71 29.5t-19 71.5q69 16 69 83q0 40 -23.5 63.5t-61.5 23.5q-78 0 -147 -95.5t-105.5 -224t-36.5 -242.5
q0 -22 1.5 -45.5t8 -60.5t17 -64.5t32 -48t50.5 -20.5q31 0 70 19t55 47l19 126q15 102 9 128q-9 39 -66 42h-11l1 7h359v-7q-47 0 -66.5 -28.5t-29.5 -100.5l-22 -151q-20 -133 -150.5 -241t-277.5 -108q-115 0 -249.5 27.5t-232.5 61t-193.5 61t-141.5 27.5
q-42 0 -63 -16.5t-21 -40.5q0 -20 13.5 -33.5t39.5 -13.5q20 0 35.5 16.5t7.5 36.5q67 7 93 -46q23 -47 -3 -94q-30 -52 -98 -52q-56 0 -87 34.5t-31 85.5q0 84 77 152t216 68q97 0 201.5 -24.5t189 -59.5t158.5 -70t131 -59.5t84 -24.5q21 0 38 18.5t27.5 52t16.5 61.5
t12 65.5t7 44.5z" />
    <glyph glyph-name="H.alt" horiz-adv-x="850" 
d="M820 0h-379l1 7q48 0 66.5 29.5t31.5 113.5l31 200h-222l-31 -200q-15 -80 -5 -111.5t57 -31.5l-1 -7h-379l1 7q26 0 45 4t32.5 15.5t21.5 22.5t15 35t10 42l9 54l52 340q6 38 8 55.5t3 42.5t-3.5 35t-14 21.5t-27 15t-43.5 3.5l1 7h379l-1 -7q-47 0 -65.5 -29
t-31.5 -114l-30 -190h221l30 190q15 80 5 111.5t-57 31.5l1 7h379l-1 -7q-26 0 -44.5 -3.5t-32 -15t-21.5 -21.5t-15 -35t-10 -42t-9 -56l-53 -340q-4 -27 -5.5 -37t-4 -31.5t-2 -29l1.5 -22.5t5.5 -20t11 -13.5t16.5 -11.5t23.5 -5.5t30.5 -2.5z" />
    <glyph glyph-name="H.calt" horiz-adv-x="975" 
d="M665 150l30 200h-221l-31 -200q-15 -80 -5 -111.5t57 -31.5l-1 -7h-379l1 7q26 0 45 4t32.5 15.5t21.5 22.5t15 35t10 42l9 54l52 341q7 47 34.5 80.5t67 50t73.5 24t70 9.5v1q-63 0 -179.5 49t-178.5 49q-48 0 -77 -20t-29 -58q0 -32 19.5 -47.5t46.5 -15.5q45 0 76 40
q42 -19 53.5 -53.5t-3 -66.5t-49.5 -56t-77 -24q-58 0 -103 40.5t-45 103.5q0 70 52.5 118t132.5 48q64 0 186.5 -50t180.5 -50q15 0 23.5 7.5t8.5 17.5q0 14 -12 20t-33 -5q-16 31 0.5 54.5t45.5 23.5q21 0 37.5 -13.5t16.5 -35.5q0 -20 -11 -32.5t-28 -23t-35 -25.5
t-34.5 -48.5t-24.5 -82.5l-30 -190h221l8 52q20 132 111 233.5t218 150.5l2 -6q-74 -28 -99 -184l-68 -426q-5 -28 -6.5 -41.5t-4 -34.5t-1.5 -30.5t4 -23.5t9.5 -19.5t16.5 -12.5t24.5 -9t34.5 -2l-1 -7h-379l1 7q48 0 66.5 29.5t31.5 113.5z" />
    <glyph glyph-name="H.titl" horiz-adv-x="975" 
d="M665 150l30 200h-221l-31 -200q-15 -80 -5 -111.5t57 -31.5l-1 -7h-379l1 7q26 0 45 4t32.5 15.5t21.5 22.5t15 35t10 42l9 54l52 341q7 47 34.5 80.5t67 50t73.5 24t70 9.5v1q-63 0 -179.5 49t-178.5 49q-48 0 -77 -20t-29 -58q0 -32 19.5 -47.5t46.5 -15.5q45 0 76 40
q42 -19 53.5 -53.5t-3 -66.5t-49.5 -56t-77 -24q-58 0 -103 40.5t-45 103.5q0 70 52.5 118t132.5 48q64 0 186.5 -50t180.5 -50q15 0 23.5 7.5t8.5 17.5q0 14 -12 20t-33 -5q-16 31 0.5 54.5t45.5 23.5q21 0 37.5 -13.5t16.5 -35.5q0 -20 -11 -32.5t-28 -23t-35 -25.5
t-34.5 -48.5t-24.5 -82.5l-30 -190h221l8 52q13 87 64.5 169.5t117 138.5t134.5 90t121 34q43 0 65.5 -21t22.5 -54q0 -46 -32.5 -73.5t-71.5 -27.5q-38 0 -52 38q31 13 31 52q0 22 -13.5 37.5t-36.5 15.5q-26 0 -47.5 -21.5t-35.5 -56.5t-22 -65.5t-13 -61.5l-68 -426
q-5 -28 -6.5 -41.5t-4 -34.5t-1.5 -30.5t4 -23.5t9.5 -19.5t16.5 -12.5t24.5 -9t34.5 -2l-1 -7h-379l1 7q48 0 66.5 29.5t31.5 113.5z" />
    <glyph glyph-name="I.alt" horiz-adv-x="429" 
d="M399 0h-409l1 7q26 0 45 4t32.5 15.5t21.5 22.5t15 35t10 42l9 54l52 340q6 38 8 55.5t3 42.5t-3.5 35t-14 21.5t-27 15t-43.5 3.5l1 7h409l-1 -7q-26 0 -44.5 -3.5t-32 -15t-21.5 -21.5t-15 -35t-10 -42t-9 -56l-53 -340q-4 -27 -5.5 -37t-4 -31.5t-2 -29l1.5 -22.5
t5.5 -20t11 -13.5t16.5 -11.5t23.5 -5.5t30.5 -2.5z" />
    <glyph glyph-name="Igrave.alt" horiz-adv-x="429" 
d="M399 0h-409l1 7q26 0 45 4t32.5 15.5t21.5 22.5t15 35t10 42l9 54l52 340q6 38 8 55.5t3 42.5t-3.5 35t-14 21.5t-27 15t-43.5 3.5l1 7h409l-1 -7q-26 0 -44.5 -3.5t-32 -15t-21.5 -21.5t-15 -35t-10 -42t-9 -56l-53 -340q-4 -27 -5.5 -37t-4 -31.5t-2 -29l1.5 -22.5
t5.5 -20t11 -13.5t16.5 -11.5t23.5 -5.5t30.5 -2.5zM336 762l-4 -6l-215 98q0 12 9.5 21t22.5 9t36.5 -15t71 -50.5t79.5 -56.5z" />
    <glyph glyph-name="Iacute.alt" horiz-adv-x="429" 
d="M399 0h-409l1 7q26 0 45 4t32.5 15.5t21.5 22.5t15 35t10 42l9 54l52 340q6 38 8 55.5t3 42.5t-3.5 35t-14 21.5t-27 15t-43.5 3.5l1 7h409l-1 -7q-26 0 -44.5 -3.5t-32 -15t-21.5 -21.5t-15 -35t-10 -42t-9 -56l-53 -340q-4 -27 -5.5 -37t-4 -31.5t-2 -29l1.5 -22.5
t5.5 -20t11 -13.5t16.5 -11.5t23.5 -5.5t30.5 -2.5zM290 756l-3 6q40 22 98 57t86.5 50t41.5 15q23 0 23 -24z" />
    <glyph glyph-name="Icircumflex.alt" horiz-adv-x="429" 
d="M399 0h-409l1 7q26 0 45 4t32.5 15.5t21.5 22.5t15 35t10 42l9 54l52 340q6 38 8 55.5t3 42.5t-3.5 35t-14 21.5t-27 15t-43.5 3.5l1 7h409l-1 -7q-26 0 -44.5 -3.5t-32 -15t-21.5 -21.5t-15 -35t-10 -42t-9 -56l-53 -340q-4 -27 -5.5 -37t-4 -31.5t-2 -29l1.5 -22.5
t5.5 -20t11 -13.5t16.5 -11.5t23.5 -5.5t30.5 -2.5zM334 867l135 -120l-6 -5l-138 67l-160 -67l-4 5z" />
    <glyph glyph-name="Idieresis.alt" horiz-adv-x="429" 
d="M399 0h-409l1 7q26 0 45 4t32.5 15.5t21.5 22.5t15 35t10 42l9 54l52 340q6 38 8 55.5t3 42.5t-3.5 35t-14 21.5t-27 15t-43.5 3.5l1 7h409l-1 -7q-26 0 -44.5 -3.5t-32 -15t-21.5 -21.5t-15 -35t-10 -42t-9 -56l-53 -340q-4 -27 -5.5 -37t-4 -31.5t-2 -29l1.5 -22.5
t5.5 -20t11 -13.5t16.5 -11.5t23.5 -5.5t30.5 -2.5zM234 861q19 0 31.5 -13.5t12.5 -32.5q0 -25 -18.5 -43t-42.5 -18q-19 0 -31.5 13.5t-12.5 33.5q0 24 18.5 42t42.5 18zM432 861q19 0 31.5 -13.5t12.5 -32.5q0 -25 -18.5 -43t-42.5 -18q-19 0 -31.5 13.5t-12.5 33.5
q0 24 18.5 42t42.5 18z" />
    <glyph glyph-name="J.alt" horiz-adv-x="643" 
d="M328 123l62 398q21 101 3.5 136.5t-110.5 35.5l1 7h439l-1 -7q-26 0 -45 -4t-32.5 -15.5t-21.5 -22.5t-15 -35t-10 -42l-9 -54l-41 -261q-42 -266 -305 -266q-34 0 -66.5 5.5t-68 19.5t-57 43.5t-21.5 71.5q0 62 35.5 95.5t82.5 33.5q39 0 62.5 -25t18.5 -71
q-50 -25 -50 -87q0 -35 17.5 -56.5t47.5 -21.5q22 0 37.5 10.5t24.5 31t13.5 37.5t8.5 43z" />
    <glyph glyph-name="K.alt" horiz-adv-x="826" 
d="M473 454l-94 -91q37 17 70 25.5t58 10.5t47 -5t37.5 -15t30 -26.5t23 -31.5t18.5 -38.5t14.5 -39t12.5 -41t11 -37.5q36 -111 54.5 -138.5t63.5 -19.5l-1 -7q-125 -19 -165 -19q-58 0 -97 27.5t-55.5 69.5t-28.5 90t-18 90t-22 69.5t-42 27.5q-13 0 -26 -7l-25 -168
q-16 -105 -10 -133q10 -40 68 -40l-1 -7h-391l1 7q26 0 45 4t32.5 15.5t21.5 22.5t15 35t10 42l9 54l52 340q6 38 8 55.5t3 42.5t-3.5 35t-14 21.5t-27 15t-43.5 3.5l1 7h390l-1 -7q-25 0 -42.5 -7.5t-28.5 -18t-19 -36t-12 -47t-11 -64.5l-25 -159l102 100q130 128 153 178
q26 54 -38 54l1 7h284l-1 -7q-148 0 -394 -239z" />
    <glyph glyph-name="K.swsh" horiz-adv-x="883" 
d="M506 550l-30 -187l102 98q130 128 153 178q26 54 -38 54l1 7h284l-1 -7q-148 0 -394 -239l-68 -65q74 9 127 -13t90 -68.5t76 -131.5q11 -24 49 -120t72 -161t74 -109q102 39 161 39q41 0 73 -13.5t32 -34.5q0 -14 -12 -27.5t-49.5 -26t-95.5 -12.5q-99 0 -186 37
q-182 -70 -328 -70q-105 0 -237 32t-251 64t-193 32q-63 0 -99 -43l-5 3q51 101 131 147t163 46q60 0 123.5 -24t121.5 -57.5t119 -67.5t138 -58t157 -24q68 0 148 26q-194 91 -304 380q-12 30 -30 99t-34 109t-36 42l-36 -34l-31 -200q-15 -80 -5 -111.5t57 -31.5l-1 -7
h-379l1 7q26 0 45 4t32.5 15.5t21.5 22.5t15 35t10 42l9 54l52 341q7 47 34.5 80.5t67 50t73.5 24t70 9.5v1q-63 0 -179.5 49t-178.5 49q-48 0 -77 -20t-29 -58q0 -32 19.5 -47.5t46.5 -15.5q45 0 76 40q42 -19 53.5 -53.5t-3 -66.5t-49.5 -56t-77 -24q-58 0 -103 40.5
t-45 103.5q0 70 52.5 118t132.5 48q64 0 186.5 -50t180.5 -50q15 0 23.5 7.5t8.5 17.5q0 14 -12 20t-33 -5q-16 31 0.5 54.5t45.5 23.5q21 0 37.5 -13.5t16.5 -35.5q0 -20 -11 -32.5t-28 -23t-35 -25.5t-34.5 -48.5t-24.5 -82.5zM1137 -280q40 0 81 15.5t41 39.5
q0 19 -28.5 30.5t-65.5 11.5q-57 0 -156 -37q58 -60 128 -60z" />
    <glyph glyph-name="K.titl" horiz-adv-x="883" 
d="M506 550l-30 -187l102 98q130 128 153 178q26 54 -38 54l1 7h284l-1 -7q-148 0 -394 -239l-79 -75q86 22 142.5 13t92.5 -55t73 -154q19 -56 32 -89.5t30.5 -71t35.5 -57t39 -24.5l-3 -3q-133 -27 -225 29t-118 188q-19 97 -42 154.5t-60 66.5l-27 -26l-31 -200
q-15 -80 -5 -111.5t57 -31.5l-1 -7h-379l1 7q26 0 45 4t32.5 15.5t21.5 22.5t15 35t10 42l9 54l52 341q7 47 34.5 80.5t67 50t73.5 24t70 9.5v1q-63 0 -179.5 49t-178.5 49q-48 0 -77 -20t-29 -58q0 -32 19.5 -47.5t46.5 -15.5q45 0 76 40q42 -19 53.5 -53.5t-3 -66.5
t-49.5 -56t-77 -24q-58 0 -103 40.5t-45 103.5q0 70 52.5 118t132.5 48q64 0 186.5 -50t180.5 -50q15 0 23.5 7.5t8.5 17.5q0 14 -12 20t-33 -5q-16 31 0.5 54.5t45.5 23.5q21 0 37.5 -13.5t16.5 -35.5q0 -20 -11 -32.5t-28 -23t-35 -25.5t-34.5 -48.5t-24.5 -82.5z" />
    <glyph glyph-name="L.alt" horiz-adv-x="717" 
d="M539 700l-1 -7q-34 0 -56.5 -3t-39.5 -13t-26.5 -19.5t-17.5 -33.5t-12 -44t-10 -60l-61 -389q-14 -74 -4 -98.5t62 -24.5q122 0 211 83.5t141 222.5h7l-111 -314h-631l1 7q26 0 45 4t32.5 15.5t21.5 22.5t15 35t10 42l9 54l52 340q6 38 8 55.5t3 42.5t-3.5 35t-14 21.5
t-27 15t-43.5 3.5l1 7h439z" />
    <glyph glyph-name="L.swsh" horiz-adv-x="690" 
d="M217 412q12 73 50 147t93.5 134.5t130.5 98.5t154 38q58 0 90 -30.5t32 -74.5q0 -53 -42.5 -92.5t-97.5 -39.5q-37 0 -60 23.5t-14 60.5q28 -1 45 20.5t17 48.5q0 22 -18 39t-48 17q-91 0 -123 -196l-60 -378q-10 -61 -39 -108t-68.5 -79t-80.5 -60t-84.5 -66t-70.5 -81
l1 -1q122 148 262 148q87 0 247.5 -45.5t314 -90.5t224.5 -45q67 0 110 40l4 -2q-99 -195 -260 -195q-67 0 -181.5 33.5t-219.5 73.5t-226.5 73.5t-201.5 33.5q-30 0 -49 -9.5t-41 -42.5l-7 4q22 38 53 79t51 66.5t39.5 71t28.5 104.5z" />
    <glyph glyph-name="M.alt" horiz-adv-x="1033" 
d="M1003 0h-399l1 7q67 0 86.5 31.5t36.5 141.5l77 491l-380 -705l-164 689l-57 -358q-6 -36 -9 -58t-5.5 -56t0 -55.5t9.5 -47t20.5 -39.5t36.5 -24t54 -10l-1 -7h-319l1 7q32 0 58.5 10.5t45.5 25.5t34.5 41.5t25 49.5t18.5 59.5t13 60t10 62.5l35 221q14 88 -6.5 122
t-102.5 34l1 7h345l100 -447l241 447h304l-1 -7q-26 0 -44.5 -3.5t-32 -15t-21.5 -21.5t-15 -35t-10 -42t-9 -56l-53 -340q-6 -38 -8 -54.5t-3 -41.5t3.5 -35t14 -22t27 -16t43.5 -4z" />
    <glyph glyph-name="M.calt" horiz-adv-x="1104" 
d="M783 150l40 262q19 121 99 220q-149 -147 -314 -441l-1 -3l-111 -222l-163 689l-57 -358q-6 -37 -9 -58t-5.5 -56t-0.5 -56t9 -46.5t20.5 -39.5t36.5 -24t54 -10l-1 -7h-319l1 7q37 0 66.5 12t50.5 37.5t35 50.5t25 67t16 69t13 73l64 397q72 -28 144 -25
q-45 7 -136.5 51.5t-151.5 44.5q-48 0 -77 -20t-29 -58q0 -32 19.5 -47.5t46.5 -15.5q45 0 76 40q42 -19 53.5 -53.5t-3 -66.5t-49.5 -56t-77 -24q-58 0 -103 40.5t-45 103.5q0 70 52.5 118t132.5 48q65 0 170 -50t164 -50q15 0 23.5 7.5t8.5 17.5q0 14 -12 20t-33 -5
q-16 31 0.5 54.5t45.5 23.5q21 0 37.5 -13.5t16.5 -35.5q0 -63 -65 -74l96 -429q206 348 365 452q65 52 150 85l2 -6q-74 -28 -99 -184l-68 -426q-5 -28 -6.5 -41.5t-4 -34.5t-1.5 -30.5t4 -23.5t9.5 -19.5t16.5 -12.5t24.5 -9t34.5 -2l-1 -7h-379l1 7q48 0 66.5 29.5
t31.5 113.5z" />
    <glyph glyph-name="M.titl" horiz-adv-x="1104" 
d="M783 150l40 262q17 114 90 214q-145 -148 -302 -429l-115 -231l-163 689l-57 -358q-6 -37 -9 -58t-5.5 -56t-0.5 -56t9 -46.5t20.5 -39.5t36.5 -24t54 -10l-1 -7h-319l1 7q37 0 66.5 12t50.5 37.5t35 50.5t25 67t16 69t13 73l64 397q72 -28 144 -25q-45 7 -136.5 51.5
t-151.5 44.5q-48 0 -77 -20t-29 -58q0 -32 19.5 -47.5t46.5 -15.5q45 0 76 40q42 -19 53.5 -53.5t-3 -66.5t-49.5 -56t-77 -24q-58 0 -103 40.5t-45 103.5q0 70 52.5 118t132.5 48q65 0 170 -50t164 -50q15 0 23.5 7.5t8.5 17.5q0 14 -12 20t-33 -5q-16 31 0.5 54.5
t45.5 23.5q21 0 37.5 -13.5t16.5 -35.5q0 -63 -65 -74l96 -428q182 309 327 425q71 73 155.5 116t140.5 43q43 0 65.5 -21t22.5 -54q0 -46 -32.5 -73.5t-71.5 -27.5q-38 0 -52 38q31 13 31 52q0 22 -13.5 37.5t-36.5 15.5q-26 0 -47.5 -21.5t-35.5 -56.5t-22 -65.5
t-13 -61.5l-68 -426q-5 -28 -6.5 -41.5t-4 -34.5t-1.5 -30.5t4 -23.5t9.5 -19.5t16.5 -12.5t24.5 -9t34.5 -2l-1 -7h-379l1 7q48 0 66.5 29.5t31.5 113.5z" />
    <glyph glyph-name="N.alt" horiz-adv-x="885" 
d="M758 384l-65 -418l-442 625l-47 -294q-7 -42 -10 -69.5t-5 -65.5t4.5 -62t19 -47.5t37 -34.5t60.5 -11l-1 -7h-319l1 7q36 0 65 11t49.5 35t34.5 49t25 65.5t17 70.5t14 78l31 190q8 56 7.5 97.5t-33 65.5t-102.5 24l1 7h332l298 -427l21 130q7 42 10 69.5t5 65.5
t-4.5 62t-19 47.5t-37 34.5t-60.5 11l1 7h319l-1 -7q-44 0 -77.5 -18.5t-53.5 -44.5t-35.5 -71.5t-23 -81.5t-16.5 -93z" />
    <glyph glyph-name="Ntilde.alt" horiz-adv-x="885" 
d="M758 384l-65 -418l-442 625l-47 -294q-7 -42 -10 -69.5t-5 -65.5t4.5 -62t19 -47.5t37 -34.5t60.5 -11l-1 -7h-319l1 7q36 0 65 11t49.5 35t34.5 49t25 65.5t17 70.5t14 78l31 190q8 56 7.5 97.5t-33 65.5t-102.5 24l1 7h332l298 -427l21 130q7 42 10 69.5t5 65.5
t-4.5 62t-19 47.5t-37 34.5t-60.5 11l1 7h319l-1 -7q-44 0 -77.5 -18.5t-53.5 -44.5t-35.5 -71.5t-23 -81.5t-16.5 -93zM368 774l-8 3q28 46 50 64t51 18q39 0 96 -43.5t95 -43.5q24 0 43 14.5t43 52.5l8 -3q-27 -44 -48 -59t-46 -15q-27 0 -54 13.5t-45 30t-44 30t-51 13.5
q-23 0 -43 -15.5t-47 -59.5z" />
    <glyph glyph-name="N.calt" horiz-adv-x="907" 
d="M830 273l69 435q17 107 44 167.5t58 81.5t77 21q49 0 71.5 -27t22.5 -61q0 -42 -27.5 -64t-63.5 -22q-45 0 -58 35q31 13 31 46q0 42 -42 42q-26 0 -48.5 -37t-33.5 -78.5t-18 -85.5l-119 -760l-442 625l-47 -294q-7 -42 -10 -69.5t-5 -65.5t4.5 -62t19 -47.5t37 -34.5
t60.5 -11l-1 -7h-319l1 7q36 0 65 11t49.5 35t34.5 49t25 65.5t17 70.5t14 78l31 190q10 49 5.5 112.5t-27.5 85.5q65 -20 170 -15q-45 7 -135.5 51t-151.5 44q-48 0 -77 -20t-29 -58q0 -32 19.5 -47.5t46.5 -15.5q45 0 76 40q55 -25 58.5 -74t-37 -87.5t-98.5 -38.5
t-102.5 40.5t-44.5 104.5q0 69 52.5 117t131.5 48q52 0 112.5 -25t116 -50t96.5 -25q42 0 42 24q0 15 -12 21t-33 -5q-16 31 0.5 54.5t46.5 23.5q20 0 36.5 -13t16.5 -41q0 -56 -67 -69z" />
    <glyph glyph-name="N.titl" horiz-adv-x="985" 
d="M830 273l50 315q44 278 207 278q53 0 76 -29t23 -66q0 -47 -32 -75t-70 -28q-40 0 -54 38q31 13 31 52q0 22 -13 37.5t-36 15.5q-26 0 -47.5 -21t-35.5 -55t-22.5 -65.5t-13.5 -63.5l-100 -640l-442 625l-47 -294q-7 -42 -10 -69.5t-5 -65.5t4.5 -62t19 -47.5t37 -34.5
t60.5 -11l-1 -7h-319l1 7q36 0 65 11t49.5 35t34.5 49t25 65.5t17 70.5t14 78l31 190q10 49 5.5 112.5t-27.5 85.5q65 -20 170 -15q-45 7 -135.5 51t-151.5 44q-48 0 -77 -20t-29 -58q0 -32 19.5 -47.5t46.5 -15.5q45 0 76 40q55 -25 58.5 -74t-37 -87.5t-98.5 -38.5
t-102.5 40.5t-44.5 104.5q0 69 52.5 117t131.5 48q52 0 112.5 -25t116 -50t96.5 -25q42 0 42 24q0 15 -12 21t-33 -5q-16 31 0.5 54.5t46.5 23.5q20 0 36.5 -13t16.5 -41q0 -56 -67 -69z" />
    <glyph glyph-name="O.alt" horiz-adv-x="797" 
d="M492 707q140 0 229.5 -82t89.5 -215q0 -109 -57.5 -205t-157.5 -154t-217 -58q-133 0 -225.5 79.5t-92.5 215.5q0 172 126 295.5t305 123.5zM380 1q60 0 106 56.5t70 142.5t35.5 169t11.5 155q0 175 -112 175q-51 0 -92 -42.5t-64.5 -104t-39 -137.5t-21 -135.5
t-5.5 -105.5q0 -173 111 -173z" />
    <glyph glyph-name="Ograve.alt" horiz-adv-x="797" 
d="M492 707q140 0 229.5 -82t89.5 -215q0 -109 -57.5 -205t-157.5 -154t-217 -58q-133 0 -225.5 79.5t-92.5 215.5q0 172 126 295.5t305 123.5zM380 1q60 0 106 56.5t70 142.5t35.5 169t11.5 155q0 175 -112 175q-51 0 -92 -42.5t-64.5 -104t-39 -137.5t-21 -135.5
t-5.5 -105.5q0 -173 111 -173zM522 762l-4 -6l-215 98q0 12 9.5 21t22.5 9t36.5 -15t71 -50.5t79.5 -56.5z" />
    <glyph glyph-name="Oacute.alt" horiz-adv-x="797" 
d="M492 707q140 0 229.5 -82t89.5 -215q0 -109 -57.5 -205t-157.5 -154t-217 -58q-133 0 -225.5 79.5t-92.5 215.5q0 172 126 295.5t305 123.5zM380 1q60 0 106 56.5t70 142.5t35.5 169t11.5 155q0 175 -112 175q-51 0 -92 -42.5t-64.5 -104t-39 -137.5t-21 -135.5
t-5.5 -105.5q0 -173 111 -173zM476 756l-3 6q40 22 98 57t86.5 50t41.5 15q23 0 23 -24z" />
    <glyph glyph-name="Ocircumflex.alt" horiz-adv-x="797" 
d="M492 707q140 0 229.5 -82t89.5 -215q0 -109 -57.5 -205t-157.5 -154t-217 -58q-133 0 -225.5 79.5t-92.5 215.5q0 172 126 295.5t305 123.5zM380 1q60 0 106 56.5t70 142.5t35.5 169t11.5 155q0 175 -112 175q-51 0 -92 -42.5t-64.5 -104t-39 -137.5t-21 -135.5
t-5.5 -105.5q0 -173 111 -173zM520 867l135 -120l-6 -5l-138 67l-160 -67l-4 5z" />
    <glyph glyph-name="Otilde.alt" horiz-adv-x="797" 
d="M492 707q140 0 229.5 -82t89.5 -215q0 -109 -57.5 -205t-157.5 -154t-217 -58q-133 0 -225.5 79.5t-92.5 215.5q0 172 126 295.5t305 123.5zM380 1q60 0 106 56.5t70 142.5t35.5 169t11.5 155q0 175 -112 175q-51 0 -92 -42.5t-64.5 -104t-39 -137.5t-21 -135.5
t-5.5 -105.5q0 -173 111 -173zM318 774l-8 3q28 46 50 64t51 18q39 0 96 -43.5t95 -43.5q24 0 43 14.5t43 52.5l8 -3q-27 -44 -48 -59t-46 -15q-27 0 -54 13.5t-45 30t-44 30t-51 13.5q-23 0 -43 -15.5t-47 -59.5z" />
    <glyph glyph-name="Odieresis.alt" horiz-adv-x="797" 
d="M492 707q140 0 229.5 -82t89.5 -215q0 -109 -57.5 -205t-157.5 -154t-217 -58q-133 0 -225.5 79.5t-92.5 215.5q0 172 126 295.5t305 123.5zM380 1q60 0 106 56.5t70 142.5t35.5 169t11.5 155q0 175 -112 175q-51 0 -92 -42.5t-64.5 -104t-39 -137.5t-21 -135.5
t-5.5 -105.5q0 -173 111 -173zM420 861q19 0 31.5 -13.5t12.5 -32.5q0 -25 -18.5 -43t-42.5 -18q-19 0 -31.5 13.5t-12.5 33.5q0 24 18.5 42t42.5 18zM618 861q19 0 31.5 -13.5t12.5 -32.5q0 -25 -18.5 -43t-42.5 -18q-19 0 -31.5 13.5t-12.5 33.5q0 24 18.5 42t42.5 18z
" />
    <glyph glyph-name="Oslash.alt" horiz-adv-x="797" 
d="M492 707q94 0 167 -38l47 65l7 -5l-47 -65q68 -37 106.5 -103t38.5 -151q0 -109 -57.5 -205t-157.5 -154t-217 -58q-93 0 -167 39l-47 -66l-7 5l47 65q-67 36 -105.5 101t-38.5 151q0 172 126 295.5t305 123.5zM380 1q60 0 106 56.5t70 142.5t35.5 169t11.5 155
q0 26 -3 48l-327 -456q16 -115 107 -115zM269 174q0 -31 2 -46l328 457q-18 114 -108 114q-51 0 -92 -42.5t-64.5 -104t-39 -137.5t-21 -135.5t-5.5 -105.5z" />
    <glyph glyph-name="OE.alt" horiz-adv-x="1152" 
d="M1167 700l-13 -241h-9q5 118 -44.5 175t-170.5 57h-97l-51 -330q84 0 143.5 40t76.5 117h7l-67 -323h-7q14 72 -29.5 115.5t-124.5 43.5l-40 -253q-8 -53 1.5 -72.5t42.5 -19.5q274 0 369 289h10l-93 -298h-543l3 22q-69 -29 -152 -29q-133 0 -225.5 79.5t-92.5 215.5
q0 172 126 295.5t305 123.5q79 0 139 -29l4 22h532zM380 1q60 0 106 56.5t70 142.5t35.5 169t11.5 155q0 175 -112 175q-51 0 -92 -42.5t-64.5 -104t-39 -137.5t-21 -135.5t-5.5 -105.5q0 -173 111 -173z" />
    <glyph glyph-name="P.alt" horiz-adv-x="723" 
d="M403 693l-81 -513q-9 -60 -10 -98.5t21.5 -56.5t78.5 -18l-1 -7h-421l1 7q31 0 52 8t33 18t21.5 36.5t13.5 46.5t11 64l53 340q5 34 7 48.5t4 38t-0.5 33t-7.5 23t-15.5 18t-26 8.5t-37.5 4l1 7h357q148 0 222 -39.5t74 -125.5q0 -69 -35.5 -119t-95 -75.5t-122 -37
t-131.5 -11.5h-18l1 8h15q50 0 86.5 24.5t55 66t27 86t8.5 94.5q0 63 -27 92.5t-86 29.5h-28z" />
    <glyph glyph-name="P.titl" horiz-adv-x="848" 
d="M485 270l1 8q41 -3 73.5 14.5t52 47.5t32.5 70.5t18 80t5 79.5q0 54 -19.5 87t-55.5 33q-32 0 -53.5 -31.5t-33.5 -108.5l-58 -370q-10 -60 -10.5 -98.5t22 -56.5t78.5 -18l-1 -7h-421l1 7q31 0 52 8t33 18t21.5 36.5t13.5 46.5t11 64l53 340q7 47 35 80.5t67.5 50.5
t74 24.5t69.5 9.5v1q-63 0 -179.5 49t-178.5 49q-48 0 -77 -20t-29 -58q0 -32 19.5 -47.5t46.5 -15.5q45 0 76 40q42 -19 53.5 -53.5t-3 -66.5t-49.5 -56t-77 -24q-58 0 -103 40.5t-45 103.5q0 70 52.5 118t132.5 48q64 0 186.5 -50t180.5 -50q15 0 23.5 7.5t8.5 17.5
q0 14 -12 20t-33 -5q-16 31 0.5 54.5t45.5 23.5q23 0 39 -13.5t16 -40.5q0 -43 -59 -62q34 6 53 6q113 0 177 -44t64 -133q0 -72 -38.5 -127.5t-98 -84.5t-126.5 -40.5t-127 -1.5z" />
    <glyph glyph-name="Q.alt" horiz-adv-x="797" 
d="M492 707q140 0 229.5 -82t89.5 -215q0 -166 -125.5 -290.5t-301.5 -126.5l-109 -150q58 63 119.5 95t105.5 32q40 0 138 -34t133 -34q34 0 66 41l4 -2q-95 -177 -211 -177q-54 0 -152 41t-156 41q-40 0 -69 -34l-13 -18l-7 4l142 195q-133 2 -223.5 81t-90.5 214
q0 172 126 295.5t305 123.5zM380 1q60 0 106 56.5t70 142.5t35.5 169t11.5 155q0 175 -112 175q-51 0 -92 -42.5t-64.5 -104t-39 -137.5t-21 -135.5t-5.5 -105.5q0 -173 111 -173z" />
    <glyph glyph-name="Q.swsh" horiz-adv-x="850" 
d="M247 -58q-66 0 -113.5 13t-67 29.5t-19.5 33.5q0 20 26 31.5t58 11.5q77 0 320 -49q108 71 163.5 207t54.5 281q-1 119 -41.5 192.5t-131.5 73.5q-65 0 -117.5 -40t-83.5 -103.5t-47 -135t-16 -142.5q0 -165 96 -165q44 0 66 28t22 76q0 38 -23 62t-60 25q-6 53 30 92
t93 39q59 0 93.5 -36.5t34.5 -88.5q0 -60 -40 -108.5t-96 -73t-112 -24.5q-27 0 -58 8t-66.5 28t-64 49t-47.5 77t-19 106q0 151 115.5 243.5t286.5 92.5q72 0 139 -18t123.5 -53t90.5 -94.5t34 -135.5q0 -135 -98.5 -269t-256.5 -205q460 -96 699 -138q403 -70 631 -70
q130 0 220 19t162 64l4 -2q-41 -80 -76.5 -127t-88 -84.5t-123 -52.5t-173.5 -15q-136 0 -282 25.5t-291 73t-259.5 91.5t-260 104.5t-220.5 88.5q-103 -35 -210 -35zM243 -48q93 0 173 40q-173 60 -270 60q-29 0 -43.5 -10.5t-14.5 -24.5q0 -24 41.5 -44.5t113.5 -20.5z
" />
    <glyph glyph-name="R.alt" horiz-adv-x="830" 
d="M418 691l-81 -511q-19 -89 -9.5 -131t69.5 -42l-1 -7h-390l1 7q31 0 52 8t33.5 18t21.5 36.5t13 46.5t11 64l54 340q6 38 8 55.5t3 42.5t-3.5 35t-14.5 21.5t-27.5 15t-43.5 3.5l1 7h295q42 0 69.5 -0.5t69.5 -3.5t70 -8t60 -15.5t51 -25.5t32 -37.5t13 -51.5
q0 -55 -30 -95.5t-81 -62t-100.5 -31.5t-106.5 -13v-2q59 0 101 -9t67 -21.5t44 -40.5t28.5 -50.5t23.5 -67.5q6 -18 11.5 -38t9 -32t7.5 -26t6.5 -21t6.5 -16.5t7 -12t9 -8t11 -4.5t14 -1.5t18 1.5l-1 -7q-118 -18 -154 -18q-68 0 -106 38t-50.5 92t-22 108.5t-33 92.5
t-70.5 38h-9l1 8h18q86 0 127 61.5t41 155.5q0 115 -115 115h-29z" />
    <glyph glyph-name="R.swsh" horiz-adv-x="888" 
d="M485 309l-1 2q109 42 146 105t37 166q0 108 -75 108q-32 0 -53.5 -31.5t-33.5 -108.5l-58 -370q-10 -60 -10.5 -98.5t22 -56.5t78.5 -18l-1 -7h-421l1 7q31 0 52 8t33 18t21.5 36.5t13.5 46.5t11 64l53 340q7 47 35 80.5t67.5 50.5t74 24.5t69.5 9.5v1q-63 0 -179.5 49
t-178.5 49q-48 0 -77 -20t-29 -58q0 -32 19.5 -47.5t46.5 -15.5q45 0 76 40q42 -19 53.5 -53.5t-3 -66.5t-49.5 -56t-77 -24q-58 0 -103 40.5t-45 103.5q0 70 52.5 118t132.5 48q64 0 186.5 -50t180.5 -50q15 0 23.5 7.5t8.5 17.5q0 14 -12 20t-33 -5q-16 31 0.5 54.5
t45.5 23.5q23 0 39 -13.5t16 -40.5q0 -43 -59 -62q34 6 53 6q246 0 246 -154q0 -32 -14 -60t-32.5 -48t-54.5 -39t-62 -30t-74 -24t-71.5 -18.5t-72.5 -15.5q-9 -2 -14 -3zM486 306l-1 3q79 10 141 5.5t113 -43.5t87 -118q13 -29 47 -116t64.5 -148t66.5 -102q98 38 158 38
q41 0 73 -13.5t32 -34.5q0 -14 -11.5 -27.5t-50 -26t-97.5 -12.5q-99 0 -186 36q-185 -69 -326 -69q-105 0 -237 32t-251 64t-193 32q-63 0 -99 -43l-5 3q51 101 131 147t163 46q60 0 123.5 -24t121.5 -57.5t119 -67.5t138 -58t157 -24q65 0 145 25q-184 85 -288 358
q-31 81 -67 138t-68 57zM1134 -280q40 0 81.5 15.5t41.5 39.5q0 19 -28.5 30.5t-65.5 11.5q-58 0 -154 -36q58 -61 125 -61z" />
    <glyph glyph-name="R.titl" horiz-adv-x="886" 
d="M485 309l-1 2q109 42 146 105t37 166q0 108 -75 108q-32 0 -53.5 -31.5t-33.5 -108.5l-58 -370q-10 -60 -10.5 -98.5t22 -56.5t78.5 -18l-1 -7h-421l1 7q31 0 52 8t33 18t21.5 36.5t13.5 46.5t11 64l53 340q7 47 35 80.5t67.5 50.5t74 24.5t69.5 9.5v1q-63 0 -179.5 49
t-178.5 49q-48 0 -77 -20t-29 -58q0 -32 19.5 -47.5t46.5 -15.5q45 0 76 40q42 -19 53.5 -53.5t-3 -66.5t-49.5 -56t-77 -24q-58 0 -103 40.5t-45 103.5q0 70 52.5 118t132.5 48q64 0 186.5 -50t180.5 -50q15 0 23.5 7.5t8.5 17.5q0 14 -12 20t-33 -5q-16 31 0.5 54.5
t45.5 23.5q23 0 39 -13.5t16 -40.5q0 -43 -59 -62q34 6 53 6q246 0 246 -154q0 -32 -14 -60t-32.5 -48t-54.5 -39t-62 -30t-74 -24t-71.5 -18.5t-72.5 -15.5q-9 -2 -14 -3zM486 306l-1 3q59 10 95 13.5t80 -1t72.5 -22.5t55 -55t44.5 -95q32 -104 58 -151t66 -57l-3 -3
q-43 -9 -82 -9q-107 0 -169.5 42.5t-83.5 149.5q-16 82 -51 132t-81 53z" />
    <glyph glyph-name="S.alt" horiz-adv-x="611" 
d="M289 2q66 0 121.5 32.5t55.5 87.5q0 33 -27.5 61.5t-68.5 47t-89.5 42.5t-89.5 47.5t-68.5 63.5t-27.5 89q0 70 46.5 124.5t118 82t153.5 27.5q103 0 166.5 -28t63.5 -89q0 -51 -36 -82.5t-81 -31.5q-39 0 -62 23.5t-18 68.5q22 10 39 30.5t17 43.5t-21.5 39.5
t-65.5 16.5q-65 0 -109 -31t-44 -81q0 -39 38 -69t92 -52.5t107.5 -47.5t91.5 -68.5t38 -102.5q0 -76 -51 -135t-131 -88.5t-172 -29.5q-118 0 -177 45t-59 106q0 48 34 83t87 35q39 0 62 -24.5t18 -71.5q-48 -24 -48 -84q0 -34 23 -57t74 -23z" />
    <glyph glyph-name="T.alt" horiz-adv-x="755" 
d="M141 700h669l-13 -236h-9q6 117 -43 172t-171 55l-80 -511q-6 -36 -8.5 -54t-3 -42t4 -35t14 -22.5t27 -15.5t43.5 -4l-1 -7h-409l1 7q26 0 45 4t32 15.5t21.5 22t15 35.5t9.5 42t9 54l81 511q-122 0 -188 -55t-98 -172h-9z" />
    <glyph glyph-name="U.alt" horiz-adv-x="854" 
d="M727 384l-23 -146q-20 -128 -90 -186.5t-201 -58.5q-77 0 -128.5 10.5t-89.5 38t-50.5 79t-0.5 128.5l43 271q6 38 8 55.5t3 42.5t-3.5 35t-14 21.5t-27 15t-43.5 3.5l1 7h388v-7q-54 0 -75 -35.5t-37 -137.5l-37 -238q-6 -38 -9 -65t-4 -62t5 -58.5t18.5 -45.5t36 -33
t56.5 -11q97 0 159 57t81 174l27 165q7 42 10 69.5t5 65.5t-4.5 62t-19 47.5t-37 34.5t-60.5 11l1 7h319l-1 -7q-36 0 -65 -11t-49.5 -35t-35 -49t-25.5 -65.5t-17 -71t-14 -77.5z" />
    <glyph glyph-name="Ugrave.alt" horiz-adv-x="854" 
d="M727 384l-23 -146q-20 -128 -90 -186.5t-201 -58.5q-77 0 -128.5 10.5t-89.5 38t-50.5 79t-0.5 128.5l43 271q6 38 8 55.5t3 42.5t-3.5 35t-14 21.5t-27 15t-43.5 3.5l1 7h388v-7q-54 0 -75 -35.5t-37 -137.5l-37 -238q-6 -38 -9 -65t-4 -62t5 -58.5t18.5 -45.5t36 -33
t56.5 -11q97 0 159 57t81 174l27 165q7 42 10 69.5t5 65.5t-4.5 62t-19 47.5t-37 34.5t-60.5 11l1 7h319l-1 -7q-36 0 -65 -11t-49.5 -35t-35 -49t-25.5 -65.5t-17 -71t-14 -77.5zM581 762l-4 -6l-215 98q0 12 9.5 21t22.5 9t36.5 -15t71 -50.5t79.5 -56.5z" />
    <glyph glyph-name="Uacute.alt" horiz-adv-x="854" 
d="M727 384l-23 -146q-20 -128 -90 -186.5t-201 -58.5q-77 0 -128.5 10.5t-89.5 38t-50.5 79t-0.5 128.5l43 271q6 38 8 55.5t3 42.5t-3.5 35t-14 21.5t-27 15t-43.5 3.5l1 7h388v-7q-54 0 -75 -35.5t-37 -137.5l-37 -238q-6 -38 -9 -65t-4 -62t5 -58.5t18.5 -45.5t36 -33
t56.5 -11q97 0 159 57t81 174l27 165q7 42 10 69.5t5 65.5t-4.5 62t-19 47.5t-37 34.5t-60.5 11l1 7h319l-1 -7q-36 0 -65 -11t-49.5 -35t-35 -49t-25.5 -65.5t-17 -71t-14 -77.5zM535 756l-3 6q40 22 98 57t86.5 50t41.5 15q23 0 23 -24z" />
    <glyph glyph-name="Ucircumflex.alt" horiz-adv-x="854" 
d="M727 384l-23 -146q-20 -128 -90 -186.5t-201 -58.5q-77 0 -128.5 10.5t-89.5 38t-50.5 79t-0.5 128.5l43 271q6 38 8 55.5t3 42.5t-3.5 35t-14 21.5t-27 15t-43.5 3.5l1 7h388v-7q-54 0 -75 -35.5t-37 -137.5l-37 -238q-6 -38 -9 -65t-4 -62t5 -58.5t18.5 -45.5t36 -33
t56.5 -11q97 0 159 57t81 174l27 165q7 42 10 69.5t5 65.5t-4.5 62t-19 47.5t-37 34.5t-60.5 11l1 7h319l-1 -7q-36 0 -65 -11t-49.5 -35t-35 -49t-25.5 -65.5t-17 -71t-14 -77.5zM579 867l135 -120l-6 -5l-138 67l-160 -67l-4 5z" />
    <glyph glyph-name="Udieresis.alt" horiz-adv-x="854" 
d="M727 384l-23 -146q-20 -128 -90 -186.5t-201 -58.5q-77 0 -128.5 10.5t-89.5 38t-50.5 79t-0.5 128.5l43 271q6 38 8 55.5t3 42.5t-3.5 35t-14 21.5t-27 15t-43.5 3.5l1 7h388v-7q-54 0 -75 -35.5t-37 -137.5l-37 -238q-6 -38 -9 -65t-4 -62t5 -58.5t18.5 -45.5t36 -33
t56.5 -11q97 0 159 57t81 174l27 165q7 42 10 69.5t5 65.5t-4.5 62t-19 47.5t-37 34.5t-60.5 11l1 7h319l-1 -7q-36 0 -65 -11t-49.5 -35t-35 -49t-25.5 -65.5t-17 -71t-14 -77.5zM479 861q19 0 31.5 -13.5t12.5 -32.5q0 -25 -18.5 -43t-42.5 -18q-19 0 -31.5 13.5
t-12.5 33.5q0 24 18.5 42t42.5 18zM677 861q19 0 31.5 -13.5t12.5 -32.5q0 -25 -18.5 -43t-42.5 -18q-19 0 -31.5 13.5t-12.5 33.5q0 24 18.5 42t42.5 18z" />
    <glyph glyph-name="V.alt" horiz-adv-x="893" 
d="M547 201l119 200q18 31 31 55.5t30.5 62t22.5 65t3 54t-23.5 41t-60.5 14.5l1 7h293l-1 -7q-39 0 -76.5 -22.5t-79 -76t-59.5 -81t-60 -97.5q-7 -11 -10 -16l-260 -434l-172 556q-30 94 -58 132.5t-77 38.5l1 7h414l-1 -7q-116 0 -70 -162z" />
    <glyph glyph-name="W.alt" horiz-adv-x="1248" 
d="M536 219l138 216l-38 147q-17 67 -32.5 89t-48.5 22l1 7h368l-1 -7q-93 0 -57 -144l81 -318l101 169q30 51 50 97t30 93t-11 75t-74 28l1 7h274l-1 -7q-39 0 -82 -40.5t-73.5 -86t-95.5 -153.5q-6 -9 -8 -13l-262 -434l-120 453l-288 -453l-156 556q-10 37 -16 56t-17 45
t-22.5 38.5t-28.5 22t-38 9.5l1 7h374l-1 -7q-34 0 -46.5 -26.5t-1.5 -69.5z" />
    <glyph glyph-name="X.alt" horiz-adv-x="862" 
d="M563 433l159 -297q38 -72 67 -100.5t69 -28.5l-1 -7h-406l1 7q35 0 49.5 16t7.5 46.5t-18.5 56t-31.5 62.5l-62 113q-81 -86 -111 -175q-33 -99 37 -116q13 -3 29 -3l-1 -7h-337l1 7q40 0 80.5 18t83.5 56.5t71.5 68t76 85t65.5 74.5l-133 247q-45 84 -72 110.5t-73 26.5
l1 7h429l-1 -7q-50 0 -62.5 -36.5t10.5 -78.5l66 -138q125 136 135 206q7 47 -50 47l1 7h284l-1 -7q-44 0 -93 -23.5t-100 -67t-87.5 -80.5t-82.5 -89z" />
    <glyph glyph-name="Y.alt" horiz-adv-x="867" 
d="M562 315l-21 -135q-4 -27 -5.5 -37t-4 -31.5t-2 -29l1.5 -22.5t5.5 -20t11 -13.5t16.5 -11.5t23.5 -5.5t30.5 -2.5l-1 -7h-410l1 7q20 0 35 2t27 9t20.5 12.5t15.5 20t11 23t9 30.5t7 34l7 42l17 104l-123 287q-31 71 -54 96.5t-70 25.5l1 7h414l-1 -7q-31 0 -48.5 -11.5
t-22.5 -26.5t-2 -39t8.5 -39.5t13.5 -36.5l85 -216l64 97q90 136 105 189q22 82 -65 83l1 7h284l-1 -7q-137 0 -317 -275z" />
    <glyph glyph-name="Yacute.alt" horiz-adv-x="867" 
d="M562 315l-21 -135q-4 -27 -5.5 -37t-4 -31.5t-2 -29l1.5 -22.5t5.5 -20t11 -13.5t16.5 -11.5t23.5 -5.5t30.5 -2.5l-1 -7h-410l1 7q20 0 35 2t27 9t20.5 12.5t15.5 20t11 23t9 30.5t7 34l7 42l17 104l-123 287q-31 71 -54 96.5t-70 25.5l1 7h414l-1 -7q-31 0 -48.5 -11.5
t-22.5 -26.5t-2 -39t8.5 -39.5t13.5 -36.5l85 -216l64 97q90 136 105 189q22 82 -65 83l1 7h284l-1 -7q-137 0 -317 -275zM557 756l-3 6q40 22 98 57t86.5 50t41.5 15q23 0 23 -24z" />
    <glyph glyph-name="Ydieresis.alt" horiz-adv-x="867" 
d="M562 315l-21 -135q-4 -27 -5.5 -37t-4 -31.5t-2 -29l1.5 -22.5t5.5 -20t11 -13.5t16.5 -11.5t23.5 -5.5t30.5 -2.5l-1 -7h-410l1 7q20 0 35 2t27 9t20.5 12.5t15.5 20t11 23t9 30.5t7 34l7 42l17 104l-123 287q-31 71 -54 96.5t-70 25.5l1 7h414l-1 -7q-31 0 -48.5 -11.5
t-22.5 -26.5t-2 -39t8.5 -39.5t13.5 -36.5l85 -216l64 97q90 136 105 189q22 82 -65 83l1 7h284l-1 -7q-137 0 -317 -275zM501 861q19 0 31.5 -13.5t12.5 -32.5q0 -25 -18.5 -43t-42.5 -18q-19 0 -31.5 13.5t-12.5 33.5q0 24 18.5 42t42.5 18zM699 861q19 0 31.5 -13.5
t12.5 -32.5q0 -25 -18.5 -43t-42.5 -18q-19 0 -31.5 13.5t-12.5 33.5q0 24 18.5 42t42.5 18z" />
    <glyph glyph-name="Y.calt" horiz-adv-x="565" 
d="M402 271q92 96 168.5 228t76.5 217q0 30 -17 45t-41 15q-22 0 -40.5 -13t-21.5 -34q-33 2 -51 24.5t-18 53.5q0 45 30.5 72.5t70.5 27.5q46 0 79 -36.5t33 -105.5q0 -96 -68 -229t-166 -243l-17 -113q-4 -27 -5.5 -37t-4 -31.5t-2 -29l1.5 -22.5t5.5 -20t11 -13.5
t16.5 -11.5t23.5 -5.5t30.5 -2.5l-1 -7h-410l1 7q31 0 52.5 8t34 18t22 36.5t13.5 46.5t11 64l15 101q-12 96 -38.5 182.5t-66 146t-80.5 59.5q-19 0 -47 -23l-3 5q37 32 86.5 54t97.5 22q68 0 118.5 -41.5t74.5 -107t32.5 -146.5t-7.5 -161z" />
    <glyph glyph-name="Z.alt" horiz-adv-x="684" 
d="M513 691h-111q-120 0 -189 -63.5t-100 -183.5h-10l66 256h583l-515 -691h72q140 0 235 82t141 222h10l-99 -313h-596z" />
    <glyph glyph-name="Z.swsh" horiz-adv-x="617" 
d="M222 362l-2 -3q-53 25 -88.5 81.5t-35.5 111.5q0 65 46 120.5t121 55.5q45 0 97 -25t91.5 -54.5t88 -54.5t88.5 -25q20 0 36 10.5t16 31.5q0 20 -21.5 28.5t-44.5 -9.5q-23 46 -2 77.5t62 31.5q27 0 46.5 -17.5t19.5 -55.5q0 -57 -54 -88q-20 -62 -101 -167t-205 -217
t-238 -168q59 -16 180 -58t215 -72t234 -55.5t272 -25.5q64 0 103 8t67 31l4 -2q-63 -115 -142.5 -175t-192.5 -60q-82 0 -170 30t-168 79t-152 100t-150.5 104t-135.5 79q-76 -30 -137 -30q-42 0 -75.5 11t-33.5 27q0 15 32 26t81 11q66 0 154 -24q164 78 336.5 257.5
t209.5 283.5q-39 -19 -106.5 -29t-130.5 -15t-122 -13.5t-95 -31t-36 -61.5q0 -35 39 -59zM-26 -10q50 0 118 25q-66 30 -122 30q-30 0 -54.5 -7.5t-24.5 -18.5t24.5 -20t58.5 -9z" />
    <glyph glyph-name="Thorn.alt" horiz-adv-x="694" 
d="M398 0h-408l1 7q31 0 52 8t33.5 18t22 36.5t13.5 46.5t11 64l53 340q6 38 8.5 55.5t3.5 42t-3.5 35t-14.5 22t-27.5 15t-43.5 3.5l1 7h409l-1 -7q-66 0 -90 -30t-37 -109h46q163 0 236.5 -48.5t56.5 -154.5q-8 -49 -37 -86.5t-68 -59.5t-89.5 -36t-95 -18.5t-91.5 -4.5
h-23q-12 -78 2.5 -108.5t80.5 -30.5zM401 547h-21l-63 -393h19q75 0 114.5 46.5t56.5 150.5q16 103 -8.5 149.5t-97.5 46.5z" />
    <glyph glyph-name="a.swsh" 
d="M378 524q-39 0 -76.5 -65.5t-59 -157.5t-21.5 -175q0 -79 35 -79q44 0 88 93t65 210l11 61q12 61 3 87t-45 26zM355 20l61 288l-4 1q-45 -176 -101 -246t-129 -70t-107.5 53.5t-34.5 131.5q0 80 42.5 161.5t119.5 137t164 55.5q30 0 69.5 -12t66 -21.5t58 -4t56.5 33.5
q-103 -647 -103 -703q0 -51 20 -78.5t51 -27.5q24 0 42 20t18 54q0 17 -11 34t-28 22q2 44 33.5 69.5t71.5 25.5q36 0 62 -23t26 -62q0 -73 -64.5 -110.5t-150.5 -37.5q-46 0 -92 21.5t-82 60t-52.5 98.5t-1.5 129z" />
    <glyph glyph-name="a.titl" 
d="M616 528l-53 -310q-34 -194 20 -215l-3 -3q-35 -7 -66 -7.5t-62 7t-49.5 26t-27.5 49.5t4 79l37 154l-4 1q-45 -176 -101 -246t-129 -70t-107.5 53.5t-34.5 131.5q0 16 1 24q-58 -156 -132 -219t-171 -63q-100 0 -161 52t-61 136q0 85 61.5 138t141.5 53q78 0 139 -43
t61 -115q0 -52 -36 -87.5t-94 -35.5q-45 0 -73 31.5t-15 75.5q36 1 61 28t25 66q0 36 -25.5 54t-57.5 18q-56 0 -101.5 -52t-45.5 -128q0 -30 8.5 -58.5t27.5 -57.5t57.5 -47t91.5 -18q101 0 176 74.5t134 255.5q29 109 117 190.5t197 81.5q30 0 69.5 -12t66 -21.5t58 -4
t56.5 33.5zM378 524q-39 0 -76.5 -65.5t-59 -157.5t-21.5 -175q0 -79 35 -79q44 0 88 93t65 210l11 61q12 61 3 87t-45 26z" />
    <glyph glyph-name="a.hist" 
d="M378 524q-39 0 -76.5 -65.5t-59 -157.5t-21.5 -175q0 -79 35 -79q44 0 88 93t65 210l11 61q12 61 3 87t-45 26zM616 528l-63 -375q-5 -29 -7.5 -47.5t-4 -48t1 -49t10 -42.5t21 -36.5t36.5 -22.5t54 -9q115 0 209 87t94 199q0 70 -37 101.5t-86 31.5q-39 0 -66.5 -25
t-27.5 -65q0 -33 20 -54t52 -22q5 -44 -28.5 -75.5t-78.5 -31.5q-52 0 -81.5 29t-29.5 73q0 52 39 94t93 63.5t108 21.5q72 0 117 -35t45 -106q0 -73 -47.5 -141.5t-125.5 -111t-161 -42.5q-154 0 -237.5 74t-55.5 191l37 154l-4 1q-45 -176 -101 -246t-129 -70t-107.5 53.5
t-34.5 131.5q0 80 42.5 161.5t119.5 137t164 55.5q30 0 69.5 -12t66 -21.5t58 -4t56.5 33.5z" />
    <glyph glyph-name="b.swsh" horiz-adv-x="627" 
d="M468 803q-37 0 -67 -37t-44 -78t-21 -82l-80 -492q-17 -105 25 -105t86.5 76.5t72 179t27.5 179.5q0 64 -27 64q-32 0 -72 -51.5t-67 -136.5l-6 3q38 120 88 168.5t115 48.5q71 0 109.5 -43.5t38.5 -124.5q0 -50 -12 -101.5t-37.5 -101.5t-61.5 -89t-88 -63t-112 -24
q-115 0 -185 65.5t-54 165.5l31 188q14 87 65.5 170t117 139.5t134 91t120.5 34.5q43 0 65.5 -22.5t22.5 -55.5q0 -39 -29.5 -69.5t-79.5 -30.5q-36 0 -47 37q30 16 30 48q0 20 -15.5 34.5t-42.5 14.5z" />
    <glyph glyph-name="b.titl" horiz-adv-x="590" 
d="M372 785l2 -9q-55 -23 -73 -134l-86 -528q-17 -105 25 -105q41 0 85.5 74.5t72 174.5t28.5 178q0 72 -27 72q-31 0 -70.5 -51.5t-66.5 -136.5l-8 3q38 120 88 168.5t115 48.5q71 0 109.5 -43.5t38.5 -124.5q0 -50 -12 -101.5t-37.5 -101.5t-61.5 -89t-88 -63t-112 -24
q-115 0 -185 65.5t-54 165.5l53 330q13 83 82 140.5t173 82.5q-52 -2 -106 -20.5t-100 -44.5t-91.5 -51.5t-97 -43t-100.5 -17.5q-70 0 -116 31.5t-46 97.5q0 45 30 78t81 33q44 0 76.5 -33t15.5 -84q-31 13 -56.5 -2t-25.5 -47q0 -26 18 -44t45 -18q47 0 109 27t114.5 59
t124 59.5t134.5 27.5z" />
    <glyph glyph-name="b.001" horiz-adv-x="590" 
d="M372 785l2 -9q-55 -23 -73 -134l-86 -528q-17 -105 25 -105q41 0 85.5 74.5t72 174.5t28.5 178q0 72 -27 72q-31 0 -70.5 -51.5t-66.5 -136.5l-8 3q38 120 88 168.5t115 48.5q71 0 109.5 -43.5t38.5 -124.5q0 -50 -12 -101.5t-37.5 -101.5t-61.5 -89t-88 -63t-112 -24
q-115 0 -185 65.5t-54 165.5l53 330q13 81 78 137t163 83q-80 -13 -167 -4t-148 25t-124 31.5t-96 15.5q-42 0 -67 -17.5t-25 -52.5q0 -28 17 -41.5t40 -13.5q41 0 67 36q49 -22 54 -65t-29.5 -77t-87.5 -34q-52 0 -93 36t-41 91q0 61 46.5 104t115.5 43q39 0 112.5 -19.5
t162.5 -38.5t167 -19q61 0 119 11z" />
    <glyph glyph-name="c.swsh" horiz-adv-x="553" 
d="M375 524q-47 0 -85.5 -51t-58.5 -127.5t-20 -157.5q0 -110 39 -184t116 -74q80 0 165 84l5 -3q-60 -76 -134.5 -115.5t-146.5 -39.5q-113 0 -170 70.5t-57 179.5q0 98 42 195t124 164t182 67q30 0 60.5 -5.5t61.5 -18.5t50.5 -39t19.5 -61q0 -44 -32.5 -78t-81.5 -34
q-37 0 -60.5 23t-18.5 65q29 8 45 29t16 46q0 28 -16 46.5t-45 18.5z" />
    <glyph glyph-name="c.titl" horiz-adv-x="553" 
d="M40 205v18q-59 -168 -134 -235.5t-176 -67.5q-100 0 -161 52t-61 136q0 85 61.5 138t141.5 53q78 0 139 -43t61 -115q0 -52 -36 -87.5t-94 -35.5q-45 0 -73 31.5t-15 75.5q36 1 61 28t25 66q0 36 -25.5 54t-57.5 18q-56 0 -101.5 -52t-45.5 -128q0 -30 8.5 -58.5
t27.5 -57.5t57.5 -47t91.5 -18q102 0 177.5 76.5t134.5 262.5q24 112 115.5 187.5t214.5 75.5q30 0 60.5 -5.5t61.5 -18.5t50.5 -39t19.5 -61q0 -44 -32.5 -78t-81.5 -34q-37 0 -60.5 23t-18.5 65q29 8 45 29t16 46q0 27 -18 46t-50 19q-46 0 -79.5 -45t-47 -98.5
t-13.5 -101.5q0 -86 40 -131t103 -45q93 0 155 71l6 -3q-51 -86 -129.5 -132t-157.5 -46q-88 0 -146.5 55.5t-58.5 156.5z" />
    <glyph glyph-name="d.swsh" horiz-adv-x="614" 
d="M624 534l-51 -316q-32 -195 20 -215l-3 -3q-32 -7 -71 -7q-73 0 -112 37.5t-18 123.5l30 154l-4 1q-39 -175 -94.5 -245.5t-132.5 -70.5q-71 0 -109.5 43.5t-38.5 124.5q0 62 21.5 126.5t60.5 119.5t102 90t138 35q40 0 68 -9l-2 -3q-44 -2 -84 -46t-66 -108.5
t-41.5 -135.5t-17.5 -133q-2 -72 30 -72q42 0 86.5 82.5t68.5 203.5q60 300 60 405q0 4 -0.5 12.5t-0.5 11.5q-67 -21 -112 -21q-42 0 -73.5 13.5t-31.5 35.5q0 26 42 45.5t97 19.5q90 0 157 -55q73 29 112.5 42.5t115.5 29.5t147 16q105 0 237 -32t251 -64t193 -32
q63 0 99 43l5 -3q-51 -101 -131 -147t-163 -46q-60 0 -123.5 24t-121.5 57.5t-119 67.5t-138 58t-157 24q-83 0 -200 -44q99 -87 75 -238zM350 727q47 0 112 21q-11 76 -84 76q-40 0 -81 -15.5t-41 -39.5q0 -19 28.5 -30.5t65.5 -11.5z" />
    <glyph glyph-name="d.titl" horiz-adv-x="614" 
d="M711 785l2 -9q-55 -23 -73 -134l-67 -424q-32 -195 20 -215l-3 -3q-32 -7 -71 -7q-73 0 -112 37.5t-18 123.5l30 154l-4 1q-39 -175 -94.5 -245.5t-132.5 -70.5q-71 0 -109.5 43.5t-38.5 124.5q0 62 21.5 126.5t60.5 119.5t102 90t138 35q40 0 68 -9l-2 -3
q-44 -2 -84 -46t-66 -108.5t-41.5 -135.5t-17.5 -133q-2 -72 30 -72q43 0 88.5 83.5t66.5 202.5l42 243q14 84 83.5 141t172.5 82q-52 -2 -106 -20.5t-100 -44.5t-91.5 -51.5t-97 -43t-100.5 -17.5q-70 0 -116 31.5t-46 97.5q0 45 30 78t81 33q44 0 76.5 -33t15.5 -84
q-31 13 -56.5 -2t-25.5 -47q0 -26 18 -44t45 -18q47 0 109 27t114.5 59t124 59.5t134.5 27.5z" />
    <glyph glyph-name="d.hist" horiz-adv-x="614" 
d="M651 701l-88 -548q-5 -29 -7.5 -47.5t-4 -48t1 -49t10 -42.5t21 -36.5t36.5 -22.5t54 -9q115 0 209 87t94 199q0 70 -37 101.5t-86 31.5q-39 0 -66.5 -25t-27.5 -65q0 -33 20 -54t52 -22q5 -44 -28.5 -75.5t-78.5 -31.5q-52 0 -81.5 29t-29.5 73q0 52 39 94t93 63.5
t108 21.5q72 0 117 -35t45 -106q0 -73 -47.5 -141.5t-125.5 -111t-161 -42.5q-153 0 -234.5 73t-58.5 192l30 154l-4 1q-39 -175 -94.5 -245.5t-132.5 -70.5q-71 0 -109.5 43.5t-38.5 124.5q0 62 21.5 126.5t60.5 119.5t102 90t138 35q40 0 68 -9l-2 -3q-44 -2 -84 -46
t-66 -108.5t-41.5 -135.5t-17.5 -133q-2 -72 30 -72q43 0 89 83.5t66 202.5l70 411q2 16 -9.5 24t-31.5 2l-3 3q30 14 75 26.5t78 12.5q44 0 60 -19.5t8 -69.5z" />
    <glyph glyph-name="d.end" horiz-adv-x="614" 
d="M651 701q-51 -294 -91 -563t-40 -313q0 -51 20 -78.5t51 -27.5q24 0 42 20t18 54q0 17 -11 34t-28 22q2 44 33.5 69.5t71.5 25.5q36 0 62 -23t26 -62q0 -73 -64.5 -110.5t-150.5 -37.5q-46 0 -91.5 21.5t-81.5 59.5t-52.5 98.5t-2.5 129.5l57 288l-4 1
q-39 -175 -94.5 -245.5t-132.5 -70.5q-71 0 -109.5 43.5t-38.5 124.5q0 62 21.5 126.5t60.5 119.5t102 90t138 35q40 0 68 -9l-2 -3q-44 -2 -84 -46t-66 -108.5t-41.5 -135.5t-17.5 -133q-2 -72 30 -72q43 0 89 83.5t66 202.5l70 411q2 16 -9.5 24t-31.5 2l-3 3
q30 14 75 26.5t78 12.5q43 0 59.5 -21t8.5 -68z" />
    <glyph glyph-name="d.001" horiz-adv-x="614" 
d="M710 785l2 -9q-55 -23 -73 -134l-66 -424q-30 -196 20 -215l-3 -3q-32 -7 -71 -7q-73 0 -112 37.5t-18 123.5l30 154l-4 1q-39 -175 -94.5 -245.5t-132.5 -70.5q-71 0 -109.5 43.5t-38.5 124.5q0 62 21.5 126.5t60.5 119.5t102 90t138 35q40 0 68 -9l-2 -3
q-44 -2 -84 -46t-66 -108.5t-41.5 -135.5t-17.5 -133q-2 -72 30 -72q43 0 88.5 83.5t66.5 202.5l42 243q14 81 79 137t162 83q-81 -13 -167.5 -4t-148 25t-124 31.5t-95.5 15.5q-42 0 -67 -17.5t-25 -52.5q0 -28 17 -41.5t40 -13.5q41 0 67 36q49 -22 54 -65t-29.5 -77
t-87.5 -34q-52 0 -93 36t-41 91q0 61 46.5 104t115.5 43q39 0 112.5 -19.5t162.5 -38.5t167 -19q61 0 119 11z" />
    <glyph glyph-name="e.swsh" horiz-adv-x="553" 
d="M568 420q0 -40 -36.5 -73t-112.5 -47.5t-194 14.5q-13 -59 -13 -127q0 -110 38.5 -183.5t115.5 -73.5q80 0 165 84l5 -3q-60 -76 -134.5 -115.5t-146.5 -39.5q-112 0 -169.5 71t-57.5 180q0 73 25.5 147.5t70 136.5t113.5 101.5t147 39.5q29 0 57.5 -5t59 -16t49 -34.5
t18.5 -56.5zM370 524q-49 0 -87 -57t-57 -146q94 -8 146.5 35.5t52.5 102.5q0 27 -13.5 46t-41.5 19z" />
    <glyph glyph-name="e.titl" horiz-adv-x="553" 
d="M568 420q0 -65 -89.5 -105t-248.5 -2q-1 -4 -1 -11q-5 -87 30 -143t113 -56q93 0 154 71l6 -3q-49 -80 -124.5 -129t-160.5 -49q-92 0 -149.5 57.5t-57.5 156.5v16q-59 -168 -134 -235.5t-176 -67.5q-100 0 -161 52t-61 136q0 85 61.5 138t141.5 53q78 0 139 -43t61 -115
q0 -52 -36 -87.5t-94 -35.5q-45 0 -73 31.5t-15 75.5q36 1 61 28t25 66q0 36 -25.5 54t-57.5 18q-56 0 -101.5 -52t-45.5 -128q0 -30 8.5 -58.5t27.5 -57.5t57.5 -47t91.5 -18q102 0 177.5 76.5t134.5 261.5q22 111 114.5 187.5t215.5 76.5q33 0 63.5 -4.5t61 -16t49 -35
t18.5 -56.5zM367 524q-51 0 -89 -62t-48 -141q92 -6 143.5 37t51.5 101q0 29 -16 47t-42 18z" />
    <glyph glyph-name="f.alt" horiz-adv-x="309" 
d="M55 63l72 452h-53l2 10h52q6 38 10 60t12.5 54.5t17.5 52t24 42t33.5 34.5t44.5 20.5t58 8.5q66 0 105 -30t39 -79q0 -48 -32 -79.5t-88 -31.5q-45 0 -73.5 35t-9.5 77q26 -5 44.5 9.5t18.5 39.5q0 47 -39 47q-34 0 -62.5 -30.5t-28.5 -70.5q0 -36 24.5 -67t47 -53
t18.5 -39h84l-2 -10h-68l-76 -482q-6 -39 -10 -60.5t-12 -54.5t-16.5 -51t-23 -40t-32.5 -33t-43.5 -19t-56.5 -8q-63 0 -96.5 26t-33.5 69t28.5 71t78.5 28q40 0 65 -31t8 -68q-23 5 -39.5 -8t-16.5 -36q0 -39 39 -39q33 0 61 30t28 70q0 30 -17.5 56t-38.5 42t-36 39
t-11 47z" />
    <glyph glyph-name="g.calt" 
d="M378 524q-39 0 -76.5 -65.5t-59 -157.5t-21.5 -175q0 -79 35 -79q44 0 88 93t65 210l11 61q12 61 3 87t-45 26zM348 -40l68 348l-4 1q-45 -176 -101 -246t-129 -70t-107.5 53.5t-34.5 131.5q0 80 42.5 161.5t119.5 137t164 55.5q30 0 69.5 -12t66 -21.5t58 -4t56.5 33.5
l-78 -496q-13 -83 -83 -166.5t-154 -133t-144 -49.5q-55 0 -104 18t-85 44.5t-69 52.5t-71 44t-77 18q-42 0 -63 -16.5t-21 -40.5q0 -20 13.5 -33.5t39.5 -13.5q20 0 35.5 16.5t7.5 36.5q67 7 93 -46q23 -47 -3 -94q-30 -52 -98 -52q-56 0 -87 34.5t-31 85.5q0 79 64 149.5
t157 70.5q64 0 121.5 -24.5t96 -59.5t68.5 -70t53.5 -59.5t38.5 -24.5t29 10t24.5 29.5t18.5 38t15 47t11 44.5t8.5 42.5t5.5 29.5z" />
    <glyph glyph-name="g.swsh" 
d="M378 524q-39 0 -76.5 -65.5t-59 -157.5t-21.5 -175q0 -79 35 -79q44 0 88 93t65 210l11 61q12 61 3 87t-45 26zM616 528l-76 -496q-13 -87 -77.5 -168t-159.5 -131t-191 -50q-78 0 -173 27.5t-168 61t-150.5 61t-124.5 27.5q-42 0 -63 -16.5t-21 -40.5q0 -20 13.5 -33.5
t39.5 -13.5q20 0 35.5 16.5t7.5 36.5q67 7 93 -46q23 -47 -3 -94q-30 -52 -98 -52q-56 0 -87 34.5t-31 85.5q0 84 77 152t216 68q72 0 146.5 -24.5t134.5 -59.5t112.5 -70t97 -59.5t72.5 -24.5q12 0 23 6t20.5 19t17 25t14 33t11 34.5t9.5 37.5t7 33.5t6 30.5t4 22l66 348
l-4 1q-45 -176 -101 -246t-129 -70t-107.5 53.5t-34.5 131.5q0 80 42.5 161.5t119.5 137t164 55.5q30 0 69.5 -12t66 -21.5t58 -4t56.5 33.5z" />
    <glyph glyph-name="g.titl" horiz-adv-x="616" 
d="M378 524q-39 0 -76.5 -65.5t-59 -157.5t-21.5 -175q0 -79 35 -79q44 0 88 93t65 210l11 61q12 61 3 87t-45 26zM348 -40l68 348l-4 1q-45 -176 -101 -246t-129 -70t-107.5 53.5t-34.5 131.5q0 80 42.5 161.5t119.5 137t164 55.5q30 0 69.5 -12t66 -21.5t58 -4t56.5 33.5
l-78 -496q-21 -133 -151.5 -241t-276.5 -108q-115 0 -249.5 27.5t-232.5 61t-193.5 61t-141.5 27.5q-42 0 -63 -16.5t-21 -40.5q0 -20 13.5 -33.5t39.5 -13.5q20 0 35.5 16.5t7.5 36.5q67 7 93 -46q23 -47 -3 -94q-30 -52 -98 -52q-56 0 -87 34.5t-31 85.5q0 84 77 152
t216 68q97 0 201.5 -24.5t189 -59.5t158.5 -70t131 -59.5t84 -24.5q15 0 29 10t24.5 29.5t18.5 38t15 47t11 44.5t8.5 42.5t5.5 29.5z" />
    <glyph glyph-name="h.swsh" horiz-adv-x="596" 
d="M349 7l63 395q6 35 3 55.5t-20 20.5q-42 0 -88 -75.5t-74 -188.5q-47 -193 -11 -211l-3 -3q-68 -10 -112.5 -6t-61.5 40.5t-3 114.5l94 573q2 16 -9.5 24t-31.5 2l-3 3q30 14 75 26.5t78 12.5q44 0 59.5 -19.5t6.5 -69.5l-93 -484l4 -1q83 316 257 316q36 0 60 -12
t34.5 -28.5t14 -41.5t2 -45t-5.5 -45q-75 -437 -75 -535q0 -17 1 -24q65 21 112 21q42 0 73.5 -13.5t31.5 -35.5q0 -26 -42 -45.5t-97 -19.5q-89 0 -158 55q-70 -28 -111.5 -42.5t-116.5 -30t-146 -15.5q-105 0 -237 32t-251 64t-193 32q-63 0 -99 -43l-5 3q51 101 131 147
t163 46q60 0 123.5 -24t121.5 -58t119 -67.5t138 -57.5t157 -24q84 0 199 44q-98 86 -74 238zM623 -186q-49 0 -112 -21q5 -38 25 -57t59 -19q40 0 81 15.5t41 39.5q0 19 -28.5 30.5t-65.5 11.5z" />
    <glyph glyph-name="h.titl" horiz-adv-x="596" 
d="M42 149l66 405q14 84 83 141t172 82q-52 -2 -106 -20.5t-100 -44.5t-91.5 -51.5t-97 -43t-100.5 -17.5q-70 0 -116 31.5t-46 97.5q0 45 30 78t81 33q44 0 76.5 -33t15.5 -84q-31 13 -56.5 -2t-25.5 -47q0 -26 18 -44t45 -18q47 0 109 27t114.5 59t124 59.5t134.5 27.5
l2 -9q-50 -21 -73 -134l-83 -425l4 -1q83 316 257 316q36 0 60 -12t34.5 -28.5t14 -41.5t2 -45t-5.5 -45l-24 -142q-34 -194 20 -215l-3 -3q-35 -7 -65.5 -8t-60.5 6.5t-49.5 25t-28.5 50.5t-1 80l40 248q6 35 3 55.5t-20 20.5q-42 0 -88 -75.5t-74 -188.5
q-47 -193 -11 -211l-3 -3q-68 -10 -112 -6t-61 40.5t-4 114.5z" />
    <glyph glyph-name="h.hist" horiz-adv-x="596" 
d="M375 174l37 228q13 76 -17 76q-42 0 -88 -75.5t-74 -188.5q-47 -193 -11 -211l-3 -3q-68 -10 -112.5 -6t-61.5 40.5t-3 114.5l94 573q2 16 -9.5 24t-31.5 2l-3 3q30 14 75 26.5t78 12.5q44 0 60 -19.5t6 -69.5l-93 -484l4 -1q83 316 257 316q36 0 60 -12t34.5 -28.5
t14 -42t2 -44.5t-5.5 -45l-34 -207q-5 -30 -7.5 -47.5t-4.5 -48t0.5 -49t9.5 -42t20.5 -36.5t36 -22.5t53.5 -9.5q115 0 209 87t94 199q0 70 -37 101.5t-86 31.5q-39 0 -66.5 -25t-27.5 -65q0 -33 20 -54t52 -22q5 -44 -28.5 -75.5t-78.5 -31.5q-52 0 -81.5 29t-29.5 73
q0 52 39 94t93 63.5t108 21.5q72 0 117 -35t45 -106q0 -73 -47.5 -141.5t-125.5 -111t-161 -42.5q-155 0 -234 74.5t-57 210.5z" />
    <glyph glyph-name="h.end" horiz-adv-x="596" 
d="M584 360q-49 -307 -62 -400t-13 -135q0 -51 20 -78.5t51 -27.5q24 0 42 20t18 54q0 17 -11 34t-28 22q2 44 33.5 69.5t71.5 25.5q36 0 62 -23t26 -62q0 -73 -64.5 -110.5t-150.5 -37.5q-46 0 -90.5 19.5t-80.5 55t-53 93.5t-6 128l63 395q6 35 3 55.5t-20 20.5
q-42 0 -88 -75.5t-74 -188.5q-47 -193 -11 -211l-3 -3q-68 -10 -112.5 -6t-61.5 40.5t-3 114.5l94 573q2 16 -9.5 24t-31.5 2l-3 3q30 14 75 26.5t78 12.5q44 0 60 -19.5t6 -69.5l-93 -484l4 -1q83 316 257 316q36 0 60 -12t34.5 -28.5t14 -41.5t2 -45t-5.5 -45z" />
    <glyph glyph-name="h.001" horiz-adv-x="596" 
d="M42 149l66 405q13 81 78 137t163 83q-80 -13 -167 -4t-148 25t-124 31.5t-96 15.5q-42 0 -67 -17.5t-25 -52.5q0 -28 17 -41.5t40 -13.5q41 0 67 36q49 -22 54 -65t-29.5 -77t-87.5 -34q-52 0 -93 36t-41 91q0 61 46.5 104t115.5 43q39 0 112.5 -19.5t162.5 -38.5
t167 -19q61 0 119 11l2 -9q-50 -21 -73 -134l-83 -425l4 -1q83 316 257 316q36 0 60 -12t34.5 -28.5t14 -41.5t2 -45t-5.5 -45l-24 -142q-34 -194 20 -215l-3 -3q-35 -7 -65.5 -8t-60.5 6.5t-49.5 25t-28.5 50.5t-1 80l40 248q6 35 3 55.5t-20 20.5q-42 0 -88 -75.5
t-74 -188.5q-47 -193 -11 -211l-3 -3q-68 -10 -112 -6t-61 40.5t-4 114.5z" />
    <glyph glyph-name="i.titl" horiz-adv-x="280" 
d="M108 504h-4q-28 -138 -61 -240.5t-68 -168t-77 -105t-84.5 -55t-94.5 -15.5q-100 0 -161 52t-61 136q0 85 61.5 138t141.5 53q78 0 139 -43t61 -115q0 -52 -36 -87.5t-94 -35.5q-45 0 -73 31.5t-15 75.5q36 1 61 28t25 66q0 36 -25.5 54t-57.5 18q-56 0 -101.5 -52
t-45.5 -128q0 -30 8.5 -58.5t27.5 -57.5t57.5 -47t91.5 -18q85 0 149.5 50t122.5 181.5t102 352.5q50 18 113 18q44 0 59 -19.5t7 -69.5l-38 -230q-8 -46 -10.5 -64t-7 -60t-0.5 -63.5t16 -27.5l-3 -3q-22 -1 -49.5 -3.5t-54.5 6.5t-48 24t-30.5 48t-1.5 79zM147 571l-2 3
q17 27 19.5 71.5t-18.5 75.5q18 33 49 52.5t62 19.5q33 0 58 -20t25 -59q0 -59 -58 -102.5t-135 -40.5z" />
    <glyph glyph-name="i.hist" horiz-adv-x="280" 
d="M276 443l-48 -290q-5 -30 -7.5 -47.5t-4.5 -48t0.5 -49t9.5 -42t20.5 -36.5t36 -22.5t53.5 -9.5q115 0 209 87t94 199q0 70 -37 101.5t-86 31.5q-39 0 -66.5 -25t-27.5 -65q0 -33 20 -54t52 -22q5 -44 -28.5 -75.5t-78.5 -31.5q-52 0 -81.5 29t-29.5 73q0 52 39 94
t93 63.5t108 21.5q72 0 117 -35t45 -106q0 -73 -47.5 -141.5t-125.5 -111t-161 -42.5q-155 0 -234 74.5t-57 210.5l48 290q2 16 -9.5 24t-31.5 2l-3 3q30 14 75 26.5t78 12.5q44 0 59 -19.5t7 -69.5zM147 571l-2 3q17 27 19.5 71.5t-18.5 75.5q18 33 49 52.5t62 19.5
q33 0 58 -20t25 -59q0 -59 -58 -102.5t-135 -40.5z" />
    <glyph glyph-name="j.swsh" horiz-adv-x="280" 
d="M147 571l-2 3q17 27 19.5 71.5t-18.5 75.5q18 33 49 52.5t62 19.5q33 0 58 -20t25 -59q0 -59 -58 -102.5t-135 -40.5zM21 -40l80 504q2 16 -9.5 24t-31.5 2l-3 3q30 14 75 26.5t78 12.5q44 0 59 -19.5t7 -69.5l-65 -411q-21 -133 -151.5 -241t-276.5 -108
q-78 0 -173 27.5t-168 61t-150.5 61t-124.5 27.5q-42 0 -63 -16.5t-21 -40.5q0 -20 13.5 -33.5t39.5 -13.5q20 0 35.5 16.5t7.5 36.5q67 7 93 -46q23 -47 -3 -94q-30 -52 -98 -52q-56 0 -87 34.5t-31 85.5q0 84 77 152t216 68q72 0 146.5 -24.5t134.5 -59.5t112.5 -70
t97 -59.5t72.5 -24.5q72 0 112 241z" />
    <glyph glyph-name="j.titl" horiz-adv-x="280" 
d="M147 571l-2 3q17 27 19.5 71.5t-18.5 75.5q18 33 49 52.5t62 19.5q33 0 58 -20t25 -59q0 -59 -58 -102.5t-135 -40.5zM21 -40l80 504q2 16 -9.5 24t-31.5 2l-3 3q30 14 75 26.5t78 12.5q44 0 59 -19.5t7 -69.5l-65 -411q-21 -133 -151.5 -241t-276.5 -108
q-115 0 -249.5 27.5t-232.5 61t-193.5 61t-141.5 27.5q-42 0 -63 -16.5t-21 -40.5q0 -20 13.5 -33.5t39.5 -13.5q20 0 35.5 16.5t7.5 36.5q67 7 93 -46q23 -47 -3 -94q-30 -52 -98 -52q-56 0 -87 34.5t-31 85.5q0 84 77 152t216 68q97 0 201.5 -24.5t189 -59.5t158.5 -70
t131 -59.5t84 -24.5q72 0 112 241z" />
    <glyph glyph-name="k.swsh" horiz-adv-x="583" 
d="M795 -292q-102 0 -185 36q-185 -69 -327 -69q-105 0 -237 32t-251 64t-193 32q-63 0 -99 -43l-5 3q51 101 131 147t163 46q60 0 123.5 -24t121.5 -58t119 -67.5t138 -57.5t157 -24q66 0 146 25q-163 78 -253 311q-12 32 -24.5 88.5t-24.5 83.5t-33 27l-1 3
q75 14 125.5 4.5t84 -45.5t71.5 -119q14 -32 42.5 -105.5t53.5 -125.5t54 -87q100 37 157 37q41 0 73 -13.5t32 -34.5q0 -14 -11.5 -27.5t-50 -26t-97.5 -12.5zM261 263l-1 1q63 24 111 69t48 107q0 38 -25 38q-40 0 -86.5 -75t-74.5 -189q-47 -193 -11 -211l-3 -3
q-51 -8 -84 -8q-62 0 -84.5 34t-8.5 123l94 573q2 16 -9.5 24t-31.5 2l-3 3q30 14 75 26.5t78 12.5q44 0 59.5 -19.5t6.5 -69.5l-93 -484l4 -1q25 94 56.5 159.5t66.5 98t67 45.5t68 13q57 0 88 -27.5t31 -67.5q0 -30 -19 -54.5t-46 -40t-68 -29.5t-73 -21t-74 -16t-58 -13z
M850 -186q-58 0 -152 -36q53 -61 124 -61q40 0 81 15.5t41 39.5q0 19 -28.5 30.5t-65.5 11.5z" />
    <glyph glyph-name="k.titl" horiz-adv-x="583" 
d="M42 149l66 405q13 83 82 140.5t173 82.5q-52 -2 -106 -20.5t-100 -44.5t-91.5 -51.5t-97 -43t-100.5 -17.5q-70 0 -116 31.5t-46 97.5q0 45 30 78t81 33q44 0 76.5 -33t15.5 -84q-31 13 -56.5 -2t-25.5 -47q0 -26 18 -44t45 -18q47 0 109 27t114.5 59t124 59.5
t134.5 27.5l2 -9q-50 -21 -73 -134l-83 -425l4 -1q25 94 56.5 159.5t66.5 98t67 45.5t68 13q57 0 88 -27.5t31 -67.5q0 -29 -18.5 -53.5t-43 -39.5t-67 -29.5t-70.5 -21t-73.5 -16t-58.5 -12.5q80 12 130.5 2t74 -29.5t34.5 -54.5q28 -89 54.5 -127.5t61.5 -52.5l-3 -3
q-74 -14 -117 -14q-152 0 -188 144q-3 14 -7.5 32t-7 28.5t-6 23.5t-6.5 20.5t-7 14t-9 10t-11 3.5l-1 2q63 24 111 69t48 107q0 38 -25 38q-40 0 -86.5 -75t-74.5 -189q-47 -193 -11 -211l-3 -3q-51 -8 -84 -8q-62 0 -84.5 34t-8.5 123z" />
    <glyph glyph-name="k.hist" horiz-adv-x="583" 
d="M507 183q48 -150 100 -216.5t135 -66.5q95 0 160 73.5t65 169.5q0 72 -38 123t-102 51q-44 0 -71.5 -25t-27.5 -65q0 -33 20 -54t52 -22q5 -44 -28.5 -75.5t-78.5 -31.5q-52 0 -81.5 29t-29.5 73q0 77 77.5 128t167.5 51q86 0 133.5 -50.5t47.5 -124.5q0 -32 -8.5 -64.5
t-30.5 -68.5t-55.5 -64t-89.5 -46t-127 -18q-140 0 -247 64.5t-135 176.5q-3 14 -7.5 32t-7 28.5t-6 23.5t-6.5 20.5t-7 14t-9 10t-11 3.5l-1 2q63 24 111 69t48 107q0 38 -25 38q-40 0 -86.5 -75t-74.5 -189q-47 -193 -11 -211l-3 -3q-51 -8 -84 -8q-62 0 -84.5 34
t-8.5 123l94 573q2 16 -9.5 24t-31.5 2l-3 3q30 14 75 26.5t78 12.5q44 0 59.5 -19.5t6.5 -69.5l-93 -484l4 -1q25 94 56.5 159.5t66.5 98t67 45.5t68 13q57 0 88 -27.5t31 -67.5q0 -29 -18.5 -53.5t-43 -39.5t-67 -29.5t-70.5 -21t-73.5 -16t-58.5 -12.5q80 12 130.5 2
t74 -29.5t34.5 -54.5z" />
    <glyph glyph-name="k.end" horiz-adv-x="583" 
d="M261 263l-1 1q63 24 111 69t48 107q0 38 -25 38q-40 0 -86.5 -75t-74.5 -189q-47 -193 -11 -211l-3 -3q-51 -8 -84 -8q-62 0 -84.5 34t-8.5 123l94 573q2 16 -9.5 24t-31.5 2l-3 3q30 14 75 26.5t78 12.5q44 0 59.5 -19.5t6.5 -69.5l-93 -484l4 -1q25 94 56.5 159.5
t66.5 98t67 45.5t68 13q57 0 88 -27.5t31 -67.5q0 -30 -19 -54.5t-46 -40t-68 -29.5t-73 -21t-74 -16t-58 -13zM262 260l-1 3q75 14 125.5 4.5t84 -45.5t71.5 -119q14 -31 35 -83.5t35.5 -88.5t37.5 -79t45.5 -69.5t55.5 -44.5t71 -18q34 0 54 21t20 48q0 20 -12.5 36
t-36.5 21q9 46 41.5 72.5t70.5 26.5q36 0 65 -23t29 -70q0 -39 -23 -68t-60.5 -44t-77.5 -22t-82 -7q-90 0 -163 23t-119 55.5t-85 84.5t-58.5 91.5t-40.5 95.5q-12 32 -24.5 88.5t-24.5 83.5t-33 27z" />
    <glyph glyph-name="k.001" horiz-adv-x="583" 
d="M42 149l66 405q13 81 78 137t163 83q-80 -13 -167 -4t-148 25t-124 31.5t-96 15.5q-42 0 -67 -17.5t-25 -52.5q0 -28 17 -41.5t40 -13.5q41 0 67 36q49 -22 54 -65t-29.5 -77t-87.5 -34q-52 0 -93 36t-41 91q0 61 46.5 104t115.5 43q39 0 112.5 -19.5t162.5 -38.5
t167 -19q61 0 119 11l2 -9q-50 -21 -73 -134l-83 -425l4 -1q25 94 56.5 159.5t66.5 98t67 45.5t68 13q57 0 88 -27.5t31 -67.5q0 -29 -18.5 -53.5t-43 -39.5t-67 -29.5t-70.5 -21t-73.5 -16t-58.5 -12.5q80 12 130.5 2t74 -29.5t34.5 -54.5q28 -89 54.5 -127.5t61.5 -52.5
l-3 -3q-74 -14 -117 -14q-152 0 -188 144q-3 14 -7.5 32t-7 28.5t-6 23.5t-6.5 20.5t-7 14t-9 10t-11 3.5l-1 2q63 24 111 69t48 107q0 38 -25 38q-40 0 -86.5 -75t-74.5 -189q-47 -193 -11 -211l-3 -3q-51 -8 -84 -8q-62 0 -84.5 34t-8.5 123z" />
    <glyph glyph-name="l.swsh" horiz-adv-x="269" 
d="M17 7l114 715q2 16 -9.5 24t-31.5 2l-3 3q30 14 75 26.5t78 12.5q44 0 59 -19.5t7 -69.5l-54 -341q-49 -309 -62 -401t-13 -134q0 -17 1 -24q65 21 112 21q42 0 73.5 -13.5t31.5 -35.5q0 -26 -42 -45.5t-97 -19.5q-89 0 -158 55q-71 -28 -111.5 -42.5t-116 -30
t-146.5 -15.5q-105 0 -237 32t-251 64t-193 32q-63 0 -99 -43l-5 3q51 101 131 147t163 46q60 0 123.5 -24t121.5 -58t119 -67.5t138 -57.5t157 -24q84 0 199 44q-98 86 -74 238zM291 -186q-49 0 -112 -21q5 -38 25 -57t59 -19q40 0 81 15.5t41 39.5q0 19 -28.5 30.5
t-65.5 11.5z" />
    <glyph glyph-name="l.titl" horiz-adv-x="269" 
d="M297 642l-69 -429q-1 -7 -4 -25t-4.5 -28.5t-4.5 -29t-4 -30.5t-2 -28t0 -26.5t2.5 -21t5 -17t9.5 -9.5l-3 -3q-22 -1 -49 -3.5t-54 6.5t-48 24t-30.5 48t-2.5 79l65 405q14 84 83 141t172 82q-52 -2 -106 -20.5t-100 -44.5t-91.5 -51.5t-97 -43t-100.5 -17.5
q-70 0 -116 31.5t-46 97.5q0 45 30 78t81 33q44 0 76.5 -33t15.5 -84q-31 13 -56.5 -2t-25.5 -47q0 -26 18 -44t45 -18q47 0 109 27t114.5 59t124 59.5t134.5 27.5l2 -9q-55 -23 -73 -134z" />
    <glyph glyph-name="l.hist" horiz-adv-x="269" 
d="M43 174l88 548q2 16 -9.5 24t-31.5 2l-3 3q30 14 75 26.5t78 12.5q44 0 59 -19.5t7 -69.5l-88 -548q-5 -30 -7.5 -47.5t-4.5 -48t0.5 -49t9.5 -42t20.5 -36.5t36 -22.5t53.5 -9.5q115 0 209 87t94 199q0 70 -37 101.5t-86 31.5q-39 0 -66.5 -25t-27.5 -65q0 -33 20 -54
t52 -22q5 -44 -28.5 -75.5t-78.5 -31.5q-52 0 -81.5 29t-29.5 73q0 52 39 94t93 63.5t108 21.5q72 0 117 -35t45 -106q0 -73 -47.5 -141.5t-125.5 -111t-161 -42.5q-155 0 -234 74.5t-57 210.5z" />
    <glyph glyph-name="l.end" horiz-adv-x="269" 
d="M17 7l114 715q2 16 -9.5 24t-31.5 2l-3 3q30 14 75 26.5t78 12.5q44 0 59 -19.5t7 -69.5l-54 -341q-49 -307 -62 -400t-13 -135q0 -51 20 -78.5t51 -27.5q24 0 42 20t18 54q0 17 -11 34t-28 22q2 44 33.5 69.5t71.5 25.5q36 0 62 -23t26 -62q0 -73 -64.5 -110.5
t-150.5 -37.5q-46 0 -90.5 19.5t-80.5 55t-53 93.5t-6 128z" />
    <glyph glyph-name="l.001" horiz-adv-x="269" 
d="M297 642l-69 -429q-1 -7 -4 -25t-4.5 -28.5t-4.5 -29t-4 -30.5t-2 -28t0 -26.5t2.5 -21t5 -17t9.5 -9.5l-3 -3q-22 -1 -49 -3.5t-54 6.5t-48 24t-30.5 48t-2.5 79l65 405q13 81 78 137t163 83q-80 -13 -167 -4t-148 25t-124 31.5t-96 15.5q-42 0 -67 -17.5t-25 -52.5
q0 -28 17 -41.5t40 -13.5q41 0 67 36q49 -22 54 -65t-29.5 -77t-87.5 -34q-52 0 -93 36t-41 91q0 61 46.5 104t115.5 43q39 0 112.5 -19.5t162.5 -38.5t167 -19q61 0 119 11l2 -9q-55 -23 -73 -134z" />
    <glyph glyph-name="m.swsh" horiz-adv-x="911" 
d="M899 360q-75 -443 -75 -535q0 -17 1 -24q65 21 112 21q42 0 73.5 -13.5t31.5 -35.5q0 -26 -42 -45.5t-97 -19.5q-89 0 -158 55q-70 -28 -111.5 -42.5t-116.5 -30t-146 -15.5q-105 0 -237 32t-251 64t-193 32q-63 0 -99 -43l-5 3q51 101 131 147t163 46q60 0 123.5 -24
t121.5 -58t119 -67.5t138 -57.5t157 -24q84 0 199 44q-98 86 -74 238l63 395q6 35 3 55.5t-20 20.5q-41 0 -82 -74t-70 -190q-47 -193 -11 -211l-3 -3q-51 -8 -84 -8q-63 0 -85 35.5t-3 126.5l40 248q6 35 3 55.5t-20 20.5q-41 0 -82 -74t-70 -190q-47 -193 -11 -211l-3 -3
q-51 -8 -84 -8q-63 0 -86 34.5t-7 122.5l56 315q2 16 -9.5 24t-31.5 2l-3 3q30 14 75 26.5t78 12.5q44 0 60 -19.5t6 -69.5l-55 -226l4 -1q47 178 108.5 247t138.5 69q141 0 99 -172l-35 -143l4 -1q47 178 108.5 247t138.5 69q36 0 60 -12t34.5 -28.5t14 -41.5t2 -45
t-5.5 -45zM938 -186q-49 0 -112 -21q5 -38 25 -57t59 -19q40 0 81 15.5t41 39.5q0 19 -28.5 30.5t-65.5 11.5z" />
    <glyph glyph-name="m.titl" horiz-adv-x="911" 
d="M115 504h-4q-28 -138 -61 -240.5t-68 -168t-77 -105t-84.5 -55t-94.5 -15.5q-100 0 -161 52t-61 136q0 85 61.5 138t141.5 53q78 0 139 -43t61 -115q0 -52 -36 -87.5t-94 -35.5q-45 0 -73 31.5t-15 75.5q36 1 61 28t25 66q0 36 -25.5 54t-57.5 18q-56 0 -101.5 -52
t-45.5 -128q0 -30 8.5 -58.5t27.5 -57.5t57.5 -47t91.5 -18q85 0 149.5 50t122.5 181.5t102 352.5q49 18 113 18q44 0 60 -19.5t6 -69.5l-55 -226l4 -1q47 178 108.5 247t138.5 69q141 0 99 -172l-35 -143l4 -1q47 178 108.5 247t138.5 69q36 0 60 -12t34.5 -28.5t14 -41.5
t2 -45t-5.5 -45l-24 -142q-34 -194 20 -215l-3 -3q-38 -8 -73 -8q-158 0 -132 162l40 248q6 35 3 55.5t-20 20.5q-41 0 -82 -74t-70 -190q-47 -193 -11 -211l-3 -3q-51 -8 -83 -8q-61 0 -82.5 35t-6.5 127l40 248q6 35 3 55.5t-20 20.5q-41 0 -82 -74t-70 -190
q-47 -193 -11 -211l-3 -3q-51 -8 -84 -8q-63 0 -86 34.5t-7 122.5z" />
    <glyph glyph-name="m.hist" horiz-adv-x="911" 
d="M899 360l-34 -207q-5 -30 -7.5 -47.5t-4.5 -48t0.5 -49t9.5 -42t20.5 -36.5t36 -22.5t53.5 -9.5q115 0 209 87t94 199q0 70 -37 101.5t-86 31.5q-39 0 -66.5 -25t-27.5 -65q0 -33 20 -54t52 -22q5 -44 -28.5 -75.5t-78.5 -31.5q-52 0 -81.5 29t-29.5 73q0 52 39 94
t93 63.5t108 21.5q72 0 117 -35t45 -106q0 -73 -47.5 -141.5t-125.5 -111t-161 -42.5q-155 0 -234 74.5t-57 210.5l37 228q13 76 -17 76q-41 0 -82 -74t-70 -190q-47 -193 -11 -211l-3 -3q-51 -8 -84 -8q-63 0 -85 35.5t-3 126.5l40 248q6 35 3 55.5t-20 20.5q-41 0 -82 -74
t-70 -190q-47 -193 -11 -211l-3 -3q-51 -8 -84 -8q-63 0 -86 34.5t-7 122.5l56 315q2 16 -9.5 24t-31.5 2l-3 3q30 14 75 26.5t78 12.5q44 0 60 -19.5t6 -69.5l-55 -226l4 -1q47 178 108.5 247t138.5 69q141 0 99 -172l-35 -143l4 -1q47 178 108.5 247t138.5 69q36 0 60 -12
t34.5 -28.5t14 -42t2 -44.5t-5.5 -45z" />
    <glyph glyph-name="m.end" horiz-adv-x="911" 
d="M899 360q-76 -456 -76 -535q0 -51 20 -78.5t51 -27.5q24 0 42 20t18 54q0 17 -11 34t-28 22q2 44 33.5 69.5t71.5 25.5q36 0 62 -23t26 -62q0 -73 -64.5 -110.5t-150.5 -37.5q-46 0 -91 19.5t-80.5 55t-52.5 93.5t-6 128l64 395q13 76 -17 76q-41 0 -82 -74t-70 -190
q-47 -193 -11 -211l-3 -3q-51 -8 -84 -8q-63 0 -85 35.5t-3 126.5l40 248q6 35 3 55.5t-20 20.5q-41 0 -82 -74t-70 -190q-47 -193 -11 -211l-3 -3q-51 -8 -84 -8q-63 0 -86 34.5t-7 122.5l56 315q2 16 -9.5 24t-31.5 2l-3 3q30 14 75 26.5t78 12.5q44 0 60 -19.5t6 -69.5
l-55 -226l4 -1q47 178 108.5 247t138.5 69q141 0 99 -172l-35 -143l4 -1q47 178 108.5 247t138.5 69q36 0 60 -12t34.5 -28.5t14 -41.5t2 -45t-5.5 -45z" />
    <glyph glyph-name="n.swsh" 
d="M594 360q-75 -437 -75 -535q0 -17 1 -24q65 21 112 21q42 0 73.5 -13.5t31.5 -35.5q0 -26 -42 -45.5t-97 -19.5q-89 0 -158 55q-70 -28 -111.5 -42.5t-116.5 -30t-146 -15.5q-105 0 -237 32t-251 64t-193 32q-63 0 -99 -43l-5 3q51 101 131 147t163 46q60 0 123.5 -24
t121.5 -58t119 -67.5t138 -57.5t157 -24q84 0 199 44q-98 86 -74 238l63 395q6 35 3 55.5t-20 20.5q-42 0 -88 -75.5t-74 -188.5q-47 -193 -11 -211l-3 -3q-51 -8 -84 -8q-63 0 -86 34.5t-7 122.5l56 315q2 16 -9.5 24t-31.5 2l-3 3q30 14 75 26.5t78 12.5q44 0 60 -19.5
t6 -69.5l-55 -226l4 -1q83 316 257 316q36 0 60 -12t34.5 -28.5t14 -41.5t2 -45t-5.5 -45zM633 -186q-49 0 -112 -21q5 -38 25 -57t59 -19q40 0 81 15.5t41 39.5q0 19 -28.5 30.5t-65.5 11.5z" />
    <glyph glyph-name="n.titl" 
d="M115 504h-4q-28 -138 -61 -240.5t-68 -168t-77 -105t-84.5 -55t-94.5 -15.5q-100 0 -161 52t-61 136q0 85 61.5 138t141.5 53q78 0 139 -43t61 -115q0 -52 -36 -87.5t-94 -35.5q-45 0 -73 31.5t-15 75.5q36 1 61 28t25 66q0 36 -25.5 54t-57.5 18q-56 0 -101.5 -52
t-45.5 -128q0 -30 8.5 -58.5t27.5 -57.5t57.5 -47t91.5 -18q85 0 149.5 50t122.5 181.5t102 352.5q49 18 113 18q44 0 60 -19.5t6 -69.5l-55 -226l4 -1q83 316 257 316q36 0 60 -12t34.5 -28.5t14 -41.5t2 -45t-5.5 -45l-24 -142q-34 -194 20 -215l-3 -3q-38 -8 -73 -8
q-158 0 -132 162l40 248q6 35 3 55.5t-20 20.5q-42 0 -88 -75.5t-74 -188.5q-47 -193 -11 -211l-3 -3q-51 -8 -84 -8q-63 0 -86 34.5t-7 122.5z" />
    <glyph glyph-name="n.hist" 
d="M594 360l-34 -207q-5 -30 -7.5 -47.5t-4.5 -48t0.5 -49t9.5 -42t20.5 -36.5t36 -22.5t53.5 -9.5q115 0 209 87t94 199q0 70 -37 101.5t-86 31.5q-39 0 -66.5 -25t-27.5 -65q0 -33 20 -54t52 -22q5 -44 -28.5 -75.5t-78.5 -31.5q-52 0 -81.5 29t-29.5 73q0 52 39 94
t93 63.5t108 21.5q72 0 117 -35t45 -106q0 -73 -47.5 -141.5t-125.5 -111t-161 -42.5q-155 0 -234 74.5t-57 210.5l37 228q13 76 -17 76q-42 0 -88 -75.5t-74 -188.5q-47 -193 -11 -211l-3 -3q-51 -8 -84 -8q-63 0 -86 34.5t-7 122.5l56 315q2 16 -9.5 24t-31.5 2l-3 3
q30 14 75 26.5t78 12.5q44 0 60 -19.5t6 -69.5l-55 -226l4 -1q83 316 257 316q36 0 60 -12t34.5 -28.5t14 -42t2 -44.5t-5.5 -45z" />
    <glyph glyph-name="n.end" 
d="M594 360q-76 -449 -76 -535q0 -51 20 -78.5t51 -27.5q24 0 42 20t18 54q0 17 -11 34t-28 22q2 44 33.5 69.5t71.5 25.5q36 0 62 -23t26 -62q0 -73 -64.5 -110.5t-150.5 -37.5q-46 0 -91 19.5t-80.5 55t-52.5 93.5t-6 128l64 395q13 76 -17 76q-42 0 -88 -75.5t-74 -188.5
q-47 -193 -11 -211l-3 -3q-51 -8 -84 -8q-63 0 -86 34.5t-7 122.5l56 315q2 16 -9.5 24t-31.5 2l-3 3q30 14 75 26.5t78 12.5q44 0 60 -19.5t6 -69.5l-55 -226l4 -1q83 316 257 316q36 0 60 -12t34.5 -28.5t14 -41.5t2 -45t-5.5 -45z" />
    <glyph glyph-name="o.titl" horiz-adv-x="605" 
d="M367 532q107 0 175 -63t68 -162q0 -125 -97.5 -219.5t-230.5 -94.5q-107 0 -174.5 63.5t-67.5 162.5v12q-59 -173 -135 -242t-178 -69q-100 0 -161 52t-61 136q0 85 61.5 138t141.5 53q78 0 139 -43t61 -115q0 -52 -36 -87.5t-94 -35.5q-45 0 -73 31.5t-15 75.5
q36 1 61 28t25 66q0 36 -25.5 54t-57.5 18q-56 0 -101.5 -52t-45.5 -128q0 -30 8.5 -58.5t27.5 -57.5t57.5 -47t91.5 -18q103 0 179 78t135 267q21 110 112 183.5t210 73.5zM283 1q39 5 68.5 53.5t45 118t22.5 133t7 114.5q0 104 -60 104q-38 0 -68 -50t-45 -122.5
t-22.5 -137t-7.5 -110.5q0 -103 60 -103z" />
    <glyph glyph-name="o.hist" horiz-adv-x="605" 
d="M40 219q0 119 84.5 208.5t208.5 102.5q82 15 171 6.5t151 -24.5t126.5 -32t97.5 -16q42 0 67 17.5t25 52.5q0 28 -17 41.5t-40 13.5q-41 0 -67 -36q-49 22 -54 65t29.5 77t87.5 34q52 0 93 -36t41 -91q0 -61 -46.5 -104t-115.5 -43q-39 0 -112.5 19.5t-162.5 38.5
t-167 19q-14 0 -44 -2q96 -9 155 -70.5t59 -152.5q0 -125 -97.5 -219.5t-230.5 -94.5q-107 0 -174.5 63.5t-67.5 162.5zM283 1q39 5 68.5 53.5t45 118t22.5 133t7 114.5q0 104 -60 104q-38 0 -68 -50t-45 -122.5t-22.5 -137t-7.5 -110.5q0 -103 60 -103z" />
    <glyph glyph-name="p.swsh" horiz-adv-x="604" 
d="M217 532q44 0 60.5 -20t5.5 -69l-50 -227l4 -1q39 182 97 253.5t137 71.5q71 0 109.5 -43.5t38.5 -124.5q0 -46 -14 -96q117 39 216 39q113 0 181.5 -51t68.5 -153q0 -85 -61.5 -138t-141.5 -53q-78 0 -139 43t-61 115q0 52 36 87.5t94 35.5q45 0 73 -31.5t15 -75.5
q-36 -1 -61 -28t-25 -66q0 -36 25.5 -54t57.5 -18q56 0 101.5 52t45.5 128q0 98 -62 146.5t-166 48.5q-93 0 -199 -37q-32 -111 -115 -189.5t-199 -78.5q-40 0 -68 9l2 3q58 78 149 145q66 137 68 281q0 72 -30 72q-43 0 -89.5 -82t-72.5 -213l-45 -220q-9 -43 -14 -85
t-2 -82t19 -48l-3 -3q-22 -1 -49.5 -3.5t-54.5 6.5t-48 24t-30.5 48t-1.5 79l89 535q2 16 -9.5 24t-31.5 2l-3 3q30 14 75 26.5t78 12.5zM232 11q74 11 133 128q-79 -59 -133 -128z" />
    <glyph glyph-name="p.titl" horiz-adv-x="604" 
d="M115 504h-4q-28 -138 -61 -240.5t-68 -168t-77 -105t-84.5 -55t-94.5 -15.5q-100 0 -161 52t-61 136q0 85 61.5 138t141.5 53q78 0 139 -43t61 -115q0 -52 -36 -87.5t-94 -35.5q-45 0 -73 31.5t-15 75.5q36 1 61 28t25 66q0 36 -25.5 54t-57.5 18q-56 0 -101.5 -52
t-45.5 -128q0 -30 8.5 -58.5t27.5 -57.5t57.5 -47t91.5 -18q85 0 149.5 50t122.5 181.5t102 352.5q49 18 113 18q44 0 60.5 -20t5.5 -69l-50 -227l4 -1q39 182 97 253.5t137 71.5q71 0 109.5 -43.5t38.5 -124.5q0 -62 -22.5 -127t-63.5 -120.5t-105 -91t-139 -35.5
q-40 0 -68 9l2 3q58 3 110 76.5t79 170t28 179.5q0 72 -30 72q-43 0 -89.5 -82t-72.5 -213l-45 -220q-9 -43 -14 -85t-2 -82t19 -48l-3 -3q-22 -1 -49.5 -3.5t-54.5 6.5t-48 24t-30.5 48t-1.5 79z" />
    <glyph glyph-name="q.titl" 
d="M616 528l-87 -531q-34 -194 20 -215l-3 -3q-35 -7 -66 -7.5t-62 7t-49.5 26t-27.5 49.5t4 79l71 375l-4 1q-45 -176 -101 -246t-129 -70t-107.5 53.5t-34.5 131.5q0 16 1 24q-58 -156 -132 -219t-171 -63q-100 0 -161 52t-61 136q0 85 61.5 138t141.5 53q78 0 139 -43
t61 -115q0 -52 -36 -87.5t-94 -35.5q-45 0 -73 31.5t-15 75.5q36 1 61 28t25 66q0 36 -25.5 54t-57.5 18q-56 0 -101.5 -52t-45.5 -128q0 -30 8.5 -58.5t27.5 -57.5t57.5 -47t91.5 -18q101 0 176 74.5t134 255.5q29 109 117 190.5t197 81.5q30 0 69.5 -12t66 -21.5t58 -4
t56.5 33.5zM378 524q-39 0 -76.5 -65.5t-59 -157.5t-21.5 -175q0 -79 35 -79q44 0 88 93t65 210l11 61q12 61 3 87t-45 26z" />
    <glyph glyph-name="r.titl" horiz-adv-x="544" 
d="M113 504h-4q-28 -138 -61 -240.5t-68 -168t-77 -105t-84.5 -55t-94.5 -15.5q-100 0 -161 52t-61 136q0 85 61.5 138t141.5 53q78 0 139 -43t61 -115q0 -52 -36 -87.5t-94 -35.5q-45 0 -73 31.5t-15 75.5q36 1 61 28t25 66q0 36 -25.5 54t-57.5 18q-56 0 -101.5 -52
t-45.5 -128q0 -30 8.5 -58.5t27.5 -57.5t57.5 -47t91.5 -18q85 0 149.5 50t122.5 181.5t102 352.5q50 18 113 18q44 0 60 -19.5t6 -69.5l-55 -227l4 -1q48 185 102 255t134 70q63 0 95.5 -33.5t32.5 -82.5q0 -54 -38 -94t-101 -40q-37 0 -61.5 23t-20.5 65q29 0 51.5 24
t22.5 58q0 23 -10.5 35.5t-28.5 12.5q-45 0 -89.5 -80.5t-77.5 -214.5q-47 -192 -11 -210l-3 -3q-29 -8 -60 -8q-61 0 -96.5 36.5t-20.5 120.5z" />
    <glyph glyph-name="t.swsh" horiz-adv-x="290" 
d="M30 7l81 508h-45l2 10q111 0 169.5 43t75.5 147h9l-31 -190h69l-2 -10h-69l-25 -155q-74 -451 -74 -535q0 -17 1 -24q65 21 112 21q42 0 73.5 -13.5t31.5 -35.5q0 -26 -42 -45.5t-97 -19.5q-89 0 -158 55q-71 -28 -111.5 -42.5t-116 -30t-146.5 -15.5q-105 0 -237 32
t-251 64t-193 32q-63 0 -99 -43l-5 3q51 101 131 147t163 46q60 0 123.5 -24t121.5 -58t119 -67.5t138 -57.5t157 -24q84 0 199 44q-98 86 -74 238zM304 -186q-49 0 -112 -21q5 -38 25 -57t59 -19q40 0 81 15.5t41 39.5q0 19 -28.5 30.5t-65.5 11.5z" />
    <glyph glyph-name="t.titl" horiz-adv-x="290" 
d="M116 504h-4q-28 -138 -61.5 -240.5t-69 -168t-78 -105t-85 -55t-94.5 -15.5q-100 0 -161 52t-61 136q0 85 61.5 138t141.5 53q78 0 139 -43t61 -115q0 -52 -36 -87.5t-94 -35.5q-45 0 -73 31.5t-15 75.5q36 1 61 28t25 66q0 36 -25.5 54t-57.5 18q-56 0 -101.5 -52
t-45.5 -128q0 -30 8.5 -58.5t27.5 -57.5t57.5 -47t91.5 -18q64 0 115.5 28t99.5 93.5t89 181t74 282.5h-52l2 10q119 0 179.5 43t77.5 147h9l-32 -190h70l-2 -10h-69l-50 -302q-32 -195 20 -215l-3 -3q-28 -4 -49 -4q-32 0 -60 7t-53.5 23t-36.5 49t-3 79z" />
    <glyph glyph-name="t.hist" horiz-adv-x="278" 
d="M335 -111q-155 0 -233.5 74.5t-57.5 210.5l52 341h-45l2 10q114 0 170 36.5t73 138.5h9l-28 -175h81l-2 -10h-80l-57 -362q-5 -30 -7.5 -47.5t-4.5 -48t0.5 -49t9.5 -42t20.5 -36.5t36 -22.5t53.5 -9.5q115 0 209 87t94 199q0 70 -37 101.5t-86 31.5q-39 0 -66.5 -25
t-27.5 -65q0 -33 20 -54t52 -22q5 -44 -28.5 -75.5t-78.5 -31.5q-52 0 -81.5 29t-29.5 73q0 52 39 94t93 63.5t108 21.5q72 0 117 -35t45 -106q0 -73 -47.5 -141.5t-125.5 -111t-161 -42.5z" />
    <glyph glyph-name="t.end" horiz-adv-x="290" 
d="M322 715l-32 -190h70l-2 -10h-70q-101 -616 -101 -690q0 -51 20 -78.5t51 -27.5q24 0 42 20t18 54q0 17 -11 34t-28 22q2 44 33.5 69.5t71.5 25.5q36 0 62 -23t26 -62q0 -73 -64.5 -110.5t-150.5 -37.5q-46 0 -91 19.5t-80.5 55t-52.5 93.5t-6 128l84 508h-45l2 10
q111 0 169.5 43t75.5 147h9z" />
    <glyph glyph-name="u.titl" horiz-adv-x="604" 
d="M106 504h-4q-28 -138 -61 -240.5t-68 -168t-77 -105t-84.5 -55t-94.5 -15.5q-100 0 -161 52t-61 136q0 85 61.5 138t141.5 53q78 0 139 -43t61 -115q0 -52 -36 -87.5t-94 -35.5q-45 0 -73 31.5t-15 75.5q36 1 61 28t25 66q0 36 -25.5 54t-57.5 18q-56 0 -101.5 -52
t-45.5 -128q0 -30 8.5 -58.5t27.5 -57.5t57.5 -47t91.5 -18q85 0 149.5 50t122.5 181.5t102 352.5q50 18 113 18q44 0 59 -19.5t7 -69.5l-52 -320q-13 -76 32 -76q81 0 147 264q48 196 11 215l3 3q68 5 113 0.5t61.5 -40.5t2.5 -114l-29 -157q-15 -63 -12.5 -133t32.5 -82
l-3 -3q-32 -7 -71 -7q-73 0 -112 37.5t-18 123.5l37 154l-4 1q-48 -184 -101.5 -250t-137.5 -66q-49 0 -79 17t-38.5 43t-10.5 56t5 56z" />
    <glyph glyph-name="u.hist" horiz-adv-x="604" 
d="M592 375l-39 -222q-6 -33 -8.5 -56t-4 -56t5 -55.5t19 -44t38 -32.5t61.5 -11q115 0 209 87t94 199q0 70 -37 101.5t-86 31.5q-39 0 -66.5 -25t-27.5 -65q0 -33 20 -54t52 -22q5 -44 -28.5 -75.5t-78.5 -31.5q-52 0 -81.5 29t-29.5 73q0 52 39 94t93 63.5t108 21.5
q72 0 117 -35t45 -106q0 -73 -47.5 -141.5t-125.5 -111t-161 -42.5q-154 0 -237.5 74t-55.5 191l37 154l-4 1q-48 -184 -101.5 -250t-137.5 -66q-49 0 -79 17t-38.5 43t-10.5 56t5 56l49 299q2 16 -9.5 24t-31.5 2l-3 3q30 14 75 26.5t78 12.5q44 0 59 -19.5t7 -69.5
l-52 -320q-13 -76 32 -76q81 0 147 264q48 196 11 215l3 3q68 5 112.5 0.5t61.5 -40.5t3 -114z" />
    <glyph glyph-name="v.swsh" horiz-adv-x="517" 
d="M166 -7q-141 0 -117 147l52 324q2 16 -9.5 24t-31.5 2l-3 3q30 14 75 26.5t78 12.5q44 0 59 -19.5t7 -69.5l-46 -290q-11 -64 -7.5 -86.5t25.5 -22.5q49 0 132.5 95.5t149.5 223t66 208.5q0 25 -11.5 41.5t-28.5 20.5t-34 1t-30 -15.5t-16 -29.5q-33 2 -51 24.5t-18 53.5
q0 45 30.5 72.5t70.5 27.5q46 0 78.5 -36.5t32.5 -105.5q0 -104 -72.5 -254t-181.5 -264t-199 -114z" />
    <glyph glyph-name="w.swsh" horiz-adv-x="809" 
d="M487 -7q-67 0 -99 38t-15 109l39 168l-4 1q-33 -127 -68 -196t-73 -94.5t-94 -25.5q-49 0 -79 17t-38.5 43t-10.5 56t5 56l49 299q2 16 -9.5 24t-31.5 2l-3 3q30 14 75 26.5t78 12.5q44 0 59 -19.5t7 -69.5l-52 -320q-13 -76 32 -76q42 0 74.5 67.5t68.5 196.5
q11 42 19 83.5t8 82.5t-16 49l3 3q68 5 112.5 0.5t61 -40.5t3.5 -114l-37 -222q-11 -64 -7.5 -86.5t25.5 -22.5q48 0 119.5 95.5t124.5 222.5t53 209q0 25 -11.5 41.5t-28.5 20.5t-34 1t-30 -15.5t-16 -29.5q-33 2 -51 24.5t-18 53.5q0 45 30.5 72.5t70.5 27.5
q46 0 78.5 -36.5t32.5 -105.5q0 -78 -36.5 -187t-92.5 -207.5t-130.5 -168t-142.5 -69.5z" />
    <glyph glyph-name="x.swsh" horiz-adv-x="542" 
d="M369 418l32 -85q3 33 16.5 81.5t39 105t58 104.5t78.5 80t96 32q44 0 78.5 -22t34.5 -72q0 -43 -25.5 -67.5t-60.5 -24.5q-33 0 -55.5 22.5t-19.5 55.5q26 2 42 16.5t16 38.5q0 35 -36 35q-50 0 -98 -48t-80.5 -115.5t-52.5 -135t-21 -111.5l35 -90q45 -116 76.5 -162
t72.5 -53l-3 -3q-52 -10 -93.5 -10.5t-90 11.5t-87 51.5t-61.5 106.5l-12 34q-1 -33 -3 -55t-10 -52t-21.5 -48.5t-38.5 -31.5t-60 -13q-51 0 -88 28t-37 81q0 44 28.5 69.5t65.5 25.5q36 0 61 -24.5t22 -61.5q-29 -2 -46.5 -18t-17.5 -42q0 -39 41 -39q37 0 60 35t29 83
t1 103l-57 164q-39 115 -100 87l-3 3q72 45 152 45q57 0 88.5 -27.5t54.5 -86.5z" />
    <glyph glyph-name="x.titl" horiz-adv-x="551" 
d="M322 418l32 -84q11 198 139 198q44 0 78.5 -22t34.5 -72q0 -43 -25.5 -67.5t-60.5 -24.5q-33 0 -55.5 22.5t-19.5 55.5q26 2 42 16.5t16 38.5q0 35 -36 35q-51 0 -78.5 -65t-22.5 -146l33 -85q45 -116 76.5 -162t72.5 -53l-3 -3q-52 -10 -93.5 -10.5t-90 11.5t-87 51.5
t-61.5 106.5l-13 35q-3 -42 -24 -106t-55.5 -133t-90 -118t-117.5 -49q-44 0 -78.5 22t-34.5 72q0 43 25.5 67.5t60.5 24.5q33 0 55.5 -22.5t19.5 -55.5q-26 -2 -42 -16.5t-16 -38.5q0 -35 36 -35q50 0 99 50t81.5 119t52 137.5t19.5 109.5l-61 175q-39 115 -100 87l-3 3
q72 45 152 45q57 0 88.5 -27.5t54.5 -86.5z" />
    <glyph glyph-name="y.calt" horiz-adv-x="594" 
d="M338 -40l68 348l-4 1q-48 -184 -101.5 -250t-137.5 -66q-49 0 -79 17t-38.5 43t-10.5 56t5 56l49 299q2 16 -9.5 24t-31.5 2l-3 3q30 14 75 26.5t78 12.5q44 0 59 -19.5t7 -69.5l-52 -320q-13 -76 32 -76q81 0 147 264q48 196 11 215l3 3q68 5 112 0.5t60.5 -40.5
t4.5 -114l-54 -343q-13 -83 -83 -166.5t-154 -133t-144 -49.5q-55 0 -104 18t-85 44.5t-69 52.5t-71 44t-77 18q-42 0 -63 -16.5t-21 -40.5q0 -20 13.5 -33.5t39.5 -13.5q20 0 35.5 16.5t7.5 36.5q67 7 93 -46q23 -47 -3 -94q-30 -52 -98 -52q-56 0 -87 34.5t-31 85.5
q0 79 64 149.5t157 70.5q64 0 121.5 -24.5t96 -59.5t68.5 -70t53.5 -59.5t38.5 -24.5t29 10t24.5 29.5t18.5 38t15 47t11 44.5t8.5 42.5t5.5 29.5z" />
    <glyph glyph-name="y.swsh" horiz-adv-x="594" 
d="M338 -40l68 348l-4 1q-48 -184 -101.5 -250t-137.5 -66q-49 0 -79 17t-38.5 43t-10.5 56t5 56l49 299q2 16 -9.5 24t-31.5 2l-3 3q30 14 75 26.5t78 12.5q44 0 59 -19.5t7 -69.5l-52 -320q-13 -76 32 -76q81 0 147 264q48 196 11 215l3 3q68 5 112 0.5t60.5 -40.5
t4.5 -114l-54 -343q-21 -133 -151.5 -241t-276.5 -108q-78 0 -173 27.5t-168 61t-150.5 61t-124.5 27.5q-42 0 -63 -16.5t-21 -40.5q0 -20 13.5 -33.5t39.5 -13.5q20 0 35.5 16.5t7.5 36.5q67 7 93 -46q23 -47 -3 -94q-30 -52 -98 -52q-56 0 -87 34.5t-31 85.5q0 84 77 152
t216 68q72 0 146.5 -24.5t134.5 -59.5t112.5 -70t97 -59.5t72.5 -24.5q15 0 29 10t24.5 29.5t18.5 38t15 47t11 44.5t8.5 42.5t5.5 29.5z" />
    <glyph glyph-name="y.titl" horiz-adv-x="594" 
d="M338 -40l68 348l-4 1q-48 -184 -101.5 -250t-137.5 -66q-49 0 -79 17t-38.5 43t-10.5 56t5 56l49 299q2 16 -9.5 24t-31.5 2l-3 3q30 14 75 26.5t78 12.5q44 0 59 -19.5t7 -69.5l-52 -320q-13 -76 32 -76q81 0 147 264q48 196 11 215l3 3q68 5 112 0.5t60.5 -40.5
t4.5 -114l-54 -343q-21 -133 -151.5 -241t-276.5 -108q-115 0 -249.5 27.5t-232.5 61t-193.5 61t-141.5 27.5q-42 0 -63 -16.5t-21 -40.5q0 -20 13.5 -33.5t39.5 -13.5q20 0 35.5 16.5t7.5 36.5q67 7 93 -46q23 -47 -3 -94q-30 -52 -98 -52q-56 0 -87 34.5t-31 85.5
q0 84 77 152t216 68q97 0 201.5 -24.5t189 -59.5t158.5 -70t131 -59.5t84 -24.5q15 0 29 10t24.5 29.5t18.5 38t15 47t11 44.5t8.5 42.5t5.5 29.5z" />
    <glyph glyph-name="z.swsh" horiz-adv-x="520" 
d="M59 73q0 -14 12.5 -20.5t31.5 4.5q18 -29 2 -52t-46 -23q-19 0 -34 12.5t-15 37.5q0 47 50 71q20 46 70 82t109 60t117.5 47t106.5 54.5t66 70.5q-37 -16 -107 -26t-125 -14.5t-98 -22.5t-43 -52q0 -18 21 -30l-2 -3q-44 15 -71.5 51.5t-27.5 78.5q0 50 36 91.5t101 41.5
q49 0 106.5 -27.5t106 -55t75.5 -27.5q38 0 38 30q0 14 -12.5 20.5t-31.5 -4.5q-18 29 -2 52t46 23q19 0 34 -12.5t15 -37.5q0 -46 -48 -71q-14 -42 -59.5 -75.5t-103.5 -57t-117.5 -46.5t-112 -57t-75.5 -77q44 16 105 16q78 0 139.5 -22t100 -57t69 -77t55 -84t49.5 -77
t60.5 -57t80.5 -22q30 0 47 19t17 46q0 21 -11.5 39.5t-31.5 25.5q2 44 33.5 69.5t71.5 25.5q36 0 62 -23t26 -62q0 -50 -35 -84.5t-83.5 -49t-103.5 -14.5q-98 0 -176.5 21.5t-128.5 55.5t-89 75.5t-65.5 83t-49.5 75.5t-50 55.5t-58 21.5q-19 0 -33 -11.5t-14 -24.5z" />
    <glyph glyph-name="d.superior" horiz-adv-x="407" 
d="M468 705l-51 -314q-20 -126 13 -139l-2 -2q-36 -5 -70 -3.5t-53 28t-7 75.5l19 100h-2q-26 -113 -62 -159t-86 -46q-46 0 -71 28t-25 81q0 56 23 109.5t72.5 92.5t113.5 39q26 0 44 -5l-1 -2q-56 -3 -94.5 -94t-41.5 -181q0 -47 20 -47q28 0 58 54.5t42 131.5l46 267
q2 10 -6 15.5t-21 1.5l-2 2q52 25 100 25q28 0 38.5 -13t5.5 -45z" />
    <glyph glyph-name="h.superior" horiz-adv-x="447" 
d="M114 348l61 373q2 10 -5.5 15.5t-20.5 1.5l-2 2q52 25 99 25q29 0 39.5 -13t3.5 -45l-60 -314l2 -1q54 205 167 205q38 0 56 -19t16.5 -43.5t-3.5 -48.5l-16 -93q-22 -126 13 -139l-2 -2q-36 -5 -69 -4t-52.5 27.5t-11.5 76.5l26 161q7 49 -11 49q-28 0 -58 -49t-48 -122
q-31 -125 -7 -137l-2 -2q-74 -11 -101 6t-14 90z" />
    <glyph glyph-name="n.superior" horiz-adv-x="447" 
d="M113 347l37 205q2 10 -6 15.5t-21 1.5l-2 2q52 25 100 25q29 0 39 -12.5t3 -45.5l-35 -147h2q54 205 167 205q38 0 56 -19t16.5 -44t-3.5 -49l-16 -92q-23 -127 13 -140l-2 -2q-36 -5 -69 -3.5t-52.5 28t-11.5 76.5l26 161q7 49 -11 49q-27 0 -57.5 -49t-48.5 -122
q-31 -126 -7 -138l-2 -2q-73 -11 -100.5 6.5t-14.5 90.5z" />
    <glyph glyph-name="r.superior" horiz-adv-x="379" 
d="M237 385q-31 -124 -7 -136l-2 -2q-19 -7 -41.5 -5t-41.5 9.5t-29 31.5t-3 61l37 205q1 10 -6.5 15t-20.5 1l-2 2q54 26 99 26q29 0 39.5 -13t3.5 -45l-35 -148h2q33 123 63 167t81 44q40 0 61.5 -21.5t21.5 -53.5q0 -35 -25 -61.5t-66 -26.5q-24 0 -40 15t-13 43
q19 0 33.5 15.5t14.5 37.5q0 31 -25 31q-24 0 -51 -53t-48 -139z" />
    <glyph glyph-name="s.superior" horiz-adv-x="348" 
d="M192 245q-133 0 -133 69q0 25 17 43.5t43 18.5q21 0 35.5 -12.5t11.5 -34.5q-30 -11 -30 -43q0 -35 60 -35q20 0 40 3t40 15t20 32q0 21 -31.5 38.5t-70 29.5t-70 38.5t-31.5 63.5q0 62 55.5 93.5t125.5 31.5q49 0 86 -14.5t37 -47.5q0 -22 -15.5 -39t-38.5 -17
q-18 0 -30 11.5t-10 32.5q27 9 27 35q0 33 -64 33q-27 0 -50 -12.5t-23 -37.5q0 -21 31 -37.5t68.5 -26.5t68.5 -35t31 -62q0 -65 -62 -99.5t-138 -34.5z" />
    <glyph glyph-name="t.superior" horiz-adv-x="250" 
d="M281 705l-19 -114h45l-2 -7h-44l-33 -196q-20 -127 13 -140l-2 -2q-18 -5 -43 -2t-47 10.5t-34.5 31.5t-6.5 61l37 237h-29l1 7q75 0 111 23.5t47 90.5h6z" />
    <glyph glyph-name="g_j" horiz-adv-x="886" 
d="M378 524q-39 0 -76.5 -65.5t-59 -157.5t-21.5 -175q0 -79 35 -79q44 0 88 93t65 210l11 61q12 61 3 87t-45 26zM616 528l-82 -521q-17 -107 -97 -169.5t-218 -62.5q-35 0 -66.5 4.5t-63 15.5t-50 34t-18.5 55q0 42 29.5 69.5t72.5 27.5q34 0 59 -22.5t21 -60.5
q-26 -3 -41 -19t-15 -37q0 -24 19.5 -41t57.5 -17q55 0 80 36.5t40 114.5l72 373l-4 1q-45 -176 -101 -246t-129 -70t-107.5 53.5t-34.5 131.5q0 80 42.5 161.5t119.5 137t164 55.5q30 0 69.5 -12t66 -21.5t58 -4t56.5 33.5zM882 443l-65 -410q-6 -38 -10 -60.5t-12 -54.5
t-16.5 -50.5t-22.5 -40.5t-30.5 -33t-40.5 -19t-53 -8q-63 0 -96.5 26t-33.5 69t28.5 71t78.5 28q40 0 65 -31t8 -68q-23 5 -39.5 -8t-16.5 -36q0 -39 39 -39q32 0 56 30t24 70q0 30 -17.5 56t-38.5 42t-36 39t-11 47l65 401q2 16 -9.5 24t-31.5 2l-3 3q30 14 75 26.5
t78 12.5q44 0 59 -19.5t7 -69.5zM753 571l-2 3q17 27 19.5 71.5t-18.5 75.5q18 33 49 52.5t62 19.5q33 0 58 -20t25 -59q0 -59 -58 -102.5t-135 -40.5z" />
    <glyph glyph-name="ampersand.alt" horiz-adv-x="829" 
d="M469 707q104 0 154 -37.5t50 -90.5q0 -45 -34 -73.5t-76 -28.5q-32 0 -53.5 19t-21.5 55q23 11 39 34t16 51q0 29 -19.5 46t-54.5 17q-57 0 -90 -55.5t-33 -119.5q0 -54 30 -85.5t84 -31.5h27l-2 -8h-16q-90 0 -157 -77t-67 -171q0 -69 47 -107t113 -38q75 0 133.5 50.5
t58.5 126.5q0 56 -41.5 85.5t-105.5 31.5q-37 -1 -70.5 -16t-33.5 -47q0 -34 52 -34q26 0 48 13t31 37q35 -2 52 -22t17 -50q0 -50 -40.5 -88t-93.5 -38q-54 0 -83 29.5t-29 73.5q0 70 58.5 120.5t134.5 50.5q55 0 139 -18t126 -18q36 0 70 15t34 48q0 34 -52 34
q-26 0 -48.5 -13t-31.5 -37q-34 2 -51 22t-17 50q0 50 40.5 88t93.5 38q54 0 83 -29t29 -74q0 -71 -58.5 -121t-135.5 -50q-51 0 -191 29v-1q50 -12 81.5 -44t31.5 -75q0 -47 -29 -83.5t-75 -56.5t-95 -30t-95 -10q-75 0 -139 19t-106.5 59.5t-42.5 95.5q0 49 23.5 88.5
t60.5 65t85.5 43.5t95.5 26t94 9l1 2q-118 1 -180 39.5t-62 93.5q0 44 30.5 79t77.5 54.5t96 29.5t93 10z" />
    <glyph glyph-name="ampersand.swsh" horiz-adv-x="815" 
d="M536 -110q13 83 -51 202q-60 -48 -125 -73.5t-116 -25.5q-93 0 -143.5 49t-50.5 122q0 87 72 157.5t191 86.5q-23 77 -13 138q12 74 81.5 117.5t149.5 43.5q61 0 91.5 -21.5t30.5 -55.5q0 -42 -44 -88.5t-116 -76.5q15 -31 48 -87t43 -74q11 96 57.5 162t129.5 66
q50 0 82 -30t32 -76q0 -52 -38 -94t-89 -42q-35 0 -55.5 21.5t-16.5 62.5q28 6 44.5 31.5t16.5 53.5q0 41 -38 41q-44 0 -78 -68t-39 -144q54 -104 54 -191q0 -130 -80.5 -233.5t-179.5 -103.5q-51 0 -84 29.5t-33 79.5q0 46 32.5 82.5t85.5 36.5q39 0 62 -23.5t18 -68.5
q-45 -15 -54 -55q-7 -34 19 -48q8 -4 19 -4q23 0 50.5 29t34.5 72zM237 261q0 -102 71.5 -158.5t174.5 -6.5q-18 34 -57 95.5t-67.5 114t-44.5 99.5q-33 -16 -55 -57.5t-22 -86.5zM586 630q0 31 -14 50t-43 19q-28 0 -49.5 -23.5t-21.5 -71.5q0 -62 34 -135q40 23 67 70
t27 91z" />
    <glyph glyph-name="ampersand.titl" horiz-adv-x="854" 
d="M236 -18q-81 0 -136.5 46.5t-55.5 129.5q0 101 73.5 163.5t174.5 77.5q-4 28 -4 62q0 25 1 37q7 97 73.5 153t161.5 56q60 0 90.5 -20.5t30.5 -53.5q0 -54 -53.5 -102.5t-113.5 -73.5l-1 3q44 25 73 75.5t29 98.5q0 65 -57 65q-37 0 -54.5 -37.5t-17.5 -78.5
q0 -167 84 -367q1 47 12.5 96t33 96t60 77t87.5 30q58 0 97 -40t39 -102q0 -67 -43 -118t-110 -51q-53 0 -85.5 32t-32.5 75q0 30 17 57.5t56 37.5q19 -42 62 -42q30 0 48 19.5t18 47.5q0 29 -18.5 49t-55.5 20q-55 0 -96.5 -48t-60.5 -114t-22 -137q56 -132 133 -244.5
t156 -175.5q106 41 167 41q41 0 73 -13.5t32 -34.5q0 -14 -11.5 -27.5t-50 -26t-97.5 -12.5q-83 0 -173 41q-193 -74 -339 -74q-105 0 -237 32t-251 64t-193 32q-63 0 -99 -43l-5 3q51 101 131 147t163 46q60 0 123.5 -24t121.5 -58t119 -67.5t138 -57.5t157 -24
q71 0 160 29q-93 46 -179 127t-152 182q-77 -81 -191 -81zM228 221q0 -75 37 -123t97 -48q29 0 63 17q-111 169 -132 330q-65 -48 -65 -176zM971 -283q37 0 78.5 15.5t41.5 39.5q0 19 -28.5 30.5t-65.5 11.5q-58 0 -161 -39q76 -58 135 -58z" />
    <glyph glyph-name="Euro.alt" horiz-adv-x="444" 
d="M103 508l2 8h27q24 85 91.5 137t160.5 52q53 0 92 -15l48 13l-22 -181h-6q2 44 -4.5 80t-33 65.5t-72.5 29.5q-85 0 -121 -181h140l-2 -8h-140l-11 -71h140l-1 -8h-140q-21 -181 64 -181q66 0 106 52t59 123h6l-35 -181l-44 12q-40 -14 -97 -14q-87 0 -137 52t-52 137
h-30l1 8h29q0 34 8 71h-26z" />
    </font>
</defs>
</svg>
